<?xml version="1.0" encoding="UTF-8" standalone="no"?>
<!-- Generator: Adobe Illustrator 22.1.0, SVG Export Plug-In . SVG Version: 6.00 Build 0)  -->

<svg
   version="1.1"
   id="Capa_1"
   x="0px"
   y="0px"
   viewBox="0 0 28891.21 12543.96"
   xml:space="preserve"
   width="28891.209"
   height="12543.96"
   xmlns="http://www.w3.org/2000/svg"
   xmlns:svg="http://www.w3.org/2000/svg"><defs
   id="defs4" />
<style
   type="text/css"
   id="style1">
	.st0{filter:url(#Adobe_OpacityMaskFilter);}
	.st1{fill:#FFFFFF;}
	.st2{mask:url(#c_2_);fill:url(#SVGID_1_);}
	.st3{fill:#2A2E76;}
</style>
<g
   transform="translate(112.45,19)"
   id="g3">
	<defs
   id="defs1"><filter
     id="Adobe_OpacityMaskFilter"
     filterUnits="userSpaceOnUse"
     x="-181.8"
     y="-19"
     width="104.6"
     height="112.2">
			<feColorMatrix
   type="matrix"
   values="1 0 0 0 0  0 1 0 0 0  0 0 1 0 0  0 0 0 1 0"
   id="feColorMatrix1" />
		</filter></defs>
	<mask
   maskUnits="userSpaceOnUse"
   x="-181.8"
   y="-19"
   width="104.6"
   height="112.2"
   id="c_2_">
		<g
   class="st0"
   id="g1">
			<path
   id="a_2_"
   class="st1"
   d="m -134,82 c -0.5,3.5 -0.8,7.2 -0.8,10.8 h 3.4 c 0,-3.6 -0.1,-7.2 -0.4,-10.8 -0.1,-0.9 0.2,-3.3 -1.2,-3.3 -1.2,0 -0.9,2.5 -1,3.3 z m 9.3,-3.9 c -0.8,0.6 0,3.5 0.1,4.3 0.6,3.4 1.3,6.9 1.7,10.3 h 3.2 c -0.2,-3.6 -1.8,-7.5 -2.8,-11 -0.2,-0.7 -0.7,-3.8 -1.9,-3.8 0,0 -0.2,0.1 -0.3,0.2 z m 9.2,-3 c -0.9,0.6 0.4,3.4 1,4.6 2,4.3 4.9,8.5 6.2,13.1 h 4.1 c -0.6,-1.7 -1.7,-3.3 -2.7,-4.8 -1.7,-2.9 -3.4,-5.8 -5.1,-8.7 -0.9,-1.6 -2,-4.3 -3.1,-4.3 -0.1,-0.1 -0.3,0 -0.4,0.1 z m 7.1,-3.5 c 0.7,1.8 2.1,3.4 3.2,5 2.3,3.5 4.7,6.9 7.1,10.3 0.9,1.3 1.7,2.6 2.7,3.9 0.4,0.5 0.7,1.4 1.4,1.6 1,0.4 3.1,0.4 4.3,0.4 -1.6,-3.1 -4.6,-6.1 -6.8,-8.8 l -6.6,-8.3 c -1.3,-1.6 -2.5,-3.4 -4,-4.8 z m -36.6,9.9 c -1,3.7 -1.8,7.6 -3,11.2 h 5.3 c 0.8,-6.5 1.7,-13 2.6,-19.5 0.3,-1.9 1.7,-5.9 -1.2,-6 -1.1,4.9 -2.5,9.6 -3.7,14.3 z m 11.4,-14.1 c -0.1,0 -0.1,0 -0.2,0 -0.2,0.3 -0.2,0.5 -0.2,0.8 0,2 0,4 0,6.1 0,0.2 0,0.3 0,0.5 0.1,0.4 0.6,0.7 1,0.7 0.4,0 0.7,-0.4 0.8,-0.8 0,-0.2 0,-0.4 0,-0.7 0,-1 0,-2.1 0,-3.1 0,-0.9 0,-1.9 0,-2.8 0,-0.5 -0.2,-0.8 -0.7,-1 -0.1,0.3 -0.4,0.3 -0.7,0.3 z m 6.6,-1 c -0.2,0.1 -0.5,0.2 -0.8,0.3 0.1,0.5 0.2,0.9 0.3,1.3 0.4,2.1 0.9,4.2 1.3,6.3 0.1,0.3 0.1,0.5 0.3,0.8 0.1,0.2 0.3,0.3 0.5,0.3 0.8,0.1 1.2,-0.4 1.1,-1.1 0,-0.1 0,-0.2 -0.1,-0.4 -0.4,-2.1 -0.8,-4.1 -1.3,-6.2 -0.1,-0.3 -0.1,-0.6 -0.2,-0.8 -0.1,-0.4 -0.5,-0.6 -0.8,-0.6 -0.1,0 -0.2,0.1 -0.3,0.1 z m 24.5,-1.5 c -0.8,0.7 -0.1,1.5 0.4,2 1.5,1.6 2.9,3.2 4.4,4.7 5.1,5.3 9.8,10.9 15,16.1 1.6,1.7 3.9,5.3 4.5,5 0.5,-0.3 0.8,-4.9 0.1,-5.6 -1.4,-1.5 -3.8,-3.4 -5.3,-4.8 -4.1,-3.8 -8,-7.9 -11.9,-11.8 -1.7,-1.7 -3.4,-3.3 -5.1,-5 -0.4,-0.4 -0.9,-0.9 -1.4,-0.9 -0.2,0.1 -0.4,0.2 -0.7,0.3 z m -18.3,0 c 0.2,0.8 3.1,7.5 3.6,8.2 0.7,-0.1 1.3,-0.1 1.8,-0.7 -0.2,-0.3 -0.3,-0.6 -0.4,-0.8 -0.9,-1.6 -1.8,-3.3 -2.7,-4.9 -0.2,-0.4 -0.3,-0.7 -0.5,-1.1 -0.2,-0.4 -0.4,-0.8 -0.8,-1.2 z m -27.1,-0.4 c -0.7,0.3 -1,1.1 -1.3,1.7 l -2.2,4.4 c -2.4,4.7 -4.6,9.5 -7,14.2 -1.3,2.6 -3,5.3 -3.8,8 h 7.8 c 0.5,-3.6 2,-7.3 3,-10.8 1.7,-5.7 3.4,-11.5 5.2,-17.2 -0.4,-0.2 -0.9,-0.4 -1.3,-0.4 -0.1,0 -0.3,0 -0.4,0.1 z m 32.8,-2.7 c -0.1,0.4 0.2,0.7 0.4,1 1.4,2 2.8,4 4.2,6 0.1,0.2 0.2,0.3 0.3,0.5 0.2,0.2 0.4,0.4 0.7,0.3 0.4,-0.1 0.7,-0.2 1,-0.5 -0.1,-0.1 -0.1,-0.2 -0.2,-0.3 -0.5,-0.8 -1,-1.6 -1.6,-2.4 -1,-1.2 -1.9,-2.4 -2.8,-3.7 -0.1,-0.1 -0.2,-0.3 -0.3,-0.5 -0.1,-0.4 -0.5,-0.6 -0.8,-0.9 z m -39.5,0.9 c -1.4,1.9 -2.8,3.8 -4.3,5.7 -4.3,5.5 -8.4,11.2 -12.6,16.7 -1.8,2.4 -3.5,5.6 -5.9,7.3 1.5,0.6 3.8,0.2 5.5,0.2 0.6,0 1.4,0.1 2,-0.2 0.7,-0.4 1.1,-1.4 1.5,-2.1 0.8,-1.3 1.7,-2.6 2.5,-3.9 3.3,-5 6.5,-10.1 9.8,-15.1 1.4,-2.1 2.8,-4.2 4.2,-6.4 0.8,-1.3 1.2,-2.6 -0.3,-3.5 -0.2,-0.1 -0.4,-0.2 -0.6,-0.2 -0.9,0.1 -1.4,1 -1.8,1.5 z m 56.4,-2.5 c 1.6,2.2 4.7,3.8 6.9,5.4 4.5,3.3 8.9,7.2 13.8,9.9 0,-1.1 0.4,-3.1 -0.4,-4.1 -1.2,-1.6 -3.9,-2.8 -5.6,-3.9 l -8.7,-5.8 c -1.5,-1 -3,-2.4 -4.8,-3 z m -31.2,-1.7 c -0.2,0.4 -0.1,0.7 0,1 0.2,1 0.5,1.9 0.7,2.9 0.1,0.4 0.2,0.9 0.4,1.3 0.1,0.3 0.3,0.4 0.5,0.3 0.3,-0.1 0.3,-0.3 0.3,-0.6 0,-0.2 -0.1,-0.3 -0.1,-0.4 l -0.4,-1.5 c -0.2,-0.9 -0.4,-1.9 -0.7,-2.8 0,-0.1 -0.1,-0.1 -0.1,-0.2 z m -30,0.1 c -2,1.8 -4,3.6 -6,5.4 -3.8,3.5 -7.7,6.9 -11.5,10.4 -1.3,1.2 -3.5,2.5 -4.4,4.1 -0.4,0.8 -0.2,1.9 -0.2,2.8 v 5.5 c 1.2,-0.6 1.9,-1.6 2.8,-2.5 1.2,-1.4 2.5,-2.7 3.7,-4.1 4.4,-5 8.9,-9.9 13.3,-14.9 1.5,-1.7 3.1,-3.2 4.4,-5 0.4,-0.6 0.8,-1.7 0.2,-2.3 -0.2,-0.2 -0.4,-0.2 -0.6,-0.2 -0.6,-0.2 -1.3,0.5 -1.7,0.8 z m 48.7,-0.6 c 0.1,0.2 0.1,0.3 0.2,0.3 2.2,2.1 4.3,4.2 6.5,6.3 0.1,0.1 0.2,0.1 0.2,0.1 0.3,-0.3 0.7,-0.7 1,-1 0.2,-0.2 0.2,-0.5 0,-0.7 -0.1,-0.1 -0.1,-0.1 -0.2,-0.2 -2.1,-1.8 -4.2,-3.5 -6.3,-5.3 -0.1,-0.1 -0.3,-0.2 -0.5,-0.3 z M -124,57.1 c -0.2,0.1 -0.3,0.3 -0.2,0.5 0.1,0.1 0.1,0.3 0.2,0.4 0.8,1.5 1.6,3.1 2.4,4.6 0.1,0.2 0.2,0.3 0.3,0.5 0.3,-0.2 0.8,-0.2 1.1,-0.6 -0.3,-0.6 -0.6,-1.2 -1,-1.9 -0.3,-0.7 -0.7,-1.3 -1,-2 -0.3,-0.6 -0.6,-1.3 -1.1,-1.9 -0.3,0.3 -0.5,0.3 -0.7,0.4 z m 4.9,-0.4 c 0,0.2 0,0.4 0.1,0.4 0.8,1.1 1.6,2.1 2.4,3.2 0.2,-0.1 0.4,-0.2 0.5,-0.3 0.2,-0.1 0.3,-0.3 0.5,-0.4 -0.3,-0.7 -0.8,-1.1 -1.2,-1.6 -0.5,-0.5 -0.8,-1.1 -1.4,-1.6 z m -14.6,0 c -0.1,0.3 -0.1,0.6 -0.1,0.8 0,1.1 0.1,2.1 0.1,3.2 0,0.6 0,1.1 -0.1,1.7 -0.1,0.8 0.1,1.5 0.2,2.3 0,0.1 0,0.1 0.1,0.2 0.2,0.1 0.3,0.2 0.5,0.2 0.1,0 0.3,-0.2 0.3,-0.3 0.1,-0.1 0,-0.3 0,-0.5 -0.1,-1.7 -0.1,-3.3 -0.2,-5 0,-0.8 -0.1,-1.6 -0.1,-2.4 0,-0.2 -0.1,-0.4 -0.1,-0.6 -0.4,0 -0.6,0.2 -0.6,0.4 z m 4.2,-0.9 c -0.1,0 -0.2,0.1 -0.4,0.2 0.1,0.6 0.1,1.2 0.4,1.8 0,0.1 0.2,0.2 0.3,0.2 0.1,0 0.2,-0.1 0.3,-0.2 0.1,-0.2 0.2,-0.3 0.2,-0.5 -0.1,-0.4 -0.2,-0.8 -0.3,-1.3 -0.2,-0.2 -0.3,-0.3 -0.5,-0.2 0.1,-0.1 0,-0.1 0,0 z m -8.6,0 c 0,0.1 0,0.3 -0.1,0.5 -0.1,0.6 -0.2,1.3 -0.3,1.9 -0.3,1.6 -0.6,3.2 -0.9,4.8 0,0.2 -0.1,0.3 0,0.5 0,0.4 0.4,0.6 0.8,0.3 0.2,-0.1 0.4,-0.3 0.4,-0.5 0.2,-0.4 0.3,-0.7 0.4,-1.1 0.2,-0.9 0.3,-1.8 0.4,-2.7 0.1,-1.1 0.3,-2.2 0.4,-3.2 0,-0.1 0,-0.2 0,-0.3 0,-0.3 -0.2,-0.5 -0.5,-0.6 0,0 -0.1,0 -0.1,0 -0.2,-0.1 -0.4,0.1 -0.5,0.4 z m 13,-0.8 c 0,0.6 0.2,1.3 0.8,1.7 l 0.6,-0.4 -0.8,-1.6 c -0.1,0 -0.1,0 -0.2,0 -0.2,-0.1 -0.4,0 -0.4,0.3 z m -17.7,0 c -0.2,0.6 -0.5,1.2 -0.7,1.8 -0.6,1.4 -1.2,2.8 -1.8,4.3 -0.4,0.9 -0.4,1 0.6,1.3 0.1,0 0.1,0 0.2,0 0.1,-0.1 0.1,-0.2 0.2,-0.3 1,-2.5 2.1,-4.9 3.1,-7.4 0.1,-0.1 0.1,-0.3 0.1,-0.4 -0.3,-0.2 -0.6,-0.4 -1,-0.5 -0.3,0.3 -0.5,0.7 -0.7,1.2 z m -4.2,-1.5 c -0.2,0.4 -0.5,0.8 -0.8,1.1 -0.6,0.9 -1.1,1.8 -1.6,2.7 l -0.8,1.3 c 0.3,0.4 0.6,0.6 1,0.8 0.1,-0.1 0.2,-0.2 0.3,-0.3 1,-1.6 2,-3.3 3.1,-4.9 0.3,-0.4 0.2,-0.7 -0.1,-1 v 0 0 0 0 0 c -0.1,-0.1 -0.3,-0.1 -0.4,-0.1 -0.3,0 -0.5,0.2 -0.7,0.4 z m -5.3,-0.7 c -0.2,0 -0.4,0.1 -0.5,0.2 -0.6,0.5 -1.2,1.1 -1.7,1.7 -0.4,0.4 -0.2,0.7 0.3,0.9 0.1,0 0.2,0 0.3,0 0.7,-0.7 1.4,-1.3 2.1,-2 0.1,-0.1 0.2,-0.3 0.1,-0.5 -0.2,-0.2 -0.4,-0.3 -0.6,-0.3 z m -11.5,0.4 c -1.8,0.9 -3.5,2 -5.3,3 -2.9,1.7 -5.8,3.3 -8.7,5 -1,0.6 -2.8,1.3 -3.4,2.3 -0.4,0.6 -0.2,1.5 -0.2,2.2 v 4.8 c 2.7,-1.7 5.3,-3.9 7.8,-5.9 2.8,-2.2 5.7,-4.3 8.5,-6.5 1.3,-1 5.3,-3 3.4,-5.2 -0.2,-0.2 -0.4,-0.3 -0.7,-0.3 -0.5,0.1 -1,0.4 -1.4,0.6 z m 41.9,-0.1 c 0.1,0.2 0.1,0.3 0.2,0.4 0.3,0.4 0.7,0.9 1,1.3 0.3,0.4 0.7,0.8 1.1,1.2 0.3,0.3 0.6,0.1 0.7,-0.2 0,-0.1 0,-0.3 0,-0.4 -0.1,-0.2 -0.2,-0.4 -0.4,-0.5 -0.3,-0.4 -0.7,-0.9 -1,-1.3 -0.2,-0.3 -0.4,-0.5 -0.7,-0.8 -0.1,-0.1 -0.2,-0.1 -0.3,-0.1 z m 14.6,0.5 c 0.2,0.4 0.5,0.5 0.7,0.7 1.5,1 3.1,2.1 4.6,3.1 0.7,0.5 1.4,1 2.1,1.5 0.1,0.1 0.3,0.2 0.4,0.2 0.4,-0.2 0.5,-0.6 0.6,-0.9 0.3,-0.5 0.3,-0.6 -0.2,-0.9 -2.4,-1.6 -4.8,-3.1 -7.2,-4.6 -0.1,-0.1 -0.3,-0.1 -0.5,-0.2 z m 13,0 c 3.5,2.1 7.5,3.6 11.2,5.3 1.8,0.8 3.6,2 5.5,2.3 v -3.4 c -4.1,-1.1 -8.2,-3 -12.1,-4.5 -1,-0.4 -2.1,-1 -3,-1 -0.8,-0.2 -1.4,0.2 -1.6,1.3 z m -51.1,-1.7 c -0.1,0 -0.2,0.1 -0.3,0.1 -0.4,0.3 -0.5,0.7 -0.2,1.2 l 0.7,-0.1 c 0.1,-0.2 0.2,-0.3 0.3,-0.5 0,-0.1 0.1,-0.1 0.1,-0.2 0,-0.2 -0.2,-0.5 -0.6,-0.5 z m 4.7,-1 c -0.2,0.3 -0.2,0.6 -0.3,1 0.2,0 0.4,0.1 0.7,0.1 0.1,-0.3 0.3,-0.6 0.4,-0.9 0.1,-0.2 -0.1,-0.4 -0.3,-0.5 0,0 -0.1,0 -0.1,0 -0.2,0.1 -0.4,0.2 -0.4,0.3 z m 30.7,0.6 c 0.3,0.2 0.5,0.4 0.7,0.5 0.3,0.1 0.5,0 0.7,-0.2 0.2,-0.3 0.2,-0.6 -0.2,-0.8 -0.2,-0.1 -0.4,-0.2 -0.6,-0.3 -0.3,0.2 -0.5,0.4 -0.6,0.8 z m -26.9,-1.2 c -0.1,0.1 -0.2,0.1 -0.2,0.2 -0.2,0.6 -0.3,1.1 -0.5,1.7 -0.1,0.2 0,0.4 0.2,0.5 0.4,0.3 0.6,0.2 0.8,-0.2 0.3,-0.6 0.4,-1.3 0.4,-2 -0.3,-0.1 -0.5,-0.1 -0.5,-0.1 -0.1,-0.2 -0.2,-0.1 -0.2,-0.1 z m 18.3,-0.4 c -0.1,0.1 -0.2,0.4 0,0.6 0.2,0.3 0.5,0.5 0.8,0.8 0.3,0.3 0.7,0.6 1.1,0.9 1.2,1.1 2.3,2.3 3.4,3.4 0.4,0.4 0.8,0.8 1.3,1.3 0.4,-0.5 0.4,-0.5 0.4,-0.7 0,-0.2 -0.1,-0.4 -0.3,-0.5 -0.2,-0.2 -0.4,-0.4 -0.6,-0.6 -1.7,-1.7 -3.3,-3.3 -5,-5 -0.1,-0.1 -0.2,-0.2 -0.4,-0.3 -0.1,0 -0.2,-0.1 -0.2,-0.1 -0.2,0 -0.4,0.1 -0.5,0.2 z m -30.7,-0.1 c -0.7,0.7 -1.5,1.5 -2.2,2.2 0,0 -0.1,0.1 -0.1,0.1 0,0.2 -0.1,0.4 0,0.5 0.1,0.1 0.2,0.2 0.4,0.3 0.8,-0.6 1.3,-1.5 2.2,-1.9 0.1,0 0.2,-0.2 0.3,-0.3 0.2,-0.3 0.4,-0.7 0.6,-1 -0.1,-0.1 -0.2,-0.2 -0.3,-0.2 -0.1,0 -0.2,0 -0.2,0 -0.4,0 -0.6,0.1 -0.7,0.3 z m 15.4,-1.2 c -0.1,0.2 -0.1,0.4 -0.1,0.5 0,0.6 0,1.2 0,1.8 v 0 c 0,0.7 0,1.3 0,2 0,0.2 0,0.4 0.1,0.5 0.1,0.1 0.3,0.3 0.4,0.3 0.1,0 0.3,-0.1 0.4,-0.3 0.1,-0.1 0.1,-0.4 0.1,-0.5 0,-1.2 -0.1,-2.4 -0.1,-3.6 0,-0.2 0,-0.4 -0.1,-0.6 0,-0.2 -0.1,-0.3 -0.3,-0.3 v 0 c -0.2,-0.1 -0.4,0 -0.4,0.2 z m -19.8,-0.9 c -1.5,0.9 -3,1.8 -4.5,2.8 -0.1,0.1 -0.2,0.1 -0.3,0.2 -0.1,0.1 -0.1,0.2 -0.1,0.3 0,0.4 0.2,0.7 0.5,0.8 0.3,0.1 0.5,0.1 0.8,-0.1 0.1,-0.1 0.2,-0.2 0.3,-0.2 1.3,-1 2.5,-1.9 3.8,-2.9 0.2,-0.2 0.4,-0.4 0.6,-0.5 0,-0.4 -0.2,-0.5 -0.6,-0.7 -0.2,0.2 -0.4,0.2 -0.5,0.3 z m 49.1,0.8 c 1,0.5 2.1,0.9 3.1,1.3 1,0.4 2.1,0.8 3.1,1.3 1,0.4 2,0.9 3,1.2 0.4,-0.3 0.7,-0.6 0.9,-1.1 -0.1,-0.1 -0.2,-0.2 -0.2,-0.2 -2.9,-1.2 -5.8,-2.3 -8.8,-3.5 -0.1,-0.1 -0.3,-0.1 -0.4,-0.1 -0.4,0.3 -0.6,0.7 -0.7,1.1 z m -64.7,-1.1 c -2.9,0.9 -5.8,1.8 -8.7,2.6 -0.9,0.3 -2.6,0.4 -3.2,1.2 -0.4,0.5 -0.2,1.3 -0.2,1.9 v 4.6 c 4.3,-2.2 8.5,-4.5 12.8,-6.7 1.4,-0.7 4.2,-1.7 2.9,-3.8 -0.2,-0.4 -0.6,-0.5 -1,-0.5 -0.9,0 -2,0.5 -2.6,0.7 z m 53.3,0.2 c 0.2,0.2 0.4,0.3 0.6,0.5 1.3,0.9 2.7,1.8 4,2.6 0.2,0.1 0.4,0.3 0.7,0.3 0.1,0 0.3,0 0.3,0 0.3,-0.3 0.3,-0.7 0.1,-1 0,0 -0.1,-0.1 -0.1,-0.1 -0.1,-0.1 -0.2,-0.1 -0.3,-0.2 -1.2,-0.7 -2.3,-1.4 -3.4,-2.2 -0.4,-0.3 -0.8,-0.5 -1.2,-0.8 z m -35.3,-1.1 c -0.4,0 -0.7,0.1 -0.8,0.6 l 0.5,0.5 c 0.4,-0.2 0.7,-0.3 0.8,-0.6 -0.1,-0.2 -0.2,-0.5 -0.5,-0.5 z m 28.5,-0.1 c 0.1,0.1 0.1,0.1 0.2,0.2 l 2.3,2 v 0 c 0,0 0,0 0.1,0 0.5,-0.3 0.6,-0.4 0.2,-0.8 -0.6,-0.5 -1.2,-1.1 -1.8,-1.6 l -0.7,-0.6 c -0.7,0.2 -0.8,0.4 -0.3,0.8 z m -9,-1.3 c -0.2,0 -0.3,0.2 -0.3,0.4 0,0.1 0,0.1 0,0.2 0.4,2.2 0.7,4.3 1.1,6.5 0,0.2 0.1,0.3 0.1,0.5 0.1,0.3 0.3,0.4 0.7,0.3 0.3,-0.1 0.5,-0.3 0.4,-0.6 0,-0.1 0,-0.2 -0.1,-0.3 -0.4,-2.1 -0.8,-4.2 -1.2,-6.3 0,-0.2 -0.1,-0.4 -0.2,-0.6 -0.1,-0.1 -0.2,-0.2 -0.3,-0.2 -0.1,0.1 -0.1,0.1 -0.2,0.1 z m 4.5,0.3 c 1.1,2 2.5,3.6 3.9,5.3 l 0.5,-0.4 c -0.1,-0.6 -0.4,-1 -0.7,-1.4 -0.8,-0.9 -1.5,-1.8 -2.1,-2.8 -0.1,-0.2 -0.2,-0.3 -0.3,-0.5 -0.2,-0.2 -0.3,-0.4 -0.5,-0.5 -0.1,-0.1 -0.2,-0.1 -0.3,-0.1 -0.1,0 -0.2,0.1 -0.5,0.4 z M -136,45 c -0.1,0.3 -0.1,0.7 -0.2,1 -0.5,1.1 -0.5,2.3 -0.7,3.4 0,0.1 0.1,0.3 0.1,0.3 0.3,0.2 0.7,0.1 0.9,-0.2 0,-0.1 0.1,-0.1 0.1,-0.2 0,-0.1 0,-0.2 0,-0.3 0.2,-1.3 0.3,-2.6 0.5,-3.9 0.1,-0.4 -0.1,-0.6 -0.6,-0.8 0,0.4 -0.1,0.6 -0.1,0.7 z m -8.3,-0.4 c -0.1,0.1 -0.2,0.1 -0.2,0.2 -0.8,0.8 -1.5,1.7 -2.3,2.5 0,0 0,0.1 0,0.2 0.4,0.4 0.6,0.5 0.9,0.1 0.7,-0.7 1.5,-1.5 2.2,-2.3 0,0 0.1,-0.1 0.1,-0.1 0.2,-0.3 0.1,-0.7 -0.1,-0.8 -0.1,0 -0.1,-0.1 -0.2,-0.1 -0.1,0.1 -0.3,0.2 -0.4,0.3 z m 0.9,-0.9 c -0.1,0.1 -0.2,0.3 -0.1,0.4 0.1,0.2 0.4,0.3 0.5,0.2 0.2,-0.1 0.3,-0.3 0.4,-0.5 0,-0.1 0,-0.2 0,-0.2 -0.1,-0.1 -0.2,-0.1 -0.3,-0.2 -0.1,0.1 -0.3,0.2 -0.5,0.3 z m 29,0.5 c 0.1,0 0.1,0 0.2,0.1 2.5,1.1 5,2.1 7.5,3.2 0.2,0.1 0.3,0.2 0.5,0.2 0.2,0 0.4,0 0.5,-0.1 0.2,-0.1 0.4,-0.3 0.3,-0.6 -0.1,-0.1 -0.1,-0.1 -0.2,-0.2 -2.6,-1.1 -5.2,-2.2 -7.9,-3.2 -0.3,-0.1 -0.6,-0.2 -1,-0.3 -0.4,0.6 -0.4,0.7 0.1,0.9 z m -21.2,-1 c -0.1,0.2 -0.2,0.5 0,0.8 0.1,0.1 0.2,0.1 0.3,0.1 0.2,0 0.3,-0.2 0.4,-0.5 0,-0.1 0,-0.2 0,-0.2 -0.1,-0.1 -0.2,-0.3 -0.3,-0.3 v 0 c -0.2,-0.1 -0.4,0 -0.4,0.1 z m 3.5,-0.3 c -0.3,0.1 -0.4,0.2 -0.3,0.5 0.1,0.4 0.2,0.7 0.3,1.1 0.1,0.2 0.3,0.2 0.5,0.2 0.2,0 0.3,-0.2 0.3,-0.3 0,-0.1 0,-0.2 0,-0.4 0,-0.2 -0.1,-0.5 -0.1,-0.8 0,-0.2 -0.2,-0.3 -0.4,-0.3 -0.2,0 -0.3,0 -0.3,0 z m 42,0 c -0.6,0.3 -0.5,1.1 -0.5,1.7 l 13.1,2.8 c 0,-0.8 0.3,-2.4 -0.4,-2.9 -0.6,-0.5 -2.1,-0.4 -2.8,-0.5 -2.1,-0.2 -4.3,-0.5 -6.4,-0.8 -0.6,-0.1 -1.4,-0.3 -2.2,-0.3 -0.4,-0.1 -0.6,-0.1 -0.8,0 z m -40.6,-0.1 c -0.2,0.2 -0.2,0.4 -0.1,0.7 0.2,0.5 0.4,0.9 0.6,1.4 1.2,2.5 2.4,5 3.5,7.5 0.1,0.2 0.2,0.4 0.3,0.6 0.1,0.1 0.1,0.1 0.2,0.1 0.9,0 1,-0.1 0.6,-0.9 l -0.2,-0.4 c -1.1,-2.4 -2.3,-4.8 -3.4,-7.1 -0.3,-0.6 -0.6,-1.1 -0.9,-1.7 -0.1,-0.1 -0.2,-0.2 -0.3,-0.2 -0.1,-0.1 -0.2,0 -0.3,0 z m -3.3,0 c -0.1,0.2 -0.2,0.4 -0.2,0.6 0,1.2 0,2.4 0,3.6 0,0.1 0,0.2 0,0.3 0.1,0.3 0.3,0.5 0.6,0.5 0.2,0 0.3,-0.2 0.3,-0.6 0,-0.6 0,-1.3 0,-1.9 h -0.1 c 0,-0.6 0,-1.2 0,-1.8 0,-0.2 0,-0.4 -0.1,-0.6 0,-0.1 -0.2,-0.2 -0.2,-0.2 -0.1,-0.1 -0.3,0 -0.3,0.1 z m -19.9,-0.5 c -0.5,0.2 -1,0.3 -1.5,0.5 -0.5,0.2 -0.9,0.4 -1.4,0.5 -1.4,0.5 -2.8,0.9 -4.2,1.4 -0.3,0.1 -0.6,0.2 -0.8,0.3 0,0.1 -0.1,0.2 -0.1,0.3 0,0.1 0,0.2 0,0.3 0.1,0.9 0.3,1 1.1,0.7 1.2,-0.5 2.4,-1.1 3.7,-1.4 1.1,-0.3 2.1,-0.8 3.2,-1.3 0.2,-0.1 0.3,-0.2 0.5,-0.3 0,-0.2 -0.1,-0.5 -0.1,-0.7 0,-0.2 -0.2,-0.3 -0.4,-0.3 z m 24.7,0 c 0.2,0.4 1,1.7 1.3,2 0.2,0.1 0.3,0.2 0.5,0.1 0.2,-0.1 0.2,-0.3 0.1,-0.5 -0.3,-0.5 -1.2,-1.6 -1.7,-1.9 -0.2,0 -0.3,0.2 -0.2,0.3 z m 11.5,-0.3 c 0,0.1 0,0.3 0.1,0.4 0.3,0.1 0.6,0.2 0.9,0.2 0.1,0 0.1,-0.1 0.2,-0.1 0,-0.1 0,-0.2 0,-0.2 -0.2,-0.4 -0.5,-0.5 -0.9,-0.6 0,0 0,0 0,0 -0.2,0 -0.3,0.1 -0.3,0.3 z m -6,-0.5 -0.2,0.6 c 0.6,0.4 1.1,0.9 1.6,1.3 1.2,0.9 2.3,1.7 3.6,2.4 0.4,0.2 0.6,0.1 0.8,-0.2 0.1,-0.1 0.1,-0.2 0.2,-0.4 -1.9,-1.3 -3.9,-2.4 -5.8,-3.7 0,0 0,0 0,0 0,0 -0.1,0 -0.2,0 z m -13.6,0.4 c -0.3,0.8 -0.9,1.9 -1.2,2.7 -0.1,0.3 -0.3,0.6 -0.3,0.9 -0.4,1.2 -0.8,2.4 -1.2,3.6 -0.1,0.2 -0.1,0.4 -0.2,0.6 0,0.1 0,0.2 0,0.3 0.1,0.2 0.3,0.4 0.5,0.4 0.2,0.1 0.3,-0.1 0.4,-0.3 0.1,-0.2 0.1,-0.3 0.2,-0.5 0.7,-1.9 1.4,-3.9 2.1,-5.8 0.1,-0.4 0.5,-1.2 0.6,-1.5 0.1,-0.4 0,-0.7 -0.2,-0.8 0,0 -0.1,0 -0.2,0 -0.2,0 -0.4,0.1 -0.5,0.4 z m -1.5,-0.4 c -0.1,0.1 -0.2,0.3 -0.3,0.4 -1.4,2.1 -2.8,4.2 -4.2,6.3 -0.3,0.4 -0.5,0.8 -0.8,1.3 0.2,0.1 0.3,0.2 0.4,0.3 0.6,0.3 0.8,0.3 1.1,-0.3 1.4,-2.3 2.9,-4.7 4.3,-7 0.1,-0.2 0.2,-0.3 0.2,-0.5 0.1,-0.2 -0.1,-0.5 -0.3,-0.6 0,0 -0.1,0 -0.1,0 -0.1,-0.1 -0.2,0 -0.3,0.1 z m 10.8,0 c 0.3,0.7 1.5,1.6 2,2.1 0.5,0.5 1.1,1 1.7,1.5 0.1,0.1 0.2,0.2 0.3,0.3 0.4,0.3 0.7,0.2 0.9,-0.3 0.1,-0.3 -0.1,-0.4 -0.2,-0.6 -0.9,-0.8 -1.8,-1.7 -2.6,-2.5 -0.2,-0.2 -1.1,-0.8 -1.3,-0.9 z m 27.7,-0.3 c -0.2,0.3 -0.3,0.6 -0.2,0.9 0.1,0.3 0.4,0.5 0.8,0.6 0.2,0.1 0.4,0.1 0.5,0.1 1.7,0.3 3.3,0.6 5,0.9 0.3,0.1 0.7,0.1 1.1,0 0.2,-0.5 0.1,-1 -0.1,-1.5 0,-0.1 -0.2,-0.2 -0.3,-0.2 -0.1,-0.1 -0.3,-0.1 -0.5,-0.1 -1.8,-0.2 -3.5,-0.5 -5.3,-0.7 -0.2,0 -0.4,-0.1 -0.6,-0.1 -0.1,-0.1 -0.3,0 -0.4,0.1 z m -2,0.6 c 0.2,0.3 0.5,0.4 0.8,0.4 0.3,0 0.5,-0.3 0.6,-0.7 0,-0.2 -0.1,-0.4 -0.4,-0.4 -0.3,-0.1 -0.5,-0.1 -0.9,-0.2 -0.1,0.3 -0.3,0.6 -0.1,0.9 z m -30.3,-1.4 c -0.1,0 -0.2,0.2 -0.2,0.3 0,0.1 0.1,0.2 0.2,0.2 0.1,0 0.2,-0.2 0.2,-0.2 0,-0.2 0,-0.3 -0.2,-0.3 0.1,0 0,0 0,0 z m -37.8,0.3 c -1.2,0.1 -2.4,0.2 -3.6,0.3 0,-0.1 -0.2,0 -0.2,0 0,0 0,0 0,0.1 -2.4,0.2 -4.8,0.5 -7.2,0.8 v 5.3 c 4,-0.8 8,-2.2 11.9,-3.3 1.2,-0.3 3.6,-0.9 2.8,-2.8 -0.2,-0.5 -0.8,-0.7 -1.4,-0.7 -0.8,-0.1 -1.8,0.2 -2.3,0.3 z m 30.3,-0.2 c -0.7,0.6 -1.6,1.6 -2.2,2.2 -0.2,0.2 -0.1,0.4 0,0.6 0.1,0.2 0.3,0.2 0.6,0 0.7,-0.7 1.6,-1.7 2.3,-2.3 0.1,-0.1 0.1,-0.2 0.2,-0.3 -0.2,-0.2 -0.4,-0.3 -0.5,-0.3 -0.2,-0.1 -0.3,0 -0.4,0.1 z m 14.3,0.3 c 0.2,0.4 0.5,0.6 0.9,0.8 0.2,0.1 0.4,0.1 0.5,-0.1 0.1,-0.2 0.1,-0.4 -0.1,-0.6 -0.3,-0.3 -0.7,-0.6 -1.2,-0.6 -0.2,0.1 -0.2,0.3 -0.1,0.5 z m -22.1,-0.7 c -0.6,0.2 -1.2,0.4 -1.8,0.6 -0.6,0.2 -1.2,0.4 -1.8,0.6 0,0.5 0.1,0.7 0.5,0.7 0.2,0 0.4,0 0.6,0 0.9,-0.3 1.8,-0.7 2.7,-1 0.2,-0.1 0.3,-0.2 0.4,-0.3 0.1,-0.1 0,-0.4 -0.1,-0.5 -0.1,0 -0.2,0 -0.3,0 -0.1,-0.2 -0.2,-0.2 -0.2,-0.1 z m 40.3,-0.2 c -0.2,0.3 -0.3,0.5 -0.2,0.8 0.8,0.3 1.7,0.3 2.6,0.5 0.2,-0.4 0.4,-0.7 0,-1 -0.4,0 -0.8,0 -1.2,-0.1 -0.3,-0.1 -0.7,-0.2 -1,-0.2 -0.1,-0.1 -0.2,-0.1 -0.2,0 z m -23,-0.1 c -0.2,0.2 0.1,0.6 0.4,0.7 0,0 0.1,-0.1 0.1,-0.2 0,-0.3 -0.2,-0.4 -0.4,-0.6 0,0 0,0 0,0 0,0.1 -0.1,0.1 -0.1,0.1 z m -6.6,-0.2 c -0.1,0 -0.1,0.1 -0.1,0.2 0,0.1 0,0.3 0.1,0.3 0.1,0 0.4,0.2 0.6,-0.2 -0.3,-0.2 -0.5,-0.3 -0.6,-0.3 z m -23.3,-0.1 c -0.8,0.1 -1.7,0.2 -2.5,0.3 -0.2,0 -0.4,0.2 -0.4,0.3 -0.1,0.2 -0.1,0.4 -0.1,0.6 0.2,0.1 0.4,0.3 0.6,0.4 0.2,0.1 0.5,0.1 0.7,0 0.3,-0.3 0.6,-0.2 0.9,-0.3 0.4,0 0.7,-0.2 1.1,-0.3 0.1,-0.2 0.1,-0.4 0.2,-0.5 0,-0.2 -0.1,-0.5 -0.5,-0.5 z m 26.5,1.4 c 0,0.1 0.2,0.2 0.3,0.3 0.1,0 0.2,-0.1 0.2,-0.2 0.1,-0.4 0.1,-0.7 -0.1,-1.1 0,-0.1 -0.2,-0.2 -0.5,-0.4 0.1,0.6 0.1,1 0.1,1.4 z m -7.1,-1.4 c -0.2,0.1 -0.4,0.2 -0.6,0.3 -0.6,0.4 -1.3,0.9 -1.9,1.3 -1.3,0.9 -2.5,1.9 -3.9,2.7 -0.3,0.2 -0.7,0.5 -1,0.7 -0.1,0.1 -0.2,0.2 -0.3,0.3 -0.1,0.3 0,0.5 0.4,0.5 0.1,0 0.3,0 0.5,-0.1 0.4,-0.2 0.8,-0.4 1.2,-0.7 0.8,-0.6 1.5,-1.2 2.3,-1.7 0.9,-0.7 1.8,-1.3 2.7,-1.9 0.4,-0.3 0.7,-0.5 1,-0.8 0.2,-0.1 0.2,-0.4 0.1,-0.5 -0.1,-0.1 -0.2,-0.2 -0.3,-0.2 -0.1,0.1 -0.2,0.1 -0.2,0.1 z m 9.2,-0.2 c -0.1,0.1 -0.2,0.2 -0.2,0.3 0,0.1 0,0.3 0.1,0.4 0.1,0.3 0.3,0.7 0.5,1.1 0.2,0 0.3,-0.1 0.5,-0.1 -0.1,-0.6 -0.3,-1.1 -0.6,-1.5 -0.1,-0.1 -0.2,-0.2 -0.3,-0.2 z m -3,1.2 c 0.2,0 0.3,-0.1 0.3,-0.3 0.1,-0.3 0.2,-0.6 -0.1,-0.9 -0.3,0.7 -0.3,0.7 -0.2,1.2 z m 21.6,-1.3 c -0.1,0.3 0.1,0.5 0.5,0.5 0.1,0 0.2,0 0.4,0.1 1,0.1 2,0.3 3,0.6 0.1,0 0.3,0.1 0.5,0.1 0.2,0 0.4,-0.1 0.6,-0.2 0.2,-0.2 0.1,-0.4 -0.1,-0.7 -0.8,-0.2 -1.6,-0.4 -2.4,-0.6 -0.6,-0.1 -1.1,-0.2 -1.7,-0.3 0,0 -0.1,0 -0.1,0 -0.4,0 -0.6,0.2 -0.7,0.5 z m -42.6,-0.6 c -0.9,0.1 -1.7,0.3 -2.6,0.4 -0.2,0 -0.5,0.1 -0.7,0.1 -0.2,0.3 -0.2,0.6 -0.1,0.9 0.3,0.2 0.6,0.3 0.9,0.3 1,-0.2 2,-0.3 2.9,-0.6 0.2,-0.1 0.4,-0.2 0.6,-0.3 -0.1,-0.2 -0.1,-0.3 -0.2,-0.4 -0.2,-0.4 -0.3,-0.5 -0.5,-0.5 0,0.1 -0.1,0.1 -0.3,0.1 z m 20,0.2 c -0.3,0.4 -0.4,0.8 -0.5,1.3 0,0.1 0.1,0.2 0.1,0.2 0.1,0 0.2,0.1 0.3,0 0.1,-0.1 0.2,-0.1 0.3,-0.3 0.2,-0.4 0.4,-0.8 0.4,-1.5 -0.3,0.1 -0.5,0.1 -0.6,0.3 z m 10.6,-0.3 c -0.2,0.5 -0.1,0.6 0.2,0.8 0.1,0 0.2,0.1 0.3,0.1 2,0.8 4.1,1.7 6.1,2.5 0.2,0.1 0.3,0.1 0.5,0.1 l 0.2,-0.7 c -0.2,-0.1 -0.4,-0.2 -0.6,-0.3 -1.2,-0.5 -2.4,-1 -3.6,-1.5 -0.7,-0.3 -1.4,-0.6 -2.1,-0.8 -0.3,-0.1 -0.5,-0.2 -0.8,-0.2 -0.1,0 -0.2,0 -0.2,0 z m -5,0.3 c 0.4,0.5 0.8,0.9 1.1,1.4 0.1,0.2 0.3,0.2 0.5,0 0.1,-0.1 0.2,-0.3 0.4,-0.4 -0.4,-0.6 -0.9,-1 -1.5,-1.3 z m 1.9,-0.4 c -0.1,0 -0.2,0.2 -0.1,0.3 0.2,0.2 0.4,0.4 0.6,0.5 0.1,0.1 0.4,-0.1 0.4,-0.3 0,-0.1 0,-0.1 -0.1,-0.2 -0.2,-0.2 -0.5,-0.3 -0.8,-0.3 z m -4.1,0.2 c 0.1,0.1 0.2,0.1 0.2,0.2 0,-0.1 0.1,-0.2 0.1,-0.3 0,0 -0.1,-0.1 -0.2,-0.1 -0.1,0 -0.2,0.1 -0.1,0.2 z m -5.1,-0.4 c -0.3,0.3 -0.7,0.7 -0.9,1.1 0.3,0.3 0.5,0.2 0.7,0 0.3,-0.3 0.5,-0.6 0.8,-0.9 -0.1,-0.2 -0.3,-0.3 -0.4,-0.3 -0.1,0 -0.1,0 -0.2,0.1 z m -1.2,0.2 c 0,0 0.1,0.1 0.2,0.2 0,-0.1 0.4,-0.3 0.3,-0.4 0,0 -0.1,-0.1 -0.1,-0.2 0,0 0,0 0,0 -0.3,0.1 -0.5,0.3 -0.4,0.4 z m -3.8,-0.3 c -0.3,0.1 -0.6,0.3 -1,0.4 -0.9,0.3 -1.8,0.6 -2.7,0.9 -0.2,0.1 -0.4,0.2 -0.5,0.4 0,0.2 0,0.4 0.1,0.6 1.4,-0.2 2.6,-0.9 3.9,-1.3 0.3,-0.1 0.7,-0.2 0.9,-0.5 -0.2,-0.4 -0.2,-0.5 -0.4,-0.5 -0.1,-0.1 -0.2,0 -0.3,0 z m 8.6,0.8 c 0,0.1 0.1,0.2 0.2,0.2 0.1,0 0.3,-0.1 0.3,-0.2 0.1,-0.2 0.1,-0.4 0.1,-0.6 0,-0.1 -0.1,-0.3 -0.1,-0.3 -0.1,-0.1 -0.3,-0.1 -0.5,-0.1 0,0.4 0,0.7 0,1 z m -1.4,-1 c 0,0 0.1,0.2 0.1,0.2 0.1,0 0.1,-0.1 0.2,-0.1 l -0.1,-0.2 c -0.1,0 -0.2,0.1 -0.2,0.1 z m 6.9,-0.6 c 0,0.2 0,0.3 0.2,0.4 0.3,0.1 0.7,0.3 1,0.3 0.1,0 0.2,-0.1 0.4,-0.2 -0.1,-0.1 -0.1,-0.3 -0.2,-0.3 -0.3,-0.2 -0.7,-0.3 -1,-0.5 0,0 0,0 -0.1,0 -0.1,0 -0.2,0.2 -0.3,0.3 z m -19.6,-0.1 c -1,0.1 -2.1,0.2 -3.1,0.4 -0.3,0.1 -0.7,0.1 -1,0.2 -0.2,0.1 -0.3,0.3 -0.2,0.6 0.1,0.2 0.2,0.3 0.4,0.3 0.1,0 0.2,0 0.3,0 0.8,-0.2 1.7,-0.2 2.6,-0.5 0.8,-0.2 1.6,-0.3 2.4,-0.3 0.5,-0.1 0.6,-0.2 0.4,-0.8 -0.1,0 -0.2,0 -0.3,0 -0.6,-0.1 -1.1,0.1 -1.5,0.1 z m 11.8,-0.2 c -0.2,0.2 -0.4,0.4 -0.5,0.6 -0.1,0.1 0,0.3 0.1,0.5 0.4,-0.3 0.7,-0.5 0.8,-0.8 0,-0.1 0,-0.2 -0.1,-0.3 0,0 -0.1,0 -0.1,0 -0.1,0 -0.1,0 -0.2,0 z m -2.3,0 c -0.5,0.1 -0.9,0.2 -1.3,0.3 -0.1,0 -0.1,0.1 -0.2,0.3 0.1,0.1 0.3,0.3 0.4,0.3 0.5,0 0.9,-0.2 1.3,-0.5 0.1,0 0.1,-0.2 0.1,-0.3 -0.2,0 -0.3,-0.1 -0.3,-0.1 z m 6.9,0.5 c 0.3,0.3 0.6,0.5 0.9,0.8 0.3,-0.3 0.4,-0.4 0.2,-0.6 -0.2,-0.3 -0.5,-0.6 -0.9,-0.8 -0.3,0.3 -0.3,0.4 -0.2,0.6 z m -5.7,-0.9 c 0,0.1 0.1,0.2 0.1,0.2 0.1,0 0.1,-0.1 0.2,-0.1 -0.1,-0.1 -0.1,-0.2 -0.1,-0.2 0,0 0,0 -0.1,0 0,-0.1 -0.1,0 -0.1,0.1 z m -5.4,-0.3 c -0.4,0 -1.7,0.3 -2.1,0.3 0,0 -0.1,0 -0.1,0 -0.1,0 -0.2,0.1 -0.2,0.1 -0.1,0.2 -0.2,0.3 -0.2,0.5 0,0.1 0.3,0.2 0.4,0.3 0.5,-0.1 1.8,-0.4 2.3,-0.5 0.1,0 0.1,-0.1 0.2,-0.1 0.1,-0.1 0.2,-0.2 0.2,-0.4 -0.2,-0.1 -0.4,-0.2 -0.5,-0.2 z m 17.5,0.5 c 0,0.3 0.1,0.4 0.4,0.5 0.5,0.1 1.8,0.3 2.3,0.4 1,0.1 2.1,0.1 3.1,0.5 0.1,0 0.2,0 0.4,0.1 0.6,0.1 1.2,0.2 1.7,0.3 0.5,0.1 1,0.2 1.5,0.2 0.2,-0.2 0.4,-0.5 0.2,-0.7 -0.1,-0.2 -0.3,-0.3 -0.5,-0.3 -0.6,-0.2 -1.2,-0.3 -1.8,-0.4 -1.5,-0.3 -3,-0.5 -4.5,-0.7 -0.5,-0.1 -1.7,-0.3 -2.2,-0.3 0,0 -0.1,0 -0.1,0 -0.3,-0.1 -0.4,0.1 -0.5,0.4 z m -5.3,-0.4 c 0,0.1 0,0.3 0,0.3 0.3,0.3 0.8,0.4 1.2,0.6 0.2,0 0.3,-0.1 0.4,-0.4 0,0 0,-0.2 -0.1,-0.2 -0.5,-0.2 -0.9,-0.3 -1.4,-0.5 0,0.1 -0.1,0.2 -0.1,0.2 z m -9.9,-0.1 c 0,0.2 0.1,0.4 0.3,0.4 0.1,0 0.2,-0.1 0.4,-0.2 0.1,-0.3 -0.2,-0.3 -0.3,-0.4 0,0 -0.1,0 -0.1,0 -0.2,0 -0.3,0.1 -0.3,0.2 z m 12.8,-0.3 c -0.1,0 -0.2,0.3 -0.1,0.4 0.2,0.3 0.7,0.4 1,0.2 0.1,-0.1 0.1,-0.2 0.1,-0.3 0,-0.1 -0.1,-0.2 -0.2,-0.2 -0.2,-0.1 -0.4,-0.1 -0.6,-0.1 0,0 -0.1,0 -0.2,0 z m -9.8,-1.2 c -0.1,0 -0.1,0.1 -0.2,0.1 0.1,0.4 0.4,0.4 0.7,0.4 0.1,0 0.2,0 0.2,0 0.2,-0.2 0.3,-0.4 0,-0.6 -0.2,0 -0.5,0 -0.7,0.1 z m 6.5,0 c -0.1,0.1 -0.2,0.2 -0.2,0.3 0,0.1 0.1,0.2 0.2,0.2 0.4,0 0.7,0 1.1,0 0.2,-0.5 0.2,-0.6 -0.2,-0.7 -0.1,0 -0.2,0 -0.4,0 -0.1,0 -0.3,0.1 -0.5,0.2 z m -10.3,-0.1 c -0.1,0 -0.2,0.2 -0.2,0.3 0,0.1 0.1,0.2 0.2,0.3 0.1,0 0.2,0 0.3,0 h 0.1 c 0.3,0 0.6,0 0.8,0 v 0 c 0.4,0 0.7,0 1.1,0 0.1,0 0.2,-0.2 0.3,-0.3 0,-0.1 -0.1,-0.2 -0.2,-0.3 -0.2,-0.1 -0.9,-0.2 -1.4,-0.2 -0.4,0 -0.8,0.1 -1,0.2 z m -3.3,-0.2 c -2.8,0 -5.5,0 -8.3,0.1 v 0 c -0.1,0 -0.2,0 -0.2,0 -0.2,0 -0.4,0.3 -0.4,0.6 0,0.2 0.2,0.3 0.4,0.3 0.2,0 0.5,0 0.7,0 0.8,0 1.7,-0.1 2.5,-0.1 0.6,0 1.1,0 1.7,0 1.2,0 2.5,0 3.7,0 0.1,0 0.2,0 0.3,0 0.3,0 0.6,0 0.8,-0.1 0,-0.6 0,-0.6 -0.5,-0.6 -0.2,-0.2 -0.5,-0.2 -0.7,-0.2 z m 16.3,0 c -0.4,0 -0.5,0.1 -0.5,0.8 h 2.1 c 0,0 0.1,0 0.1,0 0.1,-0.1 0.2,-0.2 0.2,-0.3 0,-0.1 0,-0.2 -0.1,-0.3 0,-0.1 -0.2,-0.1 -0.2,-0.1 -0.5,0 -0.9,-0.1 -1.4,-0.1 z m 3.5,0.1 -0.1,0.7 c 0.3,0.1 0.5,0 0.8,0 0.1,0 0.3,0 0.4,0 1,0 1.9,0 2.9,0 0.4,0 0.5,-0.1 0.5,-0.6 0,-0.1 -0.1,-0.2 -0.1,-0.4 -1.6,0.1 -3,0 -4.4,0.3 z m 5,0.1 c 0,0.1 0,0.2 0,0.4 0.8,0 1.6,0 2.3,0 0.4,0 0.9,0.1 1.3,0.1 0.2,0 0.4,-0.2 0.4,-0.5 0,-0.2 -0.2,-0.3 -0.4,-0.3 -0.1,0 -0.2,0 -0.2,0 0,0 -0.1,0 -0.1,0 l -2.8,-0.1 v 0 c -0.3,0 -0.4,0.1 -0.5,0.4 z m 6.1,-0.2 c 0,0.2 0,0.5 0.1,0.7 0.1,0.2 0.3,0.3 0.5,0.3 0.1,0 0.2,0 0.3,0 2.8,0 5.7,0.1 8.5,0.1 0.2,0 0.3,-0.1 0.5,-0.1 0.1,-0.6 0.1,-0.6 -0.1,-1 -0.2,0 -0.4,-0.1 -0.6,-0.1 -1.2,0 -2.3,0 -3.5,0 -2.6,-0.1 -5,-0.1 -5.7,0.1 z m -51.4,-0.4 c -0.1,0.3 -0.3,0.7 -0.2,1 0.3,0.4 0.7,0.5 1.2,0.5 2.7,0 5.3,0 8,0 0.2,0 0.4,0 0.5,-0.1 0.1,-0.4 0.2,-0.7 0.1,-1 -0.3,-0.2 -0.7,-0.2 -1,-0.2 -0.9,0 -1.9,0 -2.8,-0.1 -1.6,-0.1 -3.1,-0.1 -4.6,-0.2 -0.2,0 -0.4,0 -0.6,0 -0.3,0 -0.4,0 -0.6,0.1 z m 71.5,-0.2 c -2,0.1 -4.1,0.2 -6.1,0.3 -0.7,0 -1.5,0.1 -2.1,0.1 -0.3,0.3 -0.3,0.6 -0.2,0.9 0.1,0.2 0.4,0.2 0.7,0.2 h 0.1 v 0 c 2.7,0.1 5.3,0.2 8,0.3 0.4,0 0.7,0.1 1.1,-0.1 0.2,-0.4 0.2,-0.8 0.1,-1.2 -0.4,-0.5 -0.9,-0.6 -1.4,-0.6 -0.1,0.1 -0.1,0.1 -0.2,0.1 z m 2.7,0.4 v 1.8 l 13.3,0.2 v -2.5 c -4.4,0 -8.9,0.5 -13.3,0.5 z m -36.5,-0.8 c -0.2,0 -0.3,0.1 -0.4,0.2 0,0.1 0,0.1 0,0.1 0.2,0.2 0.4,0.2 0.6,0.1 0.1,0 0.2,-0.1 0.3,-0.2 0,0 0,-0.1 0,-0.1 -0.2,0 -0.4,-0.1 -0.5,-0.1 z m -10,0.1 c 0,0 -0.3,0.3 0.1,0.4 0.1,0 0.3,-0.1 0.3,-0.1 0,-0.1 -0.1,-0.4 -0.1,-0.5 -0.1,0.1 -0.3,0.1 -0.3,0.2 z m -4.3,-0.3 c 0,0.1 0,0.3 0.1,0.3 0.2,0.2 0.5,0.1 0.7,0 -0.1,-0.4 -0.4,-0.4 -0.6,-0.4 v 0 z m -39.7,4.2 c 2.4,0 5,-0.1 7.5,-0.4 0.2,0.1 0.4,0.1 0.7,0.2 -0.2,-0.1 -0.3,-0.1 -0.5,-0.2 0.6,-0.1 1.1,-0.1 1.7,-0.2 0.3,0 0.6,0 0.9,0 0.8,0 1.7,0 2.2,-0.4 0.9,-0.7 0.7,-1.9 0.5,-2.8 -4.4,0 -8.7,-0.5 -13.1,-0.5 z m 51.6,-4.4 c -0.4,0.1 -0.8,0.3 -1.1,0.7 0.2,0.1 0.4,0.3 0.5,0.3 0.4,-0.1 0.9,-0.2 1.2,-0.6 -0.1,-0.3 -0.2,-0.4 -0.4,-0.4 -0.1,0 -0.1,0 -0.2,0 z m 1.4,-0.5 c -0.2,0 -0.4,0.1 -0.3,0.3 0,0.1 0.2,0.2 0.3,0.3 0.2,-0.1 0.3,-0.1 0.4,-0.2 0,0 0.1,-0.2 0.1,-0.2 0,-0.1 -0.2,-0.2 -0.3,-0.2 -0.1,0 -0.2,0 -0.2,0 z M -132,33 c 0,0.1 0,0.2 0.1,0.2 0,0 0.1,0.1 0.2,0.1 0.2,-0.1 0.4,-0.3 0.5,-0.5 0.1,-0.1 0,-0.3 -0.1,-0.5 -0.5,0.2 -0.6,0.5 -0.7,0.7 z m -4.7,-1 c -0.1,0 -0.2,0.1 -0.3,0.2 0,0.1 0,0.2 0,0.3 0.2,0.4 0.6,0.6 1,0.8 0.2,0.1 0.4,-0.1 0.4,-0.3 0,-0.4 -0.7,-1 -1.1,-1 z m -10.8,0 c -0.2,0 -0.3,0.1 -0.3,0.3 0,0.1 0.1,0.3 0.2,0.4 0.1,0.1 0.3,0.2 0.5,0.2 0.7,0.2 1.4,0.3 2.2,0.3 0.1,0 0.1,-0.1 0.2,-0.1 v -0.5 l -2.8,-0.6 c 0.1,0 0.1,0 0,0 0.1,0 0,0 0,0 z m 18,0.2 c 0,0.1 0.2,0.1 0.2,0.1 0.1,0 0.2,-0.1 0.3,-0.2 -0.1,-0.1 -0.2,-0.2 -0.3,-0.2 0,0 0,0 0,0 -0.2,0 -0.3,0.2 -0.2,0.3 z m 11,-0.6 c -0.2,0 -0.5,0.1 -0.7,0.1 -0.4,0 -0.7,0.1 -1.1,0.1 -0.3,0 -0.6,0 -0.9,0.1 -0.3,0.1 -0.5,0.2 -0.8,0.2 -1.1,0 -2,0.4 -2.9,0.7 0,0 -0.1,0.1 -0.2,0.2 0.2,0.5 0.5,0.6 0.9,0.5 0.9,-0.1 1.7,-0.2 2.6,-0.3 0.8,-0.1 1.5,-0.3 2.3,-0.4 0.3,-0.1 0.7,-0.1 1,-0.2 0.3,0 0.4,-0.2 0.4,-0.5 -0.1,-0.3 -0.2,-0.5 -0.6,-0.5 z m -16.7,-0.1 c -0.1,0 -0.2,0.3 -0.3,0.4 0.1,0 0.4,0.2 0.4,0.2 0,-0.1 0.1,-0.4 0.1,-0.4 0.1,0 -0.2,-0.2 -0.2,-0.2 z m 17.6,0.2 c -0.1,0.2 0,0.5 0.2,0.5 0.3,0 0.5,0 0.8,-0.2 0,-0.1 0,-0.2 -0.1,-0.3 -0.1,-0.1 -0.3,-0.2 -0.4,-0.2 -0.2,0 -0.4,0.1 -0.5,0.2 z m -9.4,0.4 c 0.2,0.5 0.3,0.6 0.6,0.5 0.4,-0.1 0.8,-0.3 1.2,-0.5 0,0 0.1,-0.1 0.1,-0.2 -0.1,-0.1 -0.2,-0.3 -0.3,-0.5 -0.4,0.1 -1.4,0.4 -1.6,0.7 z m -3.7,-0.7 c -0.2,0.2 -0.4,0.3 -0.3,0.6 0,0.1 0.1,0.2 0.2,0.2 0.1,0 0.3,0 0.3,0 0.2,-0.2 0.3,-0.4 0.4,-0.6 -0.1,-0.2 -0.3,-0.2 -0.4,-0.2 -0.1,-0.1 -0.2,0 -0.2,0 z m -3.1,-0.1 c -0.1,0 -0.2,0.1 -0.2,0.2 -0.1,0.3 -0.1,0.6 0.1,1 0.4,-0.4 0.5,-0.8 0.3,-1.1 0,-0.1 -0.1,-0.1 -0.2,-0.1 0.1,0 0,0 0,0 z m -8.4,0 c 0.1,0.8 0.2,0.9 0.8,1.2 1,0.4 2,0.7 2.9,1.1 0,0 0.1,0 0.1,0 h 0.1 c 0.2,-0.1 0.4,-0.2 0.2,-0.6 -1.3,-0.6 -2.5,-1.2 -3.8,-1.8 0,0 0,0 -0.1,0 0,0 -0.1,0 -0.2,0.1 z m 9.3,0.8 c -0.1,0.2 0,0.3 0.3,0.3 0.2,-0.2 0.3,-0.5 0.5,-0.7 0.1,-0.2 0,-0.4 -0.4,-0.6 -0.2,0.4 -0.3,0.7 -0.4,1 z m 1.3,-0.8 0.1,0.1 c 0.1,0 0.2,-0.2 0.3,-0.2 l -0.1,-0.2 c -0.1,0 -0.2,0.2 -0.3,0.3 z m -21.1,-0.5 c -0.2,0.3 -0.2,0.5 0,0.9 0.1,0.1 0.3,0.1 0.5,0.2 0.4,0.1 0.8,0.1 1.2,0.2 0.7,0.1 1.3,0.2 2,0.4 0.1,0 0.3,0 0.4,0 0.1,0 0.2,-0.1 0.2,-0.3 0,-0.1 -0.1,-0.2 -0.1,-0.3 0,-0.1 -0.2,-0.1 -0.2,-0.1 -1.1,-0.3 -2.3,-0.6 -3.4,-0.9 -0.1,0 -0.1,0 -0.2,0 -0.2,-0.1 -0.3,-0.1 -0.4,-0.1 z m 11.2,-0.4 c 0.3,0.2 0.7,0.4 1,0.6 0.1,0 0.2,0 0.3,0 -0.1,-0.8 -0.8,-0.8 -1.2,-1.2 -0.3,0.3 -0.3,0.5 -0.1,0.6 z m 2.2,-0.8 c -0.1,0.1 -0.2,0.3 -0.1,0.3 0.1,0.2 0.3,0.5 0.5,0.7 0.4,0.4 0.9,0.8 1.4,1.2 0,0 0.1,0 0.2,0 l 0.3,-0.5 c -0.6,-0.7 -1.2,-1.2 -1.8,-1.8 0,0 -0.1,-0.1 -0.2,-0.1 0,0 -0.1,0 -0.1,0 -0.1,0.2 -0.2,0.2 -0.2,0.2 z m -21.9,0.5 c 0,0.4 0.2,0.6 0.6,0.7 0.3,0.1 0.7,0.1 1,0.2 l 2.9,0.4 c 0.4,0 0.7,-0.2 0.8,-0.7 0,-0.3 -0.1,-0.5 -0.6,-0.6 -1.3,-0.3 -2.5,-0.5 -3.8,-0.8 -0.1,0 -0.2,0 -0.3,0 -0.4,0 -0.6,0.2 -0.6,0.8 z m -2.9,-1 c -0.1,0.2 -0.1,0.4 -0.1,0.6 0,0.3 0.2,0.5 0.4,0.5 0.4,0.1 0.9,0.1 1.2,0.1 0.2,0 0.3,0 0.4,0 0.4,0 0.6,-0.2 0.6,-0.6 0,-0.4 -0.1,-0.6 -0.5,-0.7 -0.5,-0.1 -1.1,-0.2 -1.6,-0.3 -0.2,0.1 -0.4,0.2 -0.4,0.4 z m 58.3,-0.3 c -0.7,0.1 -1.4,0.2 -2,0.5 -0.3,0.2 -0.7,0.3 -1,0.4 -0.5,0.1 -1,0.2 -1.5,0.3 -0.4,0.1 -0.8,0.2 -1.2,0.3 -1,0.1 -1.9,0.4 -2.8,0.6 -0.4,0.1 -0.5,0.3 -0.3,0.8 0,0.1 0.1,0.1 0.2,0.3 0.2,0 0.4,0 0.5,0 3.8,-0.7 7.7,-1.6 8.5,-2 0,-0.3 0,-0.5 0,-0.8 0,-0.3 -0.1,-0.4 -0.4,-0.4 0.1,0 0.1,0 0,0 z m -43.3,0 c -0.1,0.2 0.1,0.3 0.3,0.4 1.4,0.6 3.6,1.5 5.1,2.1 0.3,-0.7 0.3,-0.7 -0.1,-0.8 -0.8,-0.3 -2.2,-1.2 -3.1,-1.3 -0.1,0 -0.2,-0.1 -0.3,-0.2 -0.4,-0.2 -0.8,-0.3 -1.2,-0.5 -0.1,0 -0.1,0 -0.2,0 -0.3,-0.1 -0.5,0 -0.5,0.3 z m 29.7,-0.5 c -0.2,0.1 -0.4,0.2 -0.7,0.3 -1.2,0.7 -2.5,1.4 -3.7,2.1 -0.4,0.2 -0.7,0.5 -0.9,0.8 0,0.1 0.1,0.2 0.1,0.2 0.1,0.1 0.3,0.1 0.4,0.2 l 3.7,-1.7 c 0.6,-0.3 1.3,-0.6 1.9,-0.9 0.4,-0.2 0.5,-0.6 0.1,-0.9 -0.2,-0.1 -0.3,-0.2 -0.5,-0.2 -0.2,0 -0.3,0 -0.4,0.1 z m -8,0.1 c -0.3,0.3 -0.6,0.6 -0.9,0.9 -0.3,0.3 -1.1,0.9 -1.3,1.3 0.3,0.4 0.5,0.4 0.7,0.2 0.6,-0.6 1.8,-1.7 2.4,-2.4 0.1,-0.1 0.2,-0.2 0.2,-0.4 0,-0.1 0,-0.2 0,-0.4 -0.7,0.1 -0.8,0.5 -1.1,0.8 z m -13.8,0.1 c 0.3,0.3 0.7,0.5 1.1,0.8 0.1,-0.1 0.3,-0.2 0.3,-0.3 0,-0.1 0,-0.3 -0.1,-0.3 -0.4,-0.4 -0.8,-0.9 -1.3,-1.2 -0.4,0.5 -0.4,0.8 0,1 z m -11.4,-1.1 c 0,0.3 0.2,0.5 0.4,0.6 0.7,0.3 1.4,0.5 2,0.8 0.5,-0.4 0.5,-0.6 0.1,-0.8 -0.7,-0.3 -1.4,-0.5 -2,-0.9 -0.1,0 -0.1,0 -0.2,0 -0.1,-0.1 -0.3,0 -0.3,0.3 z M -98.9,27 c -0.9,0.3 -1.8,0.5 -2.8,0.8 -0.4,0.1 -0.8,0.3 -1.2,0.5 0,0.3 0,0.5 0,0.8 0.7,0.1 0.8,0.1 1.2,-0.1 0.7,-0.3 1.4,-0.5 2.1,-0.6 0.5,-0.1 1.1,-0.3 1.7,-0.4 -0.1,-0.7 -0.2,-1 -0.5,-1 -0.1,-0.1 -0.3,0 -0.5,0 z m -26.9,-0.2 c -0.1,0.1 -0.3,0.2 -0.1,0.4 0.1,0.1 0.2,0.2 0.3,0.2 0.2,0 0.2,-0.2 0.2,-0.4 0,-0.1 -0.1,-0.2 -0.1,-0.3 -0.1,0.1 -0.2,0.1 -0.3,0.1 z m 2.1,0.7 c -1.1,0.8 -2.1,1.5 -3.2,2.3 -0.2,0.1 -0.4,0.3 -0.6,0.5 -0.1,0.1 -0.1,0.4 0.1,0.5 0.2,0.1 0.4,0.2 0.6,0 0.2,-0.1 0.4,-0.2 0.6,-0.4 0.9,-0.8 1.9,-1.4 2.8,-2.1 0.4,-0.3 0.8,-0.6 1.1,-1.1 l -0.3,-0.6 c -0.2,0.4 -0.7,0.7 -1.1,0.9 z M -139.9,26 c -0.1,0.1 -0.1,0.3 -0.1,0.4 0.1,0.1 0.1,0.2 0.2,0.3 0.5,0.7 1,1.4 1.5,2.1 0.1,0.1 0.2,0.3 0.4,0.4 0.1,-0.4 0,-0.6 -0.2,-0.9 -0.4,-0.6 -0.7,-1.2 -1.1,-1.8 -0.1,-0.2 -0.2,-0.3 -0.3,-0.5 -0.1,-0.1 -0.2,-0.2 -0.3,-0.2 0,0.1 -0.1,0.1 -0.1,0.2 z m 18.7,-0.2 c -0.2,0.1 -0.3,0.2 -0.5,0.4 -0.2,0.2 -0.2,0.5 0,0.6 0.2,0.1 0.3,0 0.5,-0.1 0.3,-0.1 0.5,-0.3 0.5,-0.7 0,0 -0.1,-0.2 -0.1,-0.2 -0.2,0 -0.3,0 -0.4,0 z m -12.8,0 c -0.1,0 -0.2,0.2 -0.2,0.3 0,0.3 0,0.7 0,1 0,0.7 0.1,1.4 0.1,2.1 0,0.4 0.1,0.7 0.2,1 0,0.1 0.1,0.1 0.3,0.2 0.2,-0.4 0.2,-0.7 0.1,-1.1 -0.1,-0.9 -0.1,-1.7 -0.2,-2.6 0,-0.2 0,-0.4 0,-0.6 -0.1,-0.2 -0.1,-0.3 -0.3,-0.3 z m 38.5,0.2 c -0.4,0.1 -0.9,0.2 -1.3,0.4 -0.2,0.1 -0.3,0.2 -0.4,0.3 0,0.4 0.1,0.7 0.3,0.9 0.9,0 2.3,-0.4 2.9,-0.7 0,-0.4 0,-0.8 -0.3,-1.1 z m -27.9,-1.7 c -0.7,0.5 -1.2,1.2 -1.8,1.9 0,0 0,0.1 0,0.1 0,0.1 0,0.1 0,0.2 0.1,0.1 0.2,0.1 0.2,0.1 0.1,0 0.2,0 0.2,-0.1 0.5,-0.5 1,-1.1 1.5,-1.6 0.1,-0.1 0.1,-0.2 0.1,-0.3 -0.1,-0.1 -0.1,-0.2 -0.1,-0.2 0.1,-0.1 0,-0.2 -0.1,-0.1 0.1,-0.1 0,0 0,0 z m -57.8,3.6 c 0.5,0.7 2.2,0.6 3,0.8 2.4,0.4 4.7,0.9 7.1,1.3 0.9,0.1 2.1,0.5 2.9,-0.2 0.6,-0.5 0.8,-1.8 0,-2.3 -1,-0.7 -2.9,-0.8 -4.1,-1.1 -1.2,-0.3 -2.4,-0.6 -3.7,-0.8 -1.8,-0.5 -3.7,-1 -5.5,-1.4 0.1,1 -0.3,3 0.3,3.7 z m 42.6,-4 c -0.1,0.1 -0.2,0.2 -0.3,0.3 0,0.1 0,0.2 0,0.3 0.3,0.7 0.8,1.8 1.1,2.5 0.5,1.2 1.1,2.3 1.5,3.5 0,0.1 0.1,0.3 0.2,0.4 0.1,0.1 0.3,0.2 0.4,0.1 0.1,0 0.2,-0.2 0.3,-0.3 -0.1,-0.4 -0.2,-0.7 -0.3,-1 -0.6,-1.5 -1.4,-3.4 -2.1,-4.9 -0.1,-0.3 -0.3,-0.6 -0.5,-0.9 0,0 -0.1,0 -0.3,0 0.1,0 0,0 0,0 z m 11.6,0.2 c -0.9,1.5 -1.9,2.9 -2.8,4.4 -0.1,0.2 -0.7,1.1 -0.8,1.4 0,0.1 0,0.3 0.1,0.3 0.1,0.1 0.8,-0.7 0.9,-0.8 0.2,-0.2 0.3,-0.4 0.5,-0.7 0.2,-0.4 0.5,-0.7 0.7,-1.1 0.5,-0.7 1.1,-1.4 1.6,-2.2 0.3,-0.5 0.7,-0.9 0.8,-1.6 -0.2,-0.1 -0.4,-0.2 -0.5,-0.2 v 0 c -0.3,0.2 -0.4,0.3 -0.5,0.5 z m -5.2,-0.7 c -0.1,0.2 -0.1,0.4 -0.2,0.6 -0.3,1.6 -0.4,3.2 -0.5,4.8 0,0.1 0,0.2 0,0.4 0.1,0 0.2,-0.1 0.3,-0.1 0.1,-0.2 0.2,-0.5 0.2,-0.7 0.3,-1.4 0.5,-2.9 0.8,-4.3 0,-0.2 0,-0.3 0,-0.5 0,-0.1 0,-0.1 -0.1,-0.2 -0.1,-0.1 -0.2,-0.1 -0.3,-0.2 0,0 0,0 0,0 0,0.1 -0.2,0.2 -0.2,0.2 z m -19.6,0.1 c 0,0 0,0.1 0,0.3 0.1,0.2 0.3,0.4 0.5,0.5 0.9,0.6 1.9,1.2 2.8,1.8 1.2,0.7 2.4,1.5 3.6,2.2 0.2,0.1 0.5,0.3 0.7,0.4 l 0.5,-0.6 c -0.4,-0.3 -0.8,-0.7 -1.2,-0.9 -1.1,-0.6 -2,-1.4 -3,-2 -1,-0.6 -1.9,-1.3 -2.9,-2 -0.2,-0.1 -0.3,-0.2 -0.5,-0.2 -0.2,0 -0.4,0.2 -0.5,0.5 z m 25.9,-0.9 c -0.1,0 -0.2,0.1 -0.2,0.2 -0.1,0.2 0.1,0.4 0.3,0.5 0.2,0.1 0.4,0 0.5,-0.2 0,0 0,-0.1 0,-0.1 0,-0.2 -0.3,-0.4 -0.6,-0.4 z m 16.9,0.3 c -0.3,0.1 -0.6,0.3 -0.9,0.4 -1,0.5 -2,0.9 -3,1.5 -0.8,0.5 -1.6,0.9 -2.3,1.4 -0.5,0.3 -1.1,0.7 -1.6,1.1 l 0.3,0.9 c 0.1,0 0.1,0 0.2,0 0.1,0 0.2,0 0.3,-0.1 2.8,-1.4 5.7,-2.9 8.5,-4.3 0,0 0,0 0.1,-0.1 0,0 0,-0.1 0,-0.1 0,-0.4 -0.2,-0.7 -0.6,-1 -0.4,0.1 -0.7,0.2 -1,0.3 z m -54.3,-0.3 c -0.1,0.5 0.2,1.1 0.7,1.4 0.1,0.1 0.2,0.1 0.3,0.1 2,0.8 4,1.6 6,2.4 0.2,0.1 0.3,0.1 0.5,0.2 0.1,0 0.3,0 0.4,0 0.3,-0.1 0.4,-0.4 0.4,-0.7 0,-0.3 -0.2,-0.4 -0.4,-0.5 -0.1,-0.1 -0.2,-0.1 -0.3,-0.2 -2.2,-0.9 -4.4,-1.9 -6.6,-2.8 -0.2,-0.1 -0.4,-0.1 -0.7,-0.2 0,0 -0.2,0.1 -0.3,0.3 z m 16.5,-0.3 c -0.3,0.1 -0.4,0.4 -0.1,0.7 0.5,0.4 0.9,0.8 1.4,1.3 0.5,0.5 0.9,1 1.4,1.5 0.2,0.3 1,1 1.4,1.1 0.3,-0.4 0.3,-0.7 0,-1 -0.9,-0.9 -2.4,-2.4 -3.3,-3.4 -0.1,-0.2 -0.3,-0.2 -0.4,-0.2 -0.2,-0.1 -0.3,-0.1 -0.4,0 z m 10.4,-0.2 c -0.2,0 -0.3,0.2 -0.3,0.4 0,0.1 0,0.1 0,0.2 0.4,1.8 1,4.3 1.4,6.1 0,0.1 0.1,0.2 0.1,0.3 0,0 0.1,0.1 0.2,0.1 0.1,0 0.1,0 0.2,-0.1 0,-0.1 0.1,-0.2 0.1,-0.2 -0.1,-0.8 -0.2,-1.5 -0.3,-2.2 -0.1,-0.9 -0.3,-1.8 -0.5,-2.7 0,-0.2 -0.4,-1.3 -0.4,-1.6 -0.1,-0.2 -0.3,-0.3 -0.5,-0.3 z m 2.1,-0.6 c 0,0.1 0,0.1 0,0.2 0.1,0.6 0,1.4 0.1,2.4 0,0.3 0,0.6 0.3,0.9 0.1,-0.1 0.2,-0.1 0.3,-0.2 0.1,-0.1 0.1,-0.3 0.1,-0.4 -0.1,-0.8 -0.1,-2.2 -0.2,-3 -0.1,0 -0.1,-0.1 -0.2,-0.1 -0.3,0 -0.4,0.1 -0.4,0.2 z m 5.6,-0.4 c -0.3,0.1 -0.5,0.2 -0.6,0.5 -0.6,1.7 -1.2,3.4 -1.8,5.1 -0.4,1.1 -0.8,2.2 -1.1,3.3 0.1,0.1 0.2,0.1 0.3,0.1 0.1,0 0.2,0 0.3,0 0.1,-0.1 0.1,-0.1 0.2,-0.2 0,-0.1 0.1,-0.2 0.1,-0.3 0.9,-2.3 2.1,-5.4 3,-7.7 0.1,-0.1 0.1,-0.3 0.1,-0.4 0,-0.2 -0.2,-0.4 -0.5,-0.4 z m -11.7,0.5 c 0,0.2 0.6,1.2 0.8,1.2 0.3,0 0.5,-0.2 0.5,-0.4 0,-0.3 -0.6,-1.3 -0.8,-1.3 v 0 c -0.3,0 -0.5,0.3 -0.5,0.5 z m 8.6,-0.5 c -0.1,0.1 -0.4,1 -0.4,1.1 0,0.2 0,0.3 0.2,0.4 0.2,0.1 0.5,0 0.6,-0.2 0.1,-0.2 0.1,-0.4 0.1,-0.4 0,-0.3 0.2,-1.2 0,-1.3 0,0 -0.1,0 -0.1,0 -0.2,0.1 -0.3,0.2 -0.4,0.4 z m 48.5,0.8 c -1.3,0.4 -2.6,0.8 -3.9,1.2 -1.4,0.4 -3.3,0.7 -4.6,1.4 -0.5,0.3 -0.8,1.1 -0.3,1.6 0.8,0.8 3.7,-0.3 4.6,-0.5 l 7.1,-1.6 c 0.7,-0.2 2,-0.2 2.5,-0.9 0.5,-0.6 0.2,-2 0.2,-2.8 -1.8,0.4 -3.8,1 -5.6,1.6 z m -66,-2.1 c -0.3,0.3 -0.4,0.7 -0.1,1 0.5,0.5 1.1,0.9 1.7,1.4 0.1,0.1 0.2,0.1 0.4,0.1 0.1,-0.1 0.3,-0.2 0.4,-0.3 0.1,-0.1 0,-0.3 -0.1,-0.4 -0.6,-0.6 -1.1,-1.1 -1.7,-1.7 -0.1,-0.1 -0.2,-0.1 -0.3,-0.1 -0.1,-0.2 -0.2,-0.1 -0.3,0 z m 29.6,0.4 c -0.4,0.4 -0.7,0.8 -1,1.2 -0.3,0.4 -0.8,0.7 -0.9,1.3 l 0.6,0.4 c 0.7,-0.5 2.7,-2.8 3.1,-3.4 -0.1,-0.3 -0.2,-0.6 -0.6,-0.6 -0.6,0.2 -0.9,0.7 -1.2,1.1 z m 7,-1.4 c -0.1,0.1 -0.3,0.2 -0.4,0.3 -1.4,1 -2.7,2 -4.1,3 -0.8,0.6 -1.5,1.4 -2.3,2.1 0.2,0.4 0.4,0.6 0.7,0.6 0.2,0 0.5,-0.1 0.7,-0.2 0.1,0 0.2,-0.1 0.3,-0.2 l 5.7,-4.1 c 0.2,-0.1 0.3,-0.2 0.4,-0.3 0.2,-0.2 0.3,-0.5 0.1,-0.8 -0.2,-0.3 -0.4,-0.4 -0.7,-0.4 -0.1,-0.1 -0.3,0 -0.4,0 z m 13.6,-0.9 c -1.9,1 -3.9,1.9 -5.9,2.9 -0.6,0.3 -0.8,0.8 -1.1,1.3 -0.1,0.1 0,0.3 0,0.5 1.1,0.2 2,-0.1 2.8,-0.6 0.2,-0.1 0.3,-0.2 0.5,-0.2 1.5,-0.7 3,-1.4 4.4,-2.2 0.5,-0.3 0.8,-0.6 0.7,-1.3 -0.2,-0.1 -0.3,-0.2 -0.5,-0.3 -0.1,-0.1 -0.3,-0.2 -0.5,-0.2 -0.1,0 -0.3,0 -0.4,0.1 z m -62.4,-0.2 c -0.1,0.4 -0.1,0.6 0.3,0.9 0.1,0.1 0.2,0.1 0.2,0.1 1.9,1.1 3.8,2.2 5.7,3.4 0.2,0.1 0.3,0.2 0.5,0.3 0.4,0.1 0.9,-0.3 0.9,-0.7 -0.1,-0.1 -0.2,-0.3 -0.4,-0.4 -0.7,-0.4 -1.4,-0.9 -2,-1.3 -1.4,-0.9 -2.7,-1.8 -4.1,-2.6 -0.2,-0.1 -0.4,-0.2 -0.5,-0.2 -0.3,-0.1 -0.4,0.1 -0.6,0.5 z m 14.5,-0.8 c -0.1,0.1 -0.2,0.3 -0.1,0.4 0,0.4 0.2,0.7 0.5,1 1.4,1.7 2.8,3.5 4.2,5.2 0,0 0.8,1.3 0.9,1.4 0.1,0 0.3,0.1 0.4,0.1 0.1,-0.1 0.2,-0.2 0.4,-0.4 -0.1,-0.2 -0.2,-0.4 -0.3,-0.6 -0.6,-0.8 -1.9,-2.8 -2.6,-3.6 -0.2,-0.3 -0.4,-0.6 -0.6,-0.8 -0.7,-0.7 -1.3,-1.5 -1.9,-2.3 -0.1,-0.1 -0.2,-0.3 -0.3,-0.4 -0.1,-0.1 -0.2,-0.1 -0.3,-0.1 -0.1,0 -0.2,0 -0.3,0.1 z m 31.2,-0.6 c -0.6,0.6 -1.3,1.2 -1.9,1.8 -0.4,0.4 -0.4,0.6 0.2,1 0.1,-0.1 0.3,-0.2 0.5,-0.3 0.6,-0.5 1.2,-1 1.9,-1.5 0.5,-0.4 0.5,-0.7 0.1,-1.1 -0.1,-0.1 -0.3,-0.2 -0.4,-0.2 -0.2,0.2 -0.3,0.2 -0.4,0.3 z m -15.6,-0.2 c -0.1,0.3 -0.1,0.7 -0.2,1 0,0.5 -0.2,1.1 -0.1,1.6 0.6,0 0.7,0 0.8,-0.4 0.1,-0.7 0.2,-1.5 0.4,-2.2 0,-0.1 0,-0.3 0,-0.4 -0.2,-0.1 -0.4,-0.1 -0.5,-0.1 -0.2,0 -0.3,0.1 -0.4,0.5 z m -12.4,-0.9 c 0.2,0.5 0.4,1 0.7,1.4 0.4,0.8 0.8,1.5 1.2,2.3 0.3,0.5 0.6,1.1 0.9,1.6 0.1,0.2 0.3,0.2 0.6,0.1 0.2,-0.1 0.2,-0.3 0.1,-0.5 -0.2,-0.4 -0.4,-0.8 -0.6,-1.3 -0.4,-0.9 -1,-1.7 -1.3,-2.6 -0.2,-0.5 -0.5,-1 -0.8,-1.5 -0.1,-0.1 -0.3,-0.2 -0.4,-0.2 h -0.1 c -0.3,0.1 -0.4,0.3 -0.3,0.7 z m -37.6,3.7 c 3.7,0.8 7.4,2.1 11,3.2 0.8,0.3 3,1.5 3.6,0.4 0.7,-1.3 -2.2,-2.2 -3,-2.6 -3.9,-2.1 -7.7,-4.4 -11.7,-6.5 z m 61,-5.9 c -0.1,0.1 -0.1,0.2 -0.2,0.3 -0.5,0.9 -0.9,1.8 -1.4,2.6 -0.6,1.1 -1.3,2.1 -2,3.2 -0.2,0.3 -0.4,0.7 -0.5,1 0,0.1 0,0.3 0.1,0.4 0.2,0.3 0.5,0.3 0.7,0 0.7,-1.1 1.4,-2.1 2.1,-3.2 0.8,-1.3 1.6,-2.6 2.4,-3.9 0.1,-0.1 0.1,-0.2 0.2,-0.3 -0.1,-0.1 -0.1,-0.2 -0.1,-0.3 -0.2,-0.2 -0.5,-0.3 -0.6,-0.3 -0.3,0 -0.5,0.1 -0.7,0.5 z m -18.8,-0.9 c -0.2,0 -0.4,0.2 -0.4,0.4 0,0.1 0,0.2 0,0.3 0.1,0.2 0.1,0.4 0.2,0.6 0.2,0.7 0.5,1.5 0.7,2.2 0.4,1.5 0.9,3.1 1.3,4.6 0,0.1 0.1,0.2 0.2,0.4 h 0.7 c 0,-0.2 0.1,-0.3 0,-0.4 -0.1,-0.7 -0.2,-1.3 -0.5,-2 -0.1,-0.3 -0.2,-0.6 -0.3,-0.9 -0.1,-0.5 -0.2,-1.1 -0.4,-1.6 -0.3,-1.1 -0.7,-2.2 -1.1,-3.3 0,-0.2 -0.1,-0.3 -0.4,-0.3 0.1,0 0.1,0 0,0 z m 37.5,-0.4 c -0.4,0 -0.7,0.1 -1.1,0.3 -2,1.3 -4,2.5 -6,3.7 -0.2,0.1 -0.3,0.3 -0.5,0.4 -0.1,0.2 -0.2,0.4 -0.3,0.6 -0.1,0.2 -0.4,0.2 -0.4,0.5 l 0.8,0.7 c 0.5,-0.3 1,-0.5 1.5,-0.8 2,-1.2 4,-2.4 6,-3.6 0.2,-0.1 0.4,-0.2 0.5,-0.4 0.3,-0.2 0.3,-0.7 0.2,-1 0,-0.2 -0.3,-0.4 -0.7,-0.4 0.1,0 0,0 0,0 z m -56,-0.2 c -0.6,0.3 -0.6,0.9 -0.2,1.4 0.2,0.1 0.3,0.3 0.5,0.4 1,0.8 1.9,1.7 2.9,2.5 0.2,0.2 0.4,0.3 0.5,0.5 0.5,0.7 1.1,1 1.7,1.5 0.1,0.1 0.3,0.2 0.4,0.2 0.2,0.1 0.5,0 0.5,-0.3 0,-0.2 0,-0.4 -0.1,-0.6 -0.1,-0.2 -0.2,-0.3 -0.4,-0.4 -1.6,-1.6 -3.3,-3.2 -4.9,-4.7 -0.2,-0.2 -0.3,-0.3 -0.5,-0.4 -0.1,-0.1 -0.2,-0.1 -0.3,-0.1 0,-0.1 -0.1,-0.1 -0.1,0 z m 5.8,-0.5 c -0.2,0.2 -0.4,0.5 -0.4,0.8 0,0.1 0.1,0.2 0.1,0.2 0.7,0.8 1.5,1.7 2.3,2.5 0.3,0.3 0.7,0.3 1.1,0 0.2,-0.1 0.3,-0.4 0.1,-0.6 -0.8,-1 -1.7,-2.1 -2.5,-3.1 -0.1,-0.1 -0.2,-0.1 -0.3,-0.1 -0.2,0.1 -0.3,0.2 -0.4,0.3 z m 21.7,-0.3 c -0.2,0 -0.3,0.1 -0.4,0.3 0,0.1 0,0.1 0,0.2 -0.1,1 -0.3,2 -0.4,3 0,0.1 0,0.2 0,0.3 0,0.2 0.1,0.4 0.3,0.4 0.2,0 0.4,0 0.5,-0.2 0.1,-0.2 0.2,-0.4 0.2,-0.6 0.1,-0.9 0.1,-1.8 0.4,-2.7 0,0 0,-0.1 0,-0.2 0,0 0,-0.2 -0.1,-0.3 -0.1,-0.1 -0.2,-0.2 -0.5,-0.2 z m 4.8,0 c -0.3,0.1 -0.4,0.2 -0.5,0.5 -0.1,0.2 -0.1,0.3 -0.2,0.5 -0.2,0.5 -0.3,1.1 -0.5,1.6 -0.5,1.4 -1,2.8 -1.5,4.2 -0.1,0.4 -0.3,0.8 -0.4,1.3 l 1,0.1 2.9,-7.9 c -0.3,-0.3 -0.5,-0.3 -0.6,-0.3 0,0 -0.1,0 -0.2,0 z m -9.5,0.3 c 0,0.1 0,0.2 0,0.4 v 6 c 0,0.3 0,0.6 0,0.8 0,0.2 0,0.5 0.1,0.7 0,0.3 0.1,0.5 0.2,0.8 0.3,0 0.6,-0.1 0.9,-0.4 0,-0.3 0,-0.6 0,-0.9 -0.1,-2.3 -0.2,-4.7 -0.2,-7 0,-0.2 0,-0.4 0,-0.6 0,-0.2 -0.2,-0.4 -0.4,-0.4 -0.1,0 -0.1,0 -0.2,0 -0.2,0 -0.4,0.2 -0.4,0.6 z m -19.3,-2.5 c -0.4,0.3 -0.4,0.7 -0.1,1 0.4,0.4 0.9,0.8 1.3,1.2 0.1,0.1 0.2,0.1 0.2,0.1 0.2,0.1 0.5,0 0.7,-0.2 0.1,-0.2 0.2,-0.3 0.1,-0.5 -0.4,-0.6 -0.9,-1.2 -1.3,-1.8 -0.1,-0.1 -0.2,-0.1 -0.3,-0.2 -0.3,0.2 -0.5,0.3 -0.6,0.4 z m 46.8,-0.7 c -1.9,1.9 -3.8,3.8 -5.7,5.7 -0.1,0.1 -0.3,0.3 -0.4,0.4 -0.3,0.4 -0.2,0.7 0.3,0.8 0.1,0 0.2,0 0.3,0.1 0.4,0 0.5,0 0.8,-0.3 0.4,-0.4 0.6,-0.3 1,-0.6 0.1,-0.1 0.7,-0.7 0.8,-0.7 0.7,-0.5 1.1,-1 1.3,-1.3 0.9,-0.9 1.2,-0.9 2.1,-1.8 0.3,-0.3 0.6,-0.6 0.9,-0.9 0.2,-0.2 0.3,-0.5 0.1,-0.8 -0.1,-0.1 -0.2,-0.3 -0.2,-0.4 -0.2,-0.4 -0.4,-0.5 -0.6,-0.5 -0.3,-0.1 -0.5,0.1 -0.7,0.3 z m 22.2,2.9 c -2.2,1.2 -4.6,2.3 -6.9,3.5 -1.9,1 -4.2,1.6 -3.2,4.1 4.3,-1 8.7,-3.4 12.8,-5.1 1.2,-0.5 3.8,-1 4.6,-2.1 0.6,-0.9 0.2,-2.9 0.2,-4 -2.5,0.7 -5.1,2.3 -7.5,3.6 z M -150,4.6 c -0.1,0.5 0.1,0.8 0.3,1.1 0.8,1.4 1.6,2.7 2.4,4.1 0.5,0.8 0.9,1.6 1.3,2.4 0.2,0.4 0.5,0.5 0.8,0.3 0.2,-0.1 0.3,-0.3 0.4,-0.4 -0.4,-0.8 -0.8,-1.5 -1.3,-2.2 -0.6,-0.9 -1.1,-1.8 -1.6,-2.8 -0.4,-0.9 -0.8,-1.9 -1.6,-2.6 0,0 -0.1,-0.1 -0.2,-0.1 z m -31.4,2.9 c 0,0.7 -0.1,1.6 0.2,2.2 0.5,0.8 1.9,1.2 2.8,1.7 2.3,1.2 4.6,2.3 6.9,3.6 1.6,0.9 3.3,1.9 5,2.5 0.7,0.3 1.6,0.3 2.2,-0.3 1.3,-1.5 -2.4,-3.5 -3.3,-4.2 -3,-2.3 -6,-4.6 -8.9,-6.8 -1.5,-1.2 -3,-2.7 -4.8,-3.5 v 4.8 z m 66.8,-5.1 c -1.3,2.3 -2.6,4.6 -4,6.9 -0.2,0.3 -0.2,0.7 -0.2,1 0,0.3 0.2,0.5 0.5,0.5 0.2,0 0.4,-0.1 0.6,-0.2 0.4,-0.2 0.7,-0.5 0.9,-0.9 1.3,-1.9 2.6,-3.9 3.9,-5.8 0.1,-0.2 0.2,-0.4 0.3,-0.6 -0.2,-0.3 -0.3,-0.6 -0.6,-0.7 -0.3,-0.1 -0.7,-0.4 -1.1,-0.4 0,0.1 -0.1,0.1 -0.3,0.2 z m -28.2,-1 c -0.4,0.2 -0.4,0.4 -0.4,0.8 0,0.2 0.1,0.4 0.1,0.5 0.6,2 1.2,4 1.8,6 0.1,0.3 0.1,0.8 0.6,1 0.2,0 0.4,-0.1 0.7,-0.2 0.2,-0.1 0.3,-0.3 0.3,-0.5 0,-0.2 -0.1,-0.3 -0.1,-0.5 -0.6,-2.2 -1.2,-4.4 -1.8,-6.6 -0.2,-0.6 -0.3,-0.8 -0.6,-0.8 -0.1,0 -0.3,0.2 -0.6,0.3 z m 20.6,-0.7 c -0.1,0.2 -0.2,0.4 -0.3,0.6 l -1.2,3 c -0.4,1 -0.8,2 -1.2,3 -0.1,0.2 -0.2,0.5 0,0.7 0.2,0.2 0.5,0.3 0.8,0.3 0.3,-0.1 0.5,-0.2 0.6,-0.4 0.1,-0.1 0.1,-0.3 0.2,-0.4 0.8,-1.9 1.7,-3.8 2.5,-5.6 0.1,-0.3 0.2,-0.5 0.3,-0.8 -0.3,-0.4 -0.7,-0.5 -1.1,-0.6 -0.1,0 -0.1,0 -0.2,0 -0.1,-0.1 -0.3,0 -0.4,0.2 z m -7,-0.7 c 0,0.1 0,0.1 0,0.2 -0.3,1.6 -0.5,3.2 -0.8,4.9 -0.1,0.7 -0.2,1.5 -0.3,2.2 0,0.3 0.2,0.5 0.5,0.4 0.2,-0.1 0.9,-0.1 1.1,-0.2 0.1,-0.4 0.2,-0.9 0.2,-1.3 0.1,-0.6 0.1,-1.1 0.2,-1.7 0.1,-0.7 0.3,-1.5 0.4,-2.2 0.1,-0.5 0.2,-1.1 0.2,-1.7 0,-0.1 0,-0.2 0,-0.4 0,-0.3 -0.8,-0.7 -1.2,-0.7 v 0 c 0,0.1 -0.2,0.3 -0.3,0.5 z m -5.5,-1.3 c -0.1,0 -0.2,0 -0.3,0 -0.2,0 -0.3,0.2 -0.3,0.4 0,0.3 0,0.6 0,0.8 0.1,1 0.1,1.9 0.2,2.9 0.1,1.5 0.2,3.1 0.3,4.6 0,0.2 0,0.4 0.1,0.5 0,0.2 0.3,0.3 0.5,0.3 0.2,0 0.3,-0.1 0.4,-0.4 0,-0.3 0.1,-0.6 0.1,-0.9 0.1,-2 0.3,-4 0.4,-5.9 v 0 c 0,-0.2 0,-0.4 0,-0.6 0,-0.2 0.1,-0.4 0.1,-0.6 0,-0.6 -0.1,-0.9 -0.7,-1.1 -0.2,-0.1 -0.4,-0.1 -0.6,-0.1 -0.1,0.1 -0.1,0.1 -0.2,0.1 z m 47.9,1.2 -6,4.6 c -2.1,1.7 -4.3,3.3 -6.4,5 -0.7,0.6 -1.6,1.7 -0.5,2.5 0.7,0.5 1.6,-0.1 2.1,-0.5 1.7,-1.1 3.4,-2.2 5,-3.3 3.4,-2.3 6.9,-4.4 10.3,-6.7 1.3,-0.9 3.3,-1.7 4.2,-2.9 0.8,-1 0.6,-4.5 0.1,-5.7 -2.9,2.3 -5.8,4.7 -8.8,7 z m -94.6,-9.4 c 0,0.7 -0.1,1.6 0.2,2.3 0.8,1.6 3,2.9 4.4,4.1 3.2,2.9 6.2,6 9.4,8.8 1.6,1.4 3.1,3 4.8,4.3 0.7,0.5 1.6,1.2 2.4,0.5 0.7,-0.6 0.1,-1.5 -0.4,-2.1 -1.1,-1.5 -2.5,-2.7 -3.8,-4.1 -3.2,-3.6 -6.7,-7 -9.9,-10.5 -2.3,-2.5 -4.5,-5.6 -7.1,-7.8 z m 30,-9.4 c 1.5,4.7 3.3,9.3 5,14 0.3,1 0.6,2.3 1.2,3.2 0.3,0.4 0.8,0.7 1.2,0.3 1,-0.8 -0.1,-3.6 -0.3,-4.6 -0.8,-4.1 -2.3,-8.6 -2.3,-12.8 z m 13.8,0 c 0.7,3.8 0.5,7.7 1,11.5 0.1,1 -0.2,3 0.7,3.6 0.6,0.5 2.3,0.7 2.6,-0.2 0.3,-1.1 0,-2.4 0.1,-3.4 0.3,-3.8 0.2,-7.6 0.2,-11.5 z m 10.7,0 c -0.3,3.8 -1.3,7.6 -2,11.2 -0.2,1.1 -1,3.3 0,4.1 1.9,1.6 2.6,-1.5 3,-2.8 1.3,-4.2 2.6,-8.4 3.8,-12.6 h -4.8 z m 12.1,0.3 c -1.1,0.8 -1.6,3.4 -2,4.6 -1.4,4 -3.7,7.9 -4.6,11.9 0.9,0.1 1.9,0.5 2.7,-0.1 1.3,-1 2.1,-3.3 2.9,-4.7 1.4,-2.5 2.9,-5 4.3,-7.6 0.8,-1.4 1.8,-2.8 2.2,-4.4 h -3.9 c -0.1,0 -0.2,0 -0.3,0 -0.1,0 -0.2,0 -0.3,0 -0.3,0 -0.7,0 -1,0.3 z m -60.7,-0.3 h -4.1 c 0.8,2.3 3.4,4.4 5,6.2 4,4.5 8.1,9 12.1,13.5 1.3,1.5 2.6,3.2 4.1,4.6 0.5,0.5 1.5,1 2,0.2 0.5,-0.8 -0.2,-1.8 -0.7,-2.4 -1.3,-1.8 -2.6,-3.5 -3.9,-5.3 -2.9,-4 -5.8,-7.9 -8.7,-11.9 -0.8,-1.1 -1.6,-2.1 -2.3,-3.2 -0.4,-0.5 -0.8,-1.2 -1.4,-1.5 -0.3,-0.1 -0.7,-0.2 -1,-0.2 -0.4,0 -0.8,0 -1.1,0 z m 74.1,0.2 c -1.1,0.5 -1.9,2.5 -2.6,3.5 -1.9,3 -3.9,6 -5.7,8.9 -1,1.6 -2.1,3.2 -3.1,4.8 -0.3,0.6 -0.8,1.3 -0.3,1.9 2,2.2 4.3,-1.8 5.4,-3 2.7,-3.3 5.3,-6.7 7.9,-10.1 1.6,-2 3.5,-4 4.7,-6.2 h -4.4 c -0.3,0 -0.6,0 -1,0 -0.2,0 -0.6,0 -0.9,0.2 z m -62.1,-0.2 h -4.4 c 3.7,6 8,11.6 11.9,17.4 0.8,1.3 3.1,5.8 5.1,3.7 0.6,-0.7 0.1,-1.7 -0.2,-2.4 -0.9,-1.8 -2,-3.5 -2.9,-5.3 -1.8,-3.3 -3.6,-6.6 -5.4,-9.9 -0.5,-0.9 -1.2,-3 -2.2,-3.5 -0.3,-0.1 -0.7,-0.2 -1,-0.2 -0.3,0.2 -0.6,0.2 -0.9,0.2 z m 81.3,0.2 c -0.8,0.3 -1.5,1.1 -2.1,1.7 l -3.2,3.2 c -4.2,4.2 -8.2,8.4 -12.4,12.6 -1.7,1.7 -3.3,3.4 -5,5 -0.7,0.7 -1.9,1.6 -0.8,2.6 1.5,1.5 3,0.5 4.3,-0.6 1.4,-1.2 2.8,-2.4 4.1,-3.5 4.4,-3.9 8.8,-7.8 13.3,-11.6 1.5,-1.2 2.9,-2.5 4.4,-3.8 0.7,-0.6 1.6,-1.2 1.9,-2.1 0.4,-1.1 0.1,-2.5 0.1,-3.7 -0.8,0 -1.8,-0.1 -2.7,-0.1 -0.7,0 -1.4,0.1 -1.9,0.3 z" />
		</g>
	</mask>
	
		<radialGradient
   id="SVGID_1_"
   cx="-799.14111"
   cy="54.9249"
   r="0.51709998"
   gradientTransform="matrix(104.621,0,0,104.6212,83477.445,-5709.2246)"
   gradientUnits="userSpaceOnUse">
		<stop
   offset="0"
   style="stop-color:#8E7D31"
   id="stop1" />
		<stop
   offset="0.5086"
   style="stop-color:#8E7D31"
   id="stop2" />
		<stop
   offset="1"
   style="stop-color:#2A2E76"
   id="stop3" />
	</radialGradient>
	<path
   class="st2"
   d="M -181.8,-19 H -77.2 V 93.2 h -104.6 z"
   mask="url(#c_2_)"
   id="path3"
   style="fill:url(#SVGID_1_)" />
</g>
<path
   class="st3"
   d="m 43.150004,45.6 h 4.3 l 9.1,35.5 8.6,-35.5 h 4.4 l -11.1,40.8 h -3.9 z m 31.2,0 h 20 v 3.5 h -16 v 14.4 h 15.1 v 3.4 h -15.1 V 83 h 16 v 3.4 h -20 z m 26.399996,0 h 9.9 c 3.6,0 6.5,0.8 8.6,2.4 2.2,1.6 3.3,4.1 3.3,7.4 0,2.5 -0.7,4.7 -2.1,6.5 -1.4,1.8 -3.5,3.2 -6.4,4.2 2,0.5 3.5,1.4 4.4,2.6 1,1.2 1.7,3.1 2.2,5.5 l 2.4,12.1 h -4.3 l -1.6,-9.8 c -0.5,-3.1 -1.4,-5.4 -2.7,-6.8 -1.3,-1.4 -3.1,-2.1 -5.4,-2.1 h -4.4 v 18.7 h -3.9 z m 3.9,3.6 v 15.3 h 4.1 c 2.9,0 5.3,-0.8 7.1,-2.3 1.8,-1.5 2.7,-3.6 2.7,-6.2 0,-2.3 -0.6,-4 -1.9,-5.1 -1.3,-1.1 -3.2,-1.7 -5.8,-1.7 0,0 -6.2,0 -6.2,0 z m 23.3,-3.6 h 9.6 c 4.8,0 8.5,1.8 10.8,5.3 2.4,3.5 3.6,8.7 3.6,15.4 0,3.8 -0.5,7.3 -1.6,10.5 -1.1,3.2 -2.8,5.6 -5,7.2 -2.3,1.6 -4.8,2.4 -7.8,2.4 h -9.6 z m 4.1,3.6 V 83 h 5.5 c 3.6,0 6.2,-1.5 7.8,-4.5 1.6,-3 2.4,-7.4 2.4,-13.4 0,-5.2 -0.8,-9.1 -2.5,-11.8 -1.6,-2.7 -4.2,-4.1 -7.7,-4.1 z m 31.9,-3.6 h 3.9 l 11.3,40.8 h -4.4 l -3.4,-14.1 h -10.8 l -3.4,14.1 h -4.3 z m 1.9,5 -4.5,18.4 h 9.1 z m 17.3,-5 h 9.6 c 4.8,0 8.5,1.8 10.8,5.3 2.4,3.5 3.6,8.7 3.6,15.4 0,3.8 -0.5,7.3 -1.6,10.5 -1.1,3.2 -2.8,5.6 -5,7.2 -2.3,1.6 -4.9,2.4 -7.8,2.4 h -9.6 z m 4,3.6 V 83 h 5.5 c 3.6,0 6.2,-1.5 7.8,-4.5 1.6,-3 2.4,-7.4 2.4,-13.4 0,-5.2 -0.8,-9.1 -2.5,-11.8 -1.7,-2.7 -4.2,-4.1 -7.7,-4.1 z M 51.950004,40.1 c -0.8,0.5 -1.6,0.7 -2.3,0.7 -0.9,0 -1.6,-0.3 -2.2,-0.8 -0.6,-0.5 -1.1,-1.3 -1.4,-2.2 -0.3,-1 -0.4,-2 -0.4,-3 0,-1.8 0.4,-3.2 1.1,-4.3 0.7,-1.1 1.8,-1.7 3,-1.7 0.7,0 1.5,0.2 2.2,0.7 v 1.4 c -0.8,-0.7 -1.5,-1 -2.2,-1 -0.9,0 -1.6,0.4 -2.2,1.3 -0.5,0.9 -0.8,2.2 -0.8,3.8 0,1.4 0.3,2.5 0.8,3.4 0.5,0.9 1.2,1.4 2.1,1.4 0.7,0 1.4,-0.3 2.3,-1 z m 9.6,-11.3 c 1.2,0 2.1,0.5 2.9,1.6 0.7,1.1 1.1,2.6 1.1,4.6 0,1.8 -0.4,3.2 -1.1,4.2 -0.8,1.1 -1.7,1.6 -2.9,1.6 -1.2,0 -2.1,-0.5 -2.9,-1.6 -0.7,-1 -1.1,-2.5 -1.1,-4.3 0,-1.9 0.4,-3.4 1.1,-4.5 0.7,-1.1 1.7,-1.6 2.9,-1.6 m 0.1,1 c -1,0 -1.7,0.5 -2.2,1.4 -0.5,0.9 -0.7,2.2 -0.7,3.7 0,1.5 0.2,2.6 0.7,3.5 0.5,0.9 1.2,1.3 2,1.3 0.9,0 1.6,-0.4 2,-1.3 0.5,-0.9 0.7,-2.1 0.7,-3.6 0,-1.7 -0.3,-2.9 -0.8,-3.7 -0.3,-0.9 -1,-1.3 -1.7,-1.3 m 12.5,-1 2.6,6.6 2.6,-6.6 h 1.4 v 12 h -1.1 v -7.7 -2 c 0,-0.2 0,-0.6 0,-1.1 -0.2,0.9 -0.5,1.7 -0.8,2.5 l -2.1,5.4 -1.8,-4.6 c -0.3,-0.9 -0.8,-2 -1.2,-3.3 0.1,2.6 0.1,4 0.1,4.3 v 6.3 h -1.1 v -12 h 1.4 z m 13.8,0 h 1.6 v 12 h -1.6 z m 8,9.6 c 0.6,0.5 1.1,0.8 1.5,1 0.4,0.2 0.8,0.3 1.2,0.3 0.6,0 1.2,-0.2 1.699996,-0.6 0.5,-0.4 0.8,-1 0.8,-1.7 0,-0.5 -0.2,-1 -0.5,-1.3 -0.3,-0.3 -0.999996,-0.7 -1.899996,-1 -1.8,-0.7 -2.8,-1.7 -2.8,-3 0,-0.9 0.3,-1.6 1,-2.2 0.7,-0.6 1.4,-0.9 2.4,-0.9 C 100.15,29 100.85,29.3 101.65,29.8 v 1.5 c -0.5,-0.5 -0.9,-0.8 -1.3,-0.9 -0.3,-0.2 -0.699996,-0.3 -0.999996,-0.3 -0.6,0 -1.1,0.2 -1.5,0.6 -0.4,0.4 -0.6,0.9 -0.6,1.4 0,0.5 0.2,1 0.5,1.3 0.4,0.3 1,0.7 2,1 0.599996,0.2 0.999996,0.4 1.399996,0.7 0.4,0.2 0.6,0.5 0.9,1 0.2,0.4 0.4,0.9 0.4,1.4 0,1 -0.4,1.8 -1.1,2.5 -0.7,0.7 -1.599996,1 -2.599996,1 -0.9,0 -1.8,-0.3 -2.7,-1 z M 108.75,28.8 h 1.6 v 12 h -1.6 z m 12.8,-0.1 c 1.2,0 2.1,0.5 2.9,1.6 0.7,1.1 1.1,2.6 1.1,4.6 0,1.8 -0.4,3.2 -1.1,4.3 -0.8,1.1 -1.7,1.6 -2.9,1.6 -1.2,0 -2.1,-0.5 -2.9,-1.6 -0.7,-1.1 -1.1,-2.5 -1.1,-4.4 0,-1.9 0.4,-3.4 1.1,-4.5 0.7,-1.1 1.7,-1.6 2.9,-1.6 z m 0.1,1 c -1,0 -1.7,0.5 -2.2,1.4 -0.5,1 -0.7,2.2 -0.7,3.8 0,1.5 0.2,2.6 0.7,3.5 0.5,0.9 1.2,1.3 2,1.3 0.9,0 1.5,-0.4 2,-1.3 0.5,-0.9 0.7,-2.1 0.7,-3.7 0,-1.7 -0.3,-2.9 -0.8,-3.8 -0.3,-0.8 -1,-1.2 -1.7,-1.2 z m 0.4,-4.1 h 1.3 l -1.9,2.5 h -0.7 z m 11,3.2 3.4,8 0.9,2.1 c 0,-1.1 -0.1,-2.2 -0.1,-3.3 v -6.8 h 1 v 12 h -1.1 l -3.3,-7.7 c -0.2,-0.5 -0.4,-0.9 -0.5,-1.4 l -0.4,-1.1 c 0,0.2 0,0.4 0,0.4 v 0.9 1.3 0.5 7 h -1 v -12 h 1.1 z m 18.9,0 h 2.9 c 1.5,0 2.5,0.5 3.3,1.6 0.8,1.1 1.1,2.6 1.1,4.5 0,1.1 -0.2,2.1 -0.5,3.1 -0.3,0.9 -0.8,1.6 -1.5,2.1 -0.7,0.5 -1.5,0.7 -2.3,0.7 h -2.9 v -12 z m 1.2,1.1 v 9.9 h 1.7 c 1.1,0 1.9,-0.4 2.3,-1.3 0.5,-0.9 0.7,-2.2 0.7,-3.9 0,-1.5 -0.2,-2.7 -0.7,-3.5 -0.5,-0.8 -1.3,-1.2 -2.3,-1.2 0,-0.1 -1.7,-0.1 -1.7,0 z m 12.4,-1.1 h 5.6 v 1 h -4.5 V 34 h 4.2 v 1 h -4.2 v 4.8 h 4.5 v 1 h -5.6 z m 20,0 h 1.2 v 11 h 4.4 v 1 h -5.6 z m 14.6,0 h 1.2 l 3.4,12 h -1.3 l -1,-4.1 h -3.3 l -1,4.1 h -1.3 z m 0.6,1.5 -1.4,5.4 h 2.8 z"
   id="path4" />
</svg>
