<svg width="350" height="102" viewBox="0 0 350 102" fill="none" xmlns="http://www.w3.org/2000/svg">
<g clip-path="url(#clip0_2_71)">
<path d="M117.612 14.3556H116.216V25.1954H117.612V14.3556Z" fill="white"/>
<path d="M129.16 20.9026L130.359 22.75L130.318 19.4847V14.3562H131.727V25.1961H130.457L126.008 18.6514L124.809 16.8022L124.851 20.0675V25.1961H123.442V14.3562H124.711L129.16 20.9026Z" fill="white"/>
<path d="M143.96 22.0832C143.96 20.8741 143.333 20.361 141.185 20.1522C139.232 19.9713 137.361 19.5399 137.349 17.3444C137.335 15.1629 139.092 14.1904 141.143 14.1904C143.918 14.1904 145.091 15.3977 145.329 17.1495L143.904 17.3043C143.708 15.9962 142.886 15.4551 141.143 15.4551C140.263 15.469 138.743 15.7735 138.756 17.3304C138.756 18.2751 139.217 18.6926 141.225 18.9135C143.836 19.1658 145.329 19.6373 145.341 22.0693C145.341 24.3778 143.291 25.3643 141.185 25.3643C138.325 25.3643 137.194 24.1396 136.946 22.3338L138.367 22.1946C138.589 23.5428 139.441 24.0978 141.185 24.0978C142.469 24.0856 143.96 23.5846 143.96 22.0832Z" fill="white"/>
<path d="M154.518 25.1968H153.125V15.6356H149.762V14.357H157.879V15.6356H154.518V25.1968Z" fill="white"/>
<path d="M164.268 14.3556H162.872V25.1954H164.268V14.3556Z" fill="white"/>
<path d="M174.019 25.1968H172.624V15.6356H169.261V14.357H177.38V15.6356H174.019V25.1968Z" fill="white"/>
<path d="M182.012 21.2772V14.3568H183.435V21.2911C183.435 22.8481 183.936 24.0989 186.391 24.0989C188.846 24.0989 189.349 22.8481 189.349 21.2911V14.3568H190.77V21.2772C190.77 23.5978 189.725 25.3618 186.391 25.3618C183.058 25.3618 182.012 23.5978 182.012 21.2772Z" fill="white"/>
<path d="M200.158 25.1968H198.765V15.6356H195.402V14.357H203.519V15.6356H200.158V25.1968Z" fill="white"/>
<path d="M215.752 14.3562V15.6366H209.657V19.0133H215.152V20.2763H209.657V23.9173H216.032V25.1961H208.263V14.3562H215.752Z" fill="white"/>
<path d="M229.227 25.1968H227.834V14.357H235.043V15.6356H229.227V19.0123H234.43V20.277H229.227V25.1968Z" fill="white"/>
<path d="M239.689 19.777C239.689 16.3864 241.112 14.1892 244.433 14.1892C247.75 14.1892 249.173 16.3864 249.173 19.777C249.173 23.1676 247.75 25.363 244.433 25.363C241.112 25.363 239.689 23.1676 239.689 19.777ZM241.14 19.777C241.14 22.0821 241.794 24.0983 244.433 24.0983C247.067 24.0983 247.722 22.082 247.722 19.777C247.722 17.4703 247.067 15.4557 244.433 15.4557C241.794 15.4557 241.14 17.4703 241.14 19.777Z" fill="white"/>
<path d="M255.868 25.1961H254.473V14.3563H258.826C260.57 14.3563 262.383 14.8974 262.383 17.4981C262.383 19.5266 261.295 20.3042 259.998 20.5408L262.844 25.1961H261.127L258.493 20.6521H255.868L255.868 25.1961ZM258.966 19.3734C259.802 19.3734 260.932 19.2499 260.932 17.498C260.932 15.7462 259.802 15.6348 258.966 15.6348H255.868V19.3734H258.966Z" fill="white"/>
<path d="M133.301 40.6957V45.6126H121.906V49.6054H131.686V54.5223H121.906V59.0216H133.899V63.9385H116.373V40.6955L133.301 40.6957Z" fill="white"/>
<path d="M135.843 48.1455H138.744V43.3777H144.127V48.1455H148.912V52.6153H144.127V57.9191C144.127 59.1708 144.755 59.5884 145.772 59.7067C146.849 59.8262 148.075 59.3198 148.583 58.9921L148.972 63.8191C148.344 64.0877 147.207 64.4153 145.593 64.4153C140.239 64.4153 138.743 61.4056 138.743 58.6643V52.6152H135.843L135.843 48.1455Z" fill="white"/>
<path d="M152.261 40.0994H157.645V49.4564C158.452 48.6223 159.917 47.6688 162.28 47.6688C166.468 47.6688 168.8 49.5452 168.8 54.2539V63.9387H163.417V54.939C163.417 53.1217 162.52 52.4958 161.084 52.5254C159.349 52.5551 158.153 53.3902 157.645 54.0161V63.9387H152.261V40.0994Z" fill="white"/>
<path d="M178.34 46.1189H172.837V40.6957H178.34V46.1189ZM172.897 48.1455H178.28V63.9386H172.897V48.1455Z" fill="white"/>
<path d="M190.004 59.6179C191.799 59.6179 192.218 59.0512 192.277 58.0681L197.72 58.7235C197.661 61.8527 196.165 64.4153 190.004 64.4153C184.74 64.4153 181.929 61.525 181.929 56.0415C181.929 50.5579 184.74 47.6687 190.004 47.6687C196.165 47.6687 197.661 50.2313 197.72 53.3594L192.277 54.0159C192.218 53.0316 191.799 52.4661 190.004 52.4661C188.18 52.4661 187.372 53.4789 187.372 56.0414C187.372 58.6039 188.18 59.6179 190.004 59.6179Z" fill="white"/>
<path d="M209.02 54.4098L208.524 54.3873C206.823 54.2751 205.719 54.118 205.719 53.0069C205.719 52.1538 206.564 51.5927 207.826 51.5927C209.358 51.5927 210.079 51.9855 210.225 52.962L215.125 52.3671C214.968 49.2694 212.76 47.945 207.826 47.945C204.435 47.945 200.481 49.3368 200.481 53.2426C200.481 57.0811 203.139 57.2719 207.172 57.5637L207.454 57.575C209.121 57.6871 210.439 57.777 210.439 58.933C210.439 59.4044 210.169 60.4931 207.668 60.4931C206.542 60.4931 205.257 60.3023 205.055 58.9218L200.154 59.5055C200.312 62.8277 202.441 64.1295 207.645 64.1295C209.482 64.1295 215.497 63.7479 215.497 58.8096C215.497 54.8027 212.636 54.6342 209.02 54.4098Z" fill="white"/>
<path d="M231.966 54.8789L237.409 54.0751V53.3294C237.409 50.5881 235.644 49.7236 232.803 49.6642C230.111 49.6049 229.094 50.7372 228.645 52.7342L226.582 52.4359C227.15 49.7236 228.645 47.8469 232.803 47.8469C236.9 47.8469 239.323 49.6946 239.323 53.4482V60.2427L239.502 63.9382H237.768L237.409 61.2259C236.451 63.0143 233.939 64.2365 231.457 64.2365C227.748 64.2365 225.924 62.5378 225.924 59.7068C225.924 56.4587 228.347 55.4161 231.966 54.8789ZM231.457 62.4191C234.836 62.4191 237.318 59.885 237.408 57.8591V55.7738L231.935 56.6369C229.721 56.9945 227.957 57.5014 227.957 59.7068C227.957 61.5836 229.213 62.4191 231.457 62.4191Z" fill="white"/>
<path d="M245.482 50.8271C246.53 49.098 248.504 47.8469 250.896 47.8469C254.187 47.8469 256.758 49.6946 256.758 52.9124V63.9382H254.784V53.3598C254.784 51.0052 253.079 49.7236 250.597 49.7236C247.636 49.7236 245.573 52.2273 245.482 54.2243V63.9382H243.509V51.8103L243.33 48.1452H245.123L245.482 50.8271Z" fill="white"/>
<path d="M272.429 40.0995H274.404V60.2427L274.583 63.9382H272.788L272.429 61.2259C271.382 62.9853 269.439 64.2365 267.106 64.2365C262.679 64.2365 260.078 61.2259 260.078 56.0417C260.078 50.8574 262.679 47.8469 267.106 47.8469C269.439 47.8469 271.382 49.098 272.429 50.8271V40.0995ZM267.166 62.3583C270.395 62.3583 272.34 59.885 272.429 57.8591V54.2243C272.34 52.2273 270.395 49.7236 267.166 49.7236C264.056 49.7236 262.171 51.9884 262.171 56.0417C262.171 60.1238 264.056 62.3583 267.166 62.3583Z" fill="white"/>
<path d="M284.48 48.1451H287.352V44.1223L289.326 43.4664V48.1451H294.201V49.9915H289.326V58.0385C289.326 61.6429 290.373 62.3582 292.766 62.3582C293.483 62.3582 293.992 62.18 294.231 62.0903L294.47 63.9974C294.051 64.1465 293.333 64.2364 292.766 64.2364C288.07 64.2364 287.352 61.2865 287.352 58.0385V49.9915H284.48L284.48 48.1451Z" fill="white"/>
<path d="M297.58 40.0995H299.554V50.8271C300.6 49.098 302.574 47.8469 304.968 47.8469C308.257 47.8469 310.829 49.6946 310.829 52.9124V63.9382H308.856V53.3598C308.856 51.0051 307.151 49.7236 304.668 49.7236C301.708 49.7236 299.644 52.2273 299.554 54.2243V63.9382H297.58V40.0995Z" fill="white"/>
<path d="M328.055 56.0113V56.8165H316.242C316.422 60.8089 318.455 62.4191 321.387 62.4191C324.198 62.4785 325.394 61.2563 325.843 59.3795L327.967 59.6475C327.488 62.0904 325.574 64.2365 321.357 64.2365C316.93 64.2365 314.149 61.5242 314.149 56.0417C314.149 50.5591 316.929 47.8469 321.357 47.8469C325.993 47.8469 328.055 50.8271 328.055 56.0113ZM316.242 55.0584H325.903C325.843 51.5715 324.438 49.5745 321.357 49.6339C318.455 49.6339 316.451 51.2441 316.242 55.0584Z" fill="white"/>
<path d="M127.014 97.082C129.765 97.082 131.081 96.1885 131.141 93.5356L136.763 94.2205C136.704 99.0789 133.414 101.998 127.014 101.998C119.327 101.998 116.456 97.1414 116.456 89.9008C116.456 82.6603 119.327 77.8019 127.014 77.8019C133.414 77.8019 136.704 80.7214 136.763 85.5797L131.141 86.2647C131.081 83.6132 129.765 82.7183 127.014 82.7183C122.707 82.7183 122.049 86.1459 122.049 89.9007C122.049 93.6556 122.707 97.082 127.014 97.082Z" fill="white"/>
<path d="M139.454 93.6254C139.454 88.0532 142.685 85.2511 147.889 85.2511C153.093 85.2511 156.324 88.0532 156.324 93.6254C156.324 99.1977 153.093 101.998 147.889 101.998C142.684 101.998 139.454 99.1978 139.454 93.6254ZM144.898 93.6254C144.898 96.4261 146.094 97.1719 147.889 97.1719C149.683 97.1719 150.88 96.4262 150.88 93.6254C150.88 90.8247 149.684 90.079 147.889 90.079C146.094 90.079 144.898 90.8234 144.898 93.6254Z" fill="white"/>
<path d="M164.846 87.4275C165.832 86.0866 167.627 85.251 169.72 85.251C171.934 85.251 173.669 85.9664 174.746 87.4868C176.331 85.8766 178.334 85.251 180.279 85.251C184.077 85.251 186.35 87.2189 186.35 91.3302V101.522H180.966V91.9267C180.966 90.7045 180.129 90.1093 178.813 90.1093C177.258 90.1093 176.301 90.9724 175.792 91.598V101.522H170.408V91.9266C170.408 90.7044 169.571 90.1092 168.255 90.1092C166.7 90.1092 165.743 90.9723 165.234 91.5979V101.522H159.851V90.3177L159.551 85.7286H164.487L164.846 87.4275Z" fill="white"/>
<path d="M195.261 87.4275C196.248 86.0866 198.042 85.251 200.136 85.251C202.35 85.251 204.084 85.9664 205.161 87.4868C206.746 85.8766 208.75 85.251 210.694 85.251C214.492 85.251 216.765 87.2189 216.765 91.3302V101.522H211.382V91.9267C211.382 90.7045 210.545 90.1093 209.228 90.1093C207.673 90.1093 206.716 90.9724 206.208 91.598V101.522H200.824V91.9266C200.824 90.7044 199.987 90.1092 198.671 90.1092C197.116 90.1092 196.159 90.9723 195.65 91.5979V101.522H190.266V90.3177L189.967 85.7286H194.902L195.261 87.4275Z" fill="white"/>
<path d="M220.054 93.6254C220.054 88.0532 223.284 85.2511 228.488 85.2511C233.692 85.2511 236.923 88.0532 236.923 93.6254C236.923 99.1977 233.692 101.998 228.488 101.998C223.283 101.998 220.054 99.1978 220.054 93.6254ZM225.497 93.6254C225.497 96.4261 226.694 97.1719 228.488 97.1719C230.282 97.1719 231.479 96.4262 231.479 93.6254C231.479 90.8247 230.283 90.079 228.488 90.079C226.693 90.079 225.497 90.8234 225.497 93.6254Z" fill="white"/>
<path d="M245.415 87.4275C246.492 86.2053 248.078 85.251 250.439 85.251C254.627 85.251 256.959 87.1292 256.959 91.837V101.522H251.576V92.5221C251.576 90.7047 250.679 90.0791 249.243 90.1095C247.509 90.1385 246.313 90.9726 245.804 91.5982V101.522H240.421V90.3179L240.122 85.7289H245.056L245.415 87.4275Z" fill="white"/>
<path d="M268.413 89.9008C268.413 82.6589 271.732 77.8019 279.419 77.8019C285.819 77.8019 289.558 80.7214 289.618 85.5797L283.995 86.2647C283.935 83.6132 282.171 82.7183 279.419 82.7183C275.111 82.7183 274.005 86.1459 274.005 89.9007C274.005 93.6556 275.111 96.9921 279.419 97.0819C281.961 97.1413 282.979 96.843 283.935 96.4564V92.6711H279.15V88.2022H289.438V99.6147C285.968 101.671 282.979 102.029 279.389 101.998C271.732 101.939 268.413 97.1718 268.413 89.9008Z" fill="white"/>
<path d="M293.264 93.6254C293.264 88.0532 296.495 85.2511 301.699 85.2511C306.902 85.2511 310.134 88.0532 310.134 93.6254C310.134 99.1977 306.903 101.998 301.699 101.998C296.494 101.998 293.264 99.1978 293.264 93.6254ZM298.709 93.6254C298.709 96.4261 299.905 97.1719 301.699 97.1719C303.494 97.1719 304.69 96.4262 304.69 93.6254C304.69 90.8247 303.494 90.079 301.699 90.079C299.905 90.079 298.709 90.8234 298.709 93.6254Z" fill="white"/>
<path d="M313.003 93.6254C313.003 88.0532 316.234 85.2511 321.438 85.2511C326.641 85.2511 329.873 88.0532 329.873 93.6254C329.873 99.1977 326.642 101.998 321.438 101.998C316.233 101.998 313.003 99.1978 313.003 93.6254ZM318.448 93.6254C318.448 96.4261 319.644 97.1719 321.438 97.1719C323.233 97.1719 324.429 96.4262 324.429 93.6254C324.429 90.8247 323.233 90.079 321.438 90.079C319.644 90.079 318.448 90.8234 318.448 93.6254Z" fill="white"/>
<path d="M344.317 77.6818H349.701V96.9328L350 101.522H345.066L344.707 99.8232C343.57 101.015 342.165 101.998 339.682 101.998C335.196 101.998 332.742 99.1078 332.742 93.6252C332.742 88.1427 335.196 85.2509 339.682 85.2509C341.865 85.2509 343.24 85.9966 344.317 87.0987L344.317 77.6818ZM341.147 97.1414C342.553 97.1414 343.63 96.5448 344.317 95.6513V91.5981C343.63 90.7046 342.553 90.1094 341.147 90.1094C339.533 90.1094 338.246 91.152 338.246 93.6254C338.246 96.0989 339.532 97.1414 341.147 97.1414Z" fill="white"/>
<path d="M22.8432 47.3192C15.6328 47.2227 10.6512 44.5535 7.23474 41.1851C6.91958 40.8711 6.60452 40.5457 6.31366 40.2203C5.18711 38.976 4.26612 37.6592 3.49047 36.3677C0.654428 31.5987 0 27.0584 0 27.0584C2.78744 27.0952 5.23439 27.469 7.38007 28.1096C8.41083 28.3982 9.36766 28.7616 10.2518 29.171C10.5069 29.2803 10.7609 29.401 11.0032 29.5218C21.7653 34.9062 22.8432 47.3192 22.8432 47.3192Z" fill="#6ABD4C"/>
<path d="M34.0773 30.2464C29.6786 23.7258 29.3277 17.6399 30.5269 12.6546C30.9135 11.0366 31.4722 9.52665 32.0897 8.16275C33.4229 5.27621 35.0953 3.01881 36.2946 1.61808C37.1671 0.56809 37.7858 0 37.7858 0C38.0156 0.350744 38.2463 0.687653 38.4519 1.02699H38.4645C39.6638 2.97048 40.5364 4.83002 41.1296 6.64133C41.567 7.93278 41.8568 9.18862 42.0149 10.4202C43.7116 22.3022 34.0773 30.2464 34.0773 30.2464Z" fill="#6ABD4C"/>
<path d="M53.8184 30.2464C53.8184 30.2464 44.1841 22.3021 45.868 10.4202C46.0389 9.18853 46.3285 7.93278 46.766 6.64133C47.4077 4.70934 48.3531 2.70481 49.6978 0.61642C49.8317 0.411694 49.9644 0.205847 50.1099 0C50.1099 0 50.4134 0.278296 50.8855 0.809647H50.8982C52.0247 2.02865 54.1704 4.62418 55.7944 8.16275C56.4234 9.52665 56.9822 11.0366 57.3688 12.6546C58.5681 17.6399 58.2172 23.7257 53.8184 30.2464Z" fill="#6ABD4C"/>
<path d="M87.7987 27.0586C87.7987 27.0586 87.1315 31.5977 84.2968 36.3679C83.8478 37.1292 83.3388 37.8893 82.757 38.6495V38.6623C82.3693 39.1935 81.9445 39.7122 81.4839 40.2193C78.0559 44.035 72.8445 47.2102 64.9554 47.3194C64.9554 47.3194 66.0219 34.9074 76.7828 29.5219C77.728 29.0504 78.7345 28.6284 79.8368 28.2903C80.0307 28.2293 80.2246 28.1695 80.4186 28.1096C82.5631 27.4691 84.9997 27.0942 87.7987 27.0586Z" fill="#6ABD4C"/>
<path d="M44.0628 52.3544C44.0628 52.3544 30.9623 39.1212 44.0628 24.7289C44.0628 24.7289 56.4119 38.7348 44.0628 52.3544Z" fill="#6ABD4C"/>
<path d="M53.3214 47.4762C53.3214 47.4762 51.0787 32.2996 65.622 27.5776C65.622 27.5776 66.9424 43.8053 53.3214 47.4762Z" fill="#6ABD4C"/>
<path d="M34.4649 47.4762C20.8312 43.8053 22.1528 27.5776 22.1528 27.5776C36.6949 32.2996 34.4649 47.4762 34.4649 47.4762Z" fill="#6ABD4C"/>
<path d="M72.6627 15.2138C72.5899 15.5036 72.5045 15.7808 72.4087 16.0591C72.3106 16.3972 72.1778 16.7111 72.044 17.0251C71.7774 17.7014 71.4507 18.3292 71.0871 18.8973C70.8933 19.2228 70.6866 19.5241 70.4697 19.8139C69.8025 20.7316 69.0385 21.5159 68.2513 22.2047C67.9234 22.483 67.5968 22.7475 67.2459 22.9901C67.2217 22.9774 67.1974 22.9648 67.1606 22.9533C67.1121 23.0131 67.0878 23.0625 67.0763 23.1223V23.135C64.1191 25.2475 61.199 25.9111 61.199 25.9111C61.0778 24.8611 61.0778 23.8825 61.1748 22.9533C61.2463 22.2529 61.3802 21.5767 61.5626 20.9246C61.6711 20.4899 61.8049 20.092 61.9735 19.6803C62.3382 18.7269 62.8218 17.8576 63.3805 17.0618C63.6586 16.6386 63.9495 16.2648 64.2761 15.914C64.3373 15.8174 64.41 15.745 64.4827 15.6725C64.4827 15.6725 64.4827 15.6599 64.4954 15.6599C65.7062 14.296 67.112 13.2219 68.4337 12.4007C68.8699 12.1351 69.2936 11.881 69.6929 11.675C71.6447 10.6251 73.136 10.1789 73.136 10.1789C73.2571 12.0741 73.0632 13.7406 72.6627 15.2138Z" fill="#6ABD4C"/>
<path d="M26.5274 25.9117C26.5274 25.9117 23.6072 25.2469 20.6501 23.1344V23.1229C20.6373 23.062 20.6131 23.0137 20.5646 22.9528C20.5289 22.9654 20.5046 22.978 20.4804 22.9895C20.1295 22.7492 19.8016 22.4824 19.475 22.2052C18.6866 21.5164 17.9226 20.7309 17.2566 19.8144C17.0385 19.5246 16.8318 19.2233 16.638 18.8967C16.3967 18.5218 16.1786 18.1239 15.9719 17.7018V17.6891C15.8634 17.4718 15.7654 17.2544 15.6695 17.0245C15.5483 16.7105 15.4144 16.3977 15.3175 16.0584C14.7484 14.3806 14.4448 12.437 14.5903 10.1785C14.5903 10.1785 16.7718 10.8305 19.2926 12.4003C19.4623 12.4969 19.6205 12.6061 19.789 12.7143C20.9651 13.4986 22.1759 14.4658 23.2308 15.6607C23.2435 15.6607 23.2435 15.6733 23.2435 15.6733C23.3036 15.7457 23.389 15.8182 23.449 15.9136C23.7768 16.2644 24.0677 16.6381 24.3342 17.0613C24.9033 17.8582 25.3765 18.7277 25.7516 19.6822C25.9086 20.0916 26.054 20.4906 26.1637 20.9242C26.3461 21.5773 26.4789 22.2536 26.5515 22.9528C26.6484 23.8831 26.6485 24.8606 26.5274 25.9117Z" fill="#6ABD4C"/>
<path d="M41.0331 60.4321H41.0205V60.4447L41.0089 60.4562L40.9604 60.5769L40.9247 60.685L40.8878 60.7701L40.8751 60.8184L40.8394 60.8909L40.8267 60.9392L40.8152 60.9507C40.8152 60.9507 40.791 60.999 40.7425 61.1083V61.1324C40.754 61.1197 40.7667 61.1083 40.7667 61.0968L40.0879 63.0518L40.0268 63.2335C39.6885 64.441 39.228 66.2281 38.6705 68.8237C38.5136 69.8013 38.4028 70.8041 38.3427 71.7574C38.2827 72.9891 38.2942 78.4355 38.4512 79.7995C38.4639 79.9317 38.4881 80.0651 38.5008 80.1974L38.5239 80.3664C38.5608 80.7172 38.6093 81.0794 38.682 81.4416C38.7177 81.6222 38.7547 81.8039 38.8032 81.9971V82.0212C38.6093 82.2627 38.4281 82.4559 38.2214 82.6848H38.1972C38.2099 82.6848 38.2099 82.6963 38.2099 82.7089C36.6829 84.4719 35.022 85.8484 33.2894 86.8984C31.3377 88.0702 29.3016 88.8304 27.3509 89.326C26.042 89.6641 24.7816 89.8574 23.5939 89.978C23.3284 90.001 23.0733 90.0264 22.8067 90.0505L20.953 90.1229C20.9173 90.0862 20.8677 90.0505 20.8319 90.0137C20.7107 89.8814 20.5167 89.664 20.2744 89.3857C20.2132 89.3133 20.1405 89.2408 20.0806 89.1684C19.874 88.9395 19.6557 88.6865 19.4261 88.4324C19.2692 88.2392 19.0983 88.0346 18.9287 87.8413C18.6146 87.4664 18.3227 87.1168 18.1173 86.8385C18.0445 86.7419 17.9834 86.6579 17.9233 86.5856C10.8826 77.4327 6.53113 64.7791 6.53113 50.7846C6.53113 49.5162 6.568 48.2742 6.64072 47.0298C6.64072 46.9448 6.64072 46.8481 6.65226 46.7642C6.66502 46.4744 6.68922 46.1961 6.70189 45.9074C6.71343 45.8591 6.71343 45.8223 6.71343 45.7867C6.73764 45.605 6.76194 45.4233 6.78614 45.2427L9.93716 47.2714C11.3788 48.3823 13.1967 49.5783 14.9545 50.4339C17.7663 51.8104 20.1775 51.799 20.3829 51.8357C20.5041 51.8599 24.1999 51.968 26.236 51.5574C26.5881 51.485 35.823 49.9026 40.6939 55.6871C40.6939 55.6871 40.7053 55.6871 40.7181 55.6998C40.7423 55.7228 40.7666 55.7469 40.7908 55.7723C40.8265 55.8079 40.8635 55.8436 40.8877 55.893C40.9362 55.9655 40.9846 56.0368 41.0459 56.0965C41.4695 56.7486 41.9058 58.0895 41.0331 60.4321Z" fill="#006D47"/>
<path d="M84.2381 50.0835C84.2381 63.2684 80.3726 75.2825 74.0347 84.2893C73.0779 85.6302 72.0714 86.9101 71.0165 88.1176C58.3534 89.5299 52.0144 82.708 51.0449 81.5373C51.0218 81.5005 50.9975 81.4763 50.9721 81.4522C50.9364 81.4039 50.9121 81.3797 50.9121 81.3797C52.1483 74.1957 50.7782 67.1208 49.8457 63.45C49.8341 63.3776 49.8087 63.3051 49.7856 63.2315C49.7128 62.9786 49.6517 62.737 49.5917 62.5323C49.519 62.254 49.4336 61.9883 49.3608 61.7469C49.3123 61.5892 49.2638 61.4456 49.228 61.3248C49.1911 61.2155 49.1668 61.1201 49.1311 61.035C49.0942 60.9269 49.0699 60.866 49.0699 60.866C49.0699 60.866 47.3732 64.1987 46.998 65.7443C46.7672 66.685 46.6944 69.3301 46.6828 70.0546V70.0902C46.6701 70.3076 46.6701 70.4652 46.6828 70.6342V70.6572C46.6828 71.0689 46.7071 71.3092 46.7071 71.3345C46.7071 71.3345 46.7914 73.4955 46.6944 76.0312C46.6828 76.0668 46.6828 76.1162 46.6828 76.1634C46.6828 76.3693 46.6701 76.5751 46.6575 76.7914C46.5744 79.5571 46.295 82.5873 45.6649 84.6884C45.6649 84.7253 45.6522 84.7483 45.6407 84.7851C45.0947 84.4229 44.768 83.5051 44.7324 83.3844C44.7196 83.3717 44.7196 83.3602 44.7196 83.3602C41.0481 75.1135 45.6892 61.288 45.7261 61.2282C48.7917 55.3724 53.4202 51.8948 55.8082 51.1461C58.2921 50.3618 63.612 50.8931 63.7459 50.9161C65.3329 51.1346 68.7137 51.1702 68.8233 51.1461C69.0415 51.1094 71.6466 51.2428 74.8577 49.7097C76.8937 48.7553 79.2218 47.4396 80.7476 46.0745L80.7719 46.0504C81.9353 45.1936 83.1599 44.1184 83.826 43.5273C83.8502 43.5032 83.8745 43.479 83.8987 43.4664C84.0198 44.5899 84.1053 45.7365 84.1653 46.8957V46.9681C84.2138 47.9951 84.2381 49.0324 84.2381 50.0835Z" fill="#006D47"/>
<path d="M40.9969 90.8229L38.7542 93.5633L38.7311 93.5887L38.2937 94.0476C38.2707 94.0706 38.258 94.0947 38.2337 94.1074C38.221 94.1315 38.1979 94.1557 38.1736 94.1798L36.5739 95.8819C36.4769 95.9784 36.38 96.0751 36.2831 96.1717C35.3262 97.0894 34.2585 98.068 33.3629 98.8765C30.2604 97.5839 27.3147 95.7737 24.6127 93.5519H24.9394C25.3041 93.5519 25.9216 93.5277 26.733 93.4426C26.8426 93.4312 26.9627 93.4185 27.0851 93.407H27.1693C28.1873 93.2736 29.4362 93.0321 30.7808 92.5986C30.9874 92.5377 31.1929 92.4652 31.3995 92.3928C31.6777 92.2847 31.9685 92.1754 32.2479 92.0547C32.3922 92.0064 32.5376 91.9339 32.683 91.8741C37.106 89.9053 39.9304 87.0797 40.3552 86.6209C40.3909 86.5968 40.4152 86.5726 40.4152 86.5726C40.4637 86.6576 40.5006 86.7427 40.5491 86.8382C40.5491 86.8382 42.1477 88.9024 40.9969 90.8229Z" fill="#006D47"/>
<path d="M67.1366 92.3926C65.1248 94.2153 62.9791 95.7851 60.7134 97.0892H60.7018C58.3622 96.7281 56.4358 96.099 54.9341 95.424C54.9215 95.4113 54.8973 95.4113 54.8845 95.3987C54.8614 95.3987 54.8488 95.3987 54.836 95.3872C54.267 95.133 53.7695 94.8674 53.3217 94.627C53.309 94.6144 53.2962 94.6144 53.2859 94.6017C52.4491 94.0946 51.6249 93.4678 50.9093 92.8756C50.8978 92.8641 50.8851 92.8515 50.8736 92.8388C50.7525 92.7307 50.6312 92.6214 50.51 92.5134C49.9884 92.0418 49.492 91.5956 48.9714 91.1241C48.9472 91.1126 48.9345 91.0885 48.9102 91.0758L48.8987 91.0643C48.3655 92.1395 47.6499 93.4184 46.7172 94.7351V94.7466C46.7172 94.7466 46.7287 94.7466 46.7414 94.7835C46.7645 94.8202 46.79 94.8674 46.8142 94.9158C46.8257 94.9285 46.8384 94.9399 46.8384 94.9652C46.8626 95.0124 46.8984 95.0607 46.9353 95.109C47.1523 95.4356 47.5171 95.9059 48.0618 96.3407C48.1461 96.4131 48.2442 96.4856 48.3399 96.558H48.3527C49.4434 97.3803 51.2728 98.4785 54.3397 99.8908C51.4183 100.808 48.3527 101.303 45.2145 101.303C43.4208 101.303 41.6629 101.147 39.9431 100.833C39.2644 100.712 38.5973 100.579 37.9301 100.409C37.907 100.398 37.87 100.398 37.8458 100.385C39.2886 99.2629 41.8567 96.9687 43.0699 95.8946L43.1056 95.8578C45.4198 93.3829 46.9111 91.053 47.8195 89.3626C48.0261 88.975 48.2073 88.6139 48.34 88.2999C48.6321 87.7204 48.8133 87.2615 48.9102 86.9832C48.9587 86.875 48.9829 86.8026 49.0071 86.7428V86.7302L49.0313 86.6577C49.0313 86.6577 49.0429 86.6692 49.0555 86.6692C49.2864 86.8992 52.4375 89.8456 58.7142 91.5119H58.7268C58.7384 91.5119 58.7384 91.5234 58.7499 91.5234C59.0534 91.5958 59.3686 91.6809 59.6836 91.7534C60.3624 91.9098 61.0653 92.0546 61.804 92.1754C62.3742 92.2721 62.9559 92.3444 63.5491 92.4169H63.5733C64.8465 92.4893 66.107 92.4523 67.1366 92.3926Z" fill="#006D47"/>
</g>
<defs>
<clipPath id="clip0_2_71">
<rect width="350" height="102" fill="white"/>
</clipPath>
</defs>
</svg>
