<svg version="1.1" id="logo-kroc" xmlns="http://www.w3.org/2000/svg" xmlns:xlink="http://www.w3.org/1999/xlink" x="0px" y="0px" viewBox="0 0 380 80" xml:space="preserve">
<g id="logo">
	<path fill="#ffffff" d="M103.85,28.96l-0.05,10.89l5.12-10.89h3.41l-4.87,9.41l5.31,12.05h-3.44l-3.8-9.46l-1.73,3.25l0.05,6.22
		h-2.89V28.96H103.85z"/>
	<path fill="#ffffff" d="M117.71,41.84v8.58h-2.92V28.96h5.45c0.84,0,1.56,0.08,2.16,0.23c0.6,0.16,1.16,0.45,1.68,0.89
		c0.52,0.44,0.92,1.1,1.18,1.98c0.27,0.88,0.4,1.98,0.4,3.3c0,1.85-0.25,3.25-0.74,4.18c-0.5,0.94-1.2,1.58-2.12,1.93l3.3,8.94h-3.27
		l-2.81-8.58H117.71z M117.71,39.22h2.2c0.97,0,1.68-0.26,2.13-0.78c0.45-0.52,0.67-1.55,0.67-3.07c0-1.52-0.22-2.54-0.67-3.05
		c-0.45-0.51-1.16-0.77-2.13-0.77h-2.2V39.22z"/>
	<path fill="#ffffff" d="M129.02,48.26c-0.84-1.64-1.27-4.5-1.27-8.57c0-4.07,0.42-6.93,1.27-8.57c0.84-1.64,2.46-2.46,4.84-2.46
		c2.38,0,4,0.82,4.84,2.46c0.84,1.64,1.27,4.5,1.27,8.57c0,4.07-0.42,6.93-1.27,8.57c-0.84,1.64-2.46,2.46-4.84,2.46
		C131.48,50.72,129.86,49.9,129.02,48.26z M136.39,46.36c0.42-1.2,0.63-3.42,0.63-6.67c0-3.25-0.21-5.47-0.63-6.67
		c-0.42-1.2-1.27-1.8-2.53-1.8c-1.28,0-2.13,0.6-2.54,1.79c-0.41,1.19-0.62,3.42-0.62,6.68c0,3.26,0.21,5.49,0.62,6.68
		c0.41,1.19,1.26,1.79,2.54,1.79C135.12,48.16,135.97,47.56,136.39,46.36z"/>
	<path fill="#ffffff" d="M145.99,33.12c-0.44,1.27-0.66,3.46-0.66,6.57c0,3.12,0.22,5.31,0.66,6.57c0.44,1.27,1.32,1.9,2.64,1.9
		c1.14,0,1.9-0.29,2.3-0.88c0.39-0.59,0.6-1.66,0.62-3.22l2.89,0.39c-0.02,2.22-0.43,3.82-1.24,4.8c-0.81,0.98-2.3,1.47-4.48,1.47
		c-2.29,0-3.92-0.81-4.88-2.43c-0.96-1.62-1.44-4.49-1.44-8.6s0.48-6.97,1.44-8.6c0.96-1.62,2.59-2.43,4.88-2.43
		c2.18,0,3.68,0.49,4.48,1.47c0.81,0.98,1.22,2.58,1.24,4.8l-2.89,0.38c-0.02-1.56-0.22-2.63-0.62-3.22
		c-0.39-0.59-1.16-0.88-2.3-0.88C147.31,31.22,146.43,31.85,145.99,33.12z"/>
	<path fill="#ffffff" d="M167.47,28.96v21.46h-2.92V28.96H167.47z"/>
	<path fill="#ffffff" d="M174.57,28.96l3.85,10.56l1.93,5.47l-0.08-5.91V28.96h2.72v21.46h-3.3l-3.88-10.56l-1.9-5.47l0.05,5.91
		l0.03,10.12h-2.75V28.96H174.57z"/>
	<path fill="#ffffff" d="M191.02,48.19c1.14,0,1.96-0.26,2.46-0.8c0.5-0.53,0.76-1.43,0.76-2.7c0-1.23-0.24-2.09-0.73-2.59
		c-0.49-0.5-1.42-0.94-2.79-1.32c-0.75-0.2-1.38-0.42-1.87-0.65c-0.5-0.23-0.99-0.56-1.5-1c-0.5-0.44-0.88-1.03-1.13-1.77
		c-0.25-0.74-0.37-1.64-0.37-2.68c0-2.11,0.44-3.65,1.31-4.62c0.87-0.97,2.34-1.46,4.41-1.46c0.94,0,1.73,0.11,2.38,0.32
		c0.65,0.21,1.16,0.48,1.53,0.81c0.37,0.33,0.66,0.78,0.87,1.36c0.21,0.58,0.35,1.15,0.41,1.7c0.06,0.56,0.1,1.25,0.1,2.08
		l-2.83,0.39c0-0.72-0.02-1.28-0.07-1.71c-0.05-0.42-0.15-0.83-0.32-1.24c-0.17-0.4-0.42-0.69-0.77-0.87
		c-0.35-0.17-0.81-0.26-1.37-0.26c-0.94,0-1.62,0.27-2.06,0.8c-0.44,0.53-0.66,1.4-0.66,2.61c0,1.17,0.21,1.98,0.63,2.42
		c0.42,0.44,1.27,0.82,2.56,1.13c0.86,0.2,1.57,0.43,2.13,0.67c0.56,0.25,1.09,0.61,1.58,1.07c0.5,0.47,0.86,1.08,1.09,1.83
		c0.23,0.75,0.35,1.69,0.37,2.81c0,2.22-0.5,3.81-1.5,4.79c-1,0.97-2.55,1.46-4.66,1.46c-1.14,0-2.08-0.13-2.82-0.4
		c-0.74-0.26-1.31-0.69-1.7-1.26c-0.39-0.58-0.67-1.23-0.83-1.97c-0.16-0.73-0.23-1.65-0.23-2.75l2.81-0.36
		c0.02,1.5,0.21,2.57,0.56,3.21C189.11,47.88,189.86,48.19,191.02,48.19z"/>
	<path fill="#ffffff" d="M205.41,31.55v18.87h-2.89V31.55h-3.96v-2.59h10.81v2.59H205.41z"/>
	<path fill="#ffffff" d="M214.51,28.96v21.46h-2.91V28.96H214.51z"/>
	<path fill="#ffffff" d="M223.59,31.55v18.87h-2.89V31.55h-3.96v-2.59h10.81v2.59H223.59z"/>
	<path fill="#ffffff" d="M232.98,47.45c0.36,0.5,1.12,0.74,2.3,0.74c1.17,0,1.94-0.25,2.3-0.74c0.36-0.5,0.54-1.37,0.54-2.61V28.96
		h2.92v15.98c0,2.05-0.4,3.54-1.18,4.46c-0.79,0.92-2.31,1.37-4.57,1.37c-2.26,0-3.78-0.46-4.57-1.37c-0.79-0.92-1.18-2.4-1.18-4.46
		V28.96h2.91v15.87C232.44,46.08,232.62,46.95,232.98,47.45z"/>
	<path fill="#ffffff" d="M249.86,31.55v18.87h-2.89V31.55h-3.96v-2.59h10.81v2.59H249.86z"/>
	<path fill="#ffffff" d="M255.91,28.96h9.49v2.59h-6.6v6.6h5.61v2.56h-5.61v7.12h7.04v2.59h-9.93V28.96z"/>
	<path fill="#dab24f" d="M102.74,65.49v7.28h-2.17V56.68h7.06v1.94h-4.89v4.95h4.23v1.92H102.74z"/>
	<path fill="#dab24f" d="M109.65,71.15c-0.63-1.23-0.95-3.37-0.95-6.43c0-3.05,0.32-5.19,0.95-6.43c0.63-1.23,1.84-1.85,3.63-1.85
		c1.79,0,3,0.62,3.63,1.85c0.63,1.23,0.95,3.37,0.95,6.43c0,3.05-0.32,5.2-0.95,6.43c-0.63,1.23-1.84,1.85-3.63,1.85
		C111.5,73,110.29,72.38,109.65,71.15z M115.18,69.73c0.32-0.9,0.47-2.57,0.47-5s-0.16-4.1-0.47-5c-0.32-0.9-0.95-1.35-1.9-1.35
		c-0.96,0-1.6,0.45-1.91,1.34c-0.31,0.9-0.46,2.57-0.46,5.01c0,2.45,0.16,4.12,0.46,5.01c0.31,0.89,0.95,1.34,1.91,1.34
		C114.23,71.08,114.87,70.63,115.18,69.73z"/>
	<path fill="#dab24f" d="M122.11,66.33v6.44h-2.19V56.68h4.08c0.63,0,1.17,0.06,1.62,0.17c0.45,0.12,0.87,0.34,1.26,0.67
		c0.39,0.33,0.69,0.83,0.89,1.49c0.2,0.66,0.3,1.48,0.3,2.47c0,1.39-0.19,2.43-0.56,3.14c-0.37,0.7-0.9,1.18-1.59,1.44l2.48,6.7
		h-2.45l-2.1-6.44H122.11z M122.11,64.37h1.65c0.73,0,1.26-0.2,1.6-0.59c0.34-0.39,0.51-1.16,0.51-2.3c0-1.14-0.17-1.9-0.51-2.29
		c-0.34-0.38-0.87-0.58-1.6-0.58h-1.65V64.37z"/>
	<path fill="#dab24f" d="M136.82,56.68v16.09h-2.19V56.68H136.82z"/>
	<path fill="#dab24f" d="M142.81,56.68l2.89,7.92l1.44,4.11l-0.06-4.44v-7.59h2.04v16.09h-2.48l-2.91-7.92l-1.42-4.11l0.04,4.44
		l0.02,7.59h-2.06V56.68H142.81z"/>
	<path fill="#dab24f" d="M155.83,58.62v14.15h-2.17V58.62h-2.97v-1.94h8.11v1.94H155.83z"/>
	<path fill="#dab24f" d="M160.37,56.68h7.12v1.94h-4.95v4.95h4.21v1.92h-4.21v5.34h5.28v1.94h-7.45V56.68z"/>
	<path fill="#dab24f" d="M171.88,66.33v6.44h-2.19V56.68h4.09c0.63,0,1.17,0.06,1.62,0.17c0.45,0.12,0.87,0.34,1.26,0.67
		c0.39,0.33,0.69,0.83,0.89,1.49c0.2,0.66,0.3,1.48,0.3,2.47c0,1.39-0.19,2.43-0.56,3.14c-0.37,0.7-0.9,1.18-1.59,1.44l2.48,6.7
		h-2.46l-2.1-6.44H171.88z M171.88,64.37h1.65c0.73,0,1.26-0.2,1.6-0.59c0.34-0.39,0.51-1.16,0.51-2.3c0-1.14-0.17-1.9-0.51-2.29
		c-0.34-0.38-0.87-0.58-1.6-0.58h-1.65V64.37z"/>
	<path fill="#dab24f" d="M182.44,56.68l2.89,7.92l1.44,4.11l-0.06-4.44v-7.59h2.04v16.09h-2.47l-2.91-7.92l-1.42-4.11l0.04,4.44
		l0.02,7.59h-2.06V56.68H182.44z"/>
	<path fill="#dab24f" d="M193.4,56.51h3.28l3.07,16.26h-2.21l-0.56-3.18h-3.88l-0.56,3.18h-2.21L193.4,56.51z M195.05,58.47
		l-1.63,9.3h3.24L195.05,58.47z"/>
	<path fill="#dab24f" d="M204.85,58.62v14.15h-2.17V58.62h-2.97v-1.94h8.11v1.94H204.85z"/>
	<path fill="#dab24f" d="M211.67,56.68v16.09h-2.19V56.68H211.67z"/>
	<path fill="#dab24f" d="M214.79,71.15c-0.63-1.23-0.95-3.37-0.95-6.43c0-3.05,0.32-5.19,0.95-6.43c0.63-1.23,1.84-1.85,3.63-1.85
		c1.79,0,3,0.62,3.63,1.85c0.63,1.23,0.95,3.37,0.95,6.43c0,3.05-0.32,5.2-0.95,6.43c-0.63,1.23-1.84,1.85-3.63,1.85
		C216.63,73,215.42,72.38,214.79,71.15z M220.32,69.73c0.32-0.9,0.47-2.57,0.47-5s-0.16-4.1-0.47-5c-0.32-0.9-0.95-1.35-1.9-1.35
		c-0.96,0-1.6,0.45-1.91,1.34c-0.31,0.9-0.46,2.57-0.46,5.01c0,2.45,0.16,4.12,0.46,5.01c0.31,0.89,0.95,1.34,1.91,1.34
		C219.37,71.08,220,70.63,220.32,69.73z"/>
	<path fill="#dab24f" d="M227.56,56.68l2.89,7.92l1.44,4.11l-0.06-4.44v-7.59h2.04v16.09h-2.48l-2.91-7.92l-1.42-4.11l0.04,4.44
		l0.02,7.59h-2.06V56.68H227.56z"/>
	<path fill="#dab24f" d="M238.51,56.51h3.28l3.07,16.26h-2.21l-0.56-3.18h-3.88l-0.56,3.18h-2.21L238.51,56.51z M240.17,58.47
		l-1.63,9.3h3.24L240.17,58.47z"/>
	<path fill="#dab24f" d="M248.62,56.68v14.15h4.54v1.94h-6.7V56.68H248.62z"/>
	<path fill="#dab24f" d="M260.47,66.66v6.11h-2.19V56.68h3.98c1.29,0,2.3,0.36,3.01,1.08c0.72,0.72,1.07,2.02,1.07,3.89
		c0,0.99-0.1,1.82-0.3,2.5c-0.2,0.67-0.49,1.19-0.88,1.55c-0.39,0.36-0.8,0.61-1.26,0.75c-0.45,0.14-0.99,0.22-1.61,0.22H260.47z
		 M260.47,64.7h1.69c0.69,0,1.19-0.22,1.51-0.67c0.32-0.45,0.48-1.24,0.48-2.38c0-1.11-0.16-1.9-0.48-2.35
		c-0.32-0.45-0.82-0.68-1.51-0.68h-1.69V64.7z"/>
	<path fill="#dab24f" d="M268.16,56.68h7.12v1.94h-4.95v4.95h4.21v1.92h-4.21v5.34h5.28v1.94h-7.45V56.68z"/>
	<path fill="#dab24f" d="M279.82,56.51h3.28l3.07,16.26h-2.21l-0.56-3.18h-3.88l-0.56,3.18h-2.21L279.82,56.51z M281.47,58.47
		l-1.63,9.3h3.24L281.47,58.47z"/>
	<path fill="#dab24f" d="M290.01,59.79c-0.33,0.95-0.5,2.59-0.5,4.93c0,2.34,0.17,3.98,0.5,4.93c0.33,0.95,0.99,1.42,1.98,1.42
		c0.85,0,1.43-0.22,1.72-0.66c0.3-0.44,0.45-1.24,0.46-2.41l2.17,0.29c-0.01,1.66-0.32,2.86-0.93,3.6c-0.61,0.74-1.73,1.1-3.36,1.1
		c-1.72,0-2.94-0.61-3.66-1.82c-0.72-1.22-1.08-3.37-1.08-6.45c0-3.08,0.36-5.23,1.08-6.45c0.72-1.22,1.94-1.82,3.66-1.82
		c1.64,0,2.76,0.37,3.36,1.1c0.6,0.74,0.91,1.94,0.93,3.6l-2.17,0.29c-0.01-1.17-0.17-1.97-0.46-2.41c-0.3-0.44-0.87-0.66-1.72-0.66
		C291,58.37,290.34,58.84,290.01,59.79z"/>
	<path fill="#dab24f" d="M298.24,56.68h7.12v1.94h-4.95v4.95h4.21v1.92h-4.21v5.34h5.28v1.94h-7.45V56.68z"/>
	<path fill="#dab24f" d="M314.81,71.1c0.85,0,1.47-0.2,1.85-0.6c0.38-0.4,0.57-1.07,0.57-2.02c0-0.92-0.18-1.57-0.55-1.94
		c-0.36-0.37-1.06-0.7-2.09-0.99c-0.56-0.15-1.03-0.31-1.4-0.48c-0.37-0.17-0.75-0.42-1.12-0.75c-0.38-0.33-0.66-0.77-0.85-1.33
		c-0.19-0.56-0.28-1.23-0.28-2.01c0-1.58,0.33-2.74,0.98-3.47c0.65-0.73,1.76-1.09,3.31-1.09c0.7,0,1.3,0.08,1.78,0.24
		c0.49,0.16,0.87,0.36,1.15,0.61c0.27,0.25,0.49,0.59,0.65,1.02c0.16,0.43,0.26,0.86,0.31,1.28c0.05,0.42,0.07,0.94,0.07,1.56
		l-2.12,0.29c0-0.54-0.02-0.96-0.05-1.28c-0.03-0.32-0.11-0.63-0.24-0.93c-0.12-0.3-0.32-0.52-0.58-0.65
		c-0.26-0.13-0.61-0.2-1.03-0.2c-0.7,0-1.22,0.2-1.55,0.6c-0.33,0.4-0.5,1.05-0.5,1.96c0,0.88,0.16,1.49,0.48,1.82
		c0.32,0.33,0.96,0.61,1.92,0.85c0.65,0.15,1.18,0.32,1.6,0.51c0.42,0.19,0.82,0.45,1.19,0.8c0.37,0.35,0.64,0.81,0.81,1.37
		c0.17,0.56,0.26,1.27,0.28,2.1c0,1.67-0.38,2.86-1.12,3.59c-0.75,0.73-1.92,1.09-3.5,1.09c-0.85,0-1.56-0.1-2.11-0.3
		c-0.56-0.2-0.98-0.52-1.28-0.95c-0.3-0.43-0.5-0.93-0.62-1.47c-0.12-0.55-0.18-1.24-0.18-2.06l2.1-0.27
		c0.01,1.13,0.16,1.93,0.42,2.4C313.37,70.86,313.94,71.1,314.81,71.1z"/>
	<path fill="#dab24f" d="M325.59,58.62v14.15h-2.17V58.62h-2.97v-1.94h8.11v1.94H325.59z"/>
	<path fill="#dab24f" d="M332.64,70.54c0.27,0.37,0.84,0.56,1.72,0.56c0.88,0,1.45-0.19,1.72-0.56c0.27-0.37,0.4-1.02,0.4-1.96v-11.9
		h2.19v11.99c0,1.54-0.3,2.65-0.89,3.34c-0.59,0.69-1.73,1.03-3.42,1.03c-1.69,0-2.83-0.34-3.42-1.03c-0.59-0.69-0.89-1.8-0.89-3.34
		V56.68h2.19v11.9C332.24,69.52,332.37,70.17,332.64,70.54z"/>
	<path fill="#dab24f" d="M344.51,72.77h-3.61V56.68h3.61c1.1,0,2,0.12,2.68,0.37c0.69,0.25,1.25,0.69,1.69,1.32
		c0.44,0.63,0.75,1.45,0.92,2.45c0.17,1,0.26,2.3,0.26,3.9c0,1.6-0.09,2.89-0.26,3.9c-0.17,1-0.48,1.82-0.92,2.45
		c-0.44,0.63-1,1.07-1.69,1.32C346.51,72.64,345.61,72.77,344.51,72.77z M343.09,70.83h1.57c0.56,0,1.03-0.07,1.41-0.22
		c0.38-0.15,0.69-0.35,0.94-0.62c0.25-0.27,0.43-0.66,0.56-1.19c0.12-0.52,0.21-1.09,0.25-1.7c0.04-0.61,0.06-1.41,0.06-2.38
		c0-0.98-0.02-1.77-0.06-2.38c-0.04-0.61-0.12-1.18-0.25-1.7c-0.12-0.52-0.31-0.92-0.56-1.19c-0.25-0.27-0.56-0.48-0.94-0.62
		c-0.38-0.14-0.85-0.22-1.41-0.22h-1.57V70.83z"/>
	<path fill="#dab24f" d="M354.44,56.68v16.09h-2.19V56.68H354.44z"/>
	<path fill="#dab24f" d="M357.68,56.68h7.12v1.94h-4.95v4.95h4.21v1.92h-4.21v5.34h5.28v1.94h-7.45V56.68z"/>
	<path fill="#dab24f" d="M370.71,71.1c0.85,0,1.47-0.2,1.85-0.6c0.38-0.4,0.57-1.07,0.57-2.02c0-0.92-0.18-1.57-0.55-1.94
		c-0.36-0.37-1.06-0.7-2.09-0.99c-0.56-0.15-1.03-0.31-1.4-0.48c-0.37-0.17-0.75-0.42-1.12-0.75c-0.38-0.33-0.66-0.77-0.85-1.33
		c-0.19-0.56-0.28-1.23-0.28-2.01c0-1.58,0.33-2.74,0.98-3.47c0.65-0.73,1.76-1.09,3.31-1.09c0.7,0,1.3,0.08,1.78,0.24
		c0.49,0.16,0.87,0.36,1.15,0.61c0.27,0.25,0.49,0.59,0.65,1.02c0.16,0.43,0.26,0.86,0.31,1.28c0.05,0.42,0.07,0.94,0.07,1.56
		l-2.12,0.29c0-0.54-0.02-0.96-0.05-1.28c-0.03-0.32-0.11-0.63-0.24-0.93c-0.12-0.3-0.32-0.52-0.58-0.65
		c-0.26-0.13-0.61-0.2-1.03-0.2c-0.7,0-1.22,0.2-1.55,0.6c-0.33,0.4-0.5,1.05-0.5,1.96c0,0.88,0.16,1.49,0.48,1.82
		c0.32,0.33,0.96,0.61,1.92,0.85c0.65,0.15,1.18,0.32,1.6,0.51c0.42,0.19,0.82,0.45,1.19,0.8c0.37,0.35,0.64,0.81,0.81,1.37
		c0.17,0.56,0.26,1.27,0.28,2.1c0,1.67-0.38,2.86-1.12,3.59c-0.75,0.73-1.92,1.09-3.5,1.09c-0.85,0-1.56-0.1-2.11-0.3
		c-0.56-0.2-0.98-0.52-1.28-0.95c-0.3-0.43-0.5-0.93-0.62-1.47c-0.12-0.55-0.18-1.24-0.18-2.06l2.1-0.27
		c0.01,1.13,0.16,1.93,0.42,2.4C369.28,70.86,369.85,71.1,370.71,71.1z"/>
	<rect x="85.34" y="6.59" fill="#dab24f" width="4.31" height="66.28"/>
	<path fill="#FFFFFF" d="M5.65,6.53H72v66.35H42.09c5.3-3.42,9.12-8.66,10.82-14.62c-0.74,1.73-4.36,9.41-10.11,8.89
		c1-2.17,1.75-4.43,2.25-6.74c3.24-1.97,7.47-2.43,7.96-2.48c0.5-1.85,0.8-3.77,0.87-5.72c0.27-2.84,0.05-5.76-0.73-8.68
		c-2.15-8.01-8.03-14.02-15.28-16.66c1.53,2.14,3.29,5.51,1.98,8.42c-1.36-1.93-2.93-3.69-4.69-5.26c0.02-1.47,0.27-2.86,0.5-3.85
		c-2.64-0.69-5.41-0.94-8.22-0.7c7.78,3.93,13.92,11.04,16.36,20.13c2.62,9.79,0.37,19.73-5.26,27.26h-3.25L36,71.97
		c1.25-1.57,2.33-3.28,3.23-5.07c-6.63-0.46-8.5-11.03-8.5-11.03s8.46,2.41,9.89,7.8c0.83-2.32,1.37-4.74,1.6-7.24
		c-7.11,1-10.48-9.98-10.48-9.98s7.98,1.25,10.56,5.89c-0.1-2.01-0.42-4.04-1.03-6.31c-6.46,2.25-11.23-7.51-11.23-7.51
		s6.11-0.01,9.51,2.85c-0.73-1.54-1.58-3-2.54-4.37c-5.62,3.22-11.14-5.28-11.14-5.28s3.9-0.48,7.12,0.69
		c-2.64-2.44-5.71-4.37-9.04-5.7l-1.49-0.58c-0.15,0.03-0.05-0.01-1,0.25c-6.97,1.87-12.5,6.42-15.78,12.25V6.53z M34.3,72.88h-0.9
		c-3.36-1.54-6.26-3.63-8.68-6.11c2.18-1.45,4.58-2.51,7.09-3.15L34.3,72.88z M28.05,72.88h-8.18l-1.05-0.43
		c1.12-1.54,2.4-2.91,3.81-4.1C24.23,70.03,26.04,71.55,28.05,72.88 M14.13,72.88H5.65v-8.99C7.74,67.59,10.67,70.64,14.13,72.88
		 M5.36,55.72c0,0-0.4-1.04-0.4-5.02c0-3.01,0.69-5.15,0.69-5.15c0.58-2.27,1.5-4.44,2.72-6.42c1.93,0.84,3.91,1.43,5.91,1.77
		c-0.71,4.13-0.59,8.34,0.31,12.36L5.36,55.72z M52.26,44.31c0,0-1.25,8.84-6.55,10.53c0.07-2.12-0.08-4.26-0.45-6.4
		C48.01,45.68,52.26,44.31,52.26,44.31 M45.87,32.65c0,0,2.11,7.9-1.73,11.27c-0.65-2.03-1.5-3.96-2.5-5.77
		C43.08,35.07,45.87,32.65,45.87,32.65 M9.89,36.95c2.17-2.76,4.97-5.04,8.26-6.61c-1.51,2.57-2.61,5.26-3.32,8.01
		C13.16,38.08,11.51,37.61,9.89,36.95 M15.26,55.79c1.18,3.82,3.08,7.43,5.64,10.6c-1.65,1.4-3.15,3.03-4.44,4.87
		c-4.82-2.8-8.63-7.32-10.43-12.99L15.26,55.79z M24.9,37.81c-2.41,0.67-4.93,0.96-7.45,0.83c0.94-3.42,2.53-6.75,5.04-9.85
		L24.9,37.81z M28.08,49.66L17.11,52.6c-0.81-3.71-0.91-7.58-0.24-11.38c2.95,0.2,5.89-0.11,8.71-0.89L28.08,49.66z M31.14,61.1
		c-2.9,0.75-5.67,2-8.17,3.71c-2.35-2.89-4.1-6.19-5.2-9.69l10.97-2.94L31.14,61.1z"/>
</g>
</svg>
