<?xml version="1.0" encoding="utf-8"?>
<!-- Generator: Adobe Illustrator 25.0.0, SVG Export Plug-In . SVG Version: 6.00 Build 0)  -->
<svg version="1.1" id="Layer_1" xmlns="http://www.w3.org/2000/svg" xmlns:xlink="http://www.w3.org/1999/xlink" x="0px" y="0px"
	 viewBox="0 0 424 167.2" style="enable-background:new 0 0 424 167.2;" xml:space="preserve">
<style type="text/css">
	.st0{fill:#BDA05E;}
	.st1{fill:#FFFFFF;}
</style>
<g>
	<g>
		<g>
			<path class="st0" d="M115.4,99.2l-14.9,14.9c1.8,1.5,3.4,3.3,4.7,5.2l15.1-15.1C118.5,102.8,116.8,101.1,115.4,99.2z"/>
			<path class="st0" d="M66.7,147.6L47,167.2h9.8l14.9-14.9C69.9,151,68.1,149.4,66.7,147.6z"/>
			<path class="st0" d="M68.4,54.3c-1-1-1.9-2-2.6-3.1L0,117.4h9.8l60.8-61.2C69.8,55.6,69.1,55,68.4,54.3z"/>
			<path class="st0" d="M81.8,61.1V109c2.3-0.4,4.7-0.3,7,0V61.1C86.5,61.4,84.1,61.4,81.8,61.1z"/>
			<path class="st0" d="M100,56.6l14.8,13.1c1.3-1.9,2.9-3.6,4.7-5.1l-14.7-12.9C103.5,53.5,101.8,55.2,100,56.6z"/>
			<path class="st0" d="M104.3,22.9L125.5,0h-9.6L99.3,18C101.2,19.4,102.9,21.1,104.3,22.9z"/>
			<path class="st0" d="M96.6,115.6c-9.6-6.7-25-3.1-29.7,7.9c-8.2,18,9.9,35.6,27.5,27.5C108.7,144.6,109.4,123.6,96.6,115.6z
				 M94.8,142.1c-5.8,6.2-17.8,4.9-21.5-3.1c-5.9-13.1,6.8-24,18.4-18.4C100.6,125,100.3,137.2,94.8,142.1z"/>
			<path class="st0" d="M85.3,57.8c18.7,0.2,27.1-22,14.5-34.9c-9.3-9.8-27.4-7.2-32.9,5.3C60.4,42,70.4,57.9,85.3,57.8z M75.8,27.9
				c5.5-6,17.7-5.1,21.5,3.1c6,13.2-7,24-18.4,18.4C70,45,70.3,32.8,75.8,27.9z"/>
			<path class="st0" d="M129.8,0v62.9c-21.1,6.2-21.1,36,0,42.2v62.1h7V0H129.8z M120.8,84c0-6,3.5-11.3,9-13.7v27.4
				C124.4,95.4,120.8,89.9,120.8,84z"/>
		</g>
	</g>
	<g>
		<path class="st1" d="M161.3,52.5V25.8h6.5v21h10.3v5.6H161.3z"/>
		<path class="st1" d="M192.5,52.5v-2.6h-0.1c-2.7,4.9-11,3.8-12.1-1.7c-0.7-1.9-0.2-12.3-0.4-14.4h6.2v10.2c-0.1,1.8,0.5,4.1,2.8,4
			c2.2,0.1,3.3-2,3.3-4c0,0,0-10.1,0-10.1h6.2v18.7H192.5z"/>
		<path class="st1" d="M216,39.8c-2.8-3.3-7.7-0.8-7.6,3.3c-0.2,4.2,4.8,6.4,7.8,3.4l3.4,4.2c-6.3,5.4-17.8,1.5-17.5-7.6
			c-0.4-9,11.2-13,17.5-7.4L216,39.8z"/>
		<path class="st1" d="M232.4,55.3c-1.8,5.5-6.2,7.1-11.6,5.8l0.7-5.2c3.9,1.1,4.6-0.4,5.8-3.7l-7.8-18.4h6.8l4.2,12h0.1l3.7-12h6.5
			L232.4,55.3z"/>
		<path class="st1" d="M259,31.3v5.5h10.3v5.3H259v10.3h-6.4V25.8h17.5v5.5H259z"/>
		<path class="st1" d="M271.7,36.3c3.7-3.6,11.3-4.7,15-0.8c1.6,2.1,1.9,4.6,2,7.5c0,0,0,9.4,0,9.4h-5.6v-2h-0.1
			c-1.5,2.4-5,2.8-7.6,2.1c-3.9-0.7-5.9-5.8-3.4-8.8c2.6-2.9,7.3-3,10.9-3c0.1-4.3-6-3.3-8-1.1L271.7,36.3z M283.1,44.3
			c-2,0.1-4.5-0.1-6,1.2c-0.8,0.7-0.7,2.3,0.3,2.8c1.4,0.8,3.7,0.4,4.7-0.6C282.9,47,283.1,45.6,283.1,44.3z"/>
		<path class="st1" d="M317.1,52.5V42.2c0.1-1.8-0.5-4-2.7-4c-2.1,0-3.2,2.2-3.1,4.1c0,0,0,10.1,0,10.1h-6.2V41.8
			c0-1.9-0.6-3.5-2.7-3.5c-2.1,0-3.1,2-3.1,4c0,0,0,10.2,0,10.2h-6.2V33.7h6v2.6h0.1c2.2-4.1,9.3-4.2,11.2,0.1
			c2.9-4.9,11.2-4.1,12.4,1.8c0.7,1.8,0.2,12.2,0.4,14.3H317.1z"/>
		<path class="st1" d="M334.5,27.8c-0.1,4.5-7,4.5-7.1,0C327.5,23.3,334.4,23.3,334.5,27.8z M327.8,52.5V33.7h6.2v18.7H327.8z"/>
		<path class="st1" d="M338.8,52.5V24h6.3v28.4H338.8z"/>
		<path class="st1" d="M360.4,55.3c-1.8,5.5-6.2,7.1-11.6,5.8l0.7-5.2c3.9,1.1,4.6-0.4,5.8-3.7l-7.8-18.4h6.8l4.2,12h0.1l3.7-12h6.5
			L360.4,55.3z"/>
		<path class="st1" d="M161.3,97.6V71h6.5v26.6H161.3z"/>
		<path class="st1" d="M185.1,97.6V87.4c0-1.8-0.6-4.1-2.8-4c-2.2-0.1-3.4,2.1-3.3,4c0,0,0,10.2,0,10.2h-6.2V78.9h6v2.6h0.1
			c2.7-4.9,11-3.8,12.1,1.8c0.7,1.9,0.2,12.3,0.4,14.4H185.1z"/>
		<path class="st1" d="M206.8,84.4c-1.4-1.3-3.7-2.2-5.5-1.4c-1,0.4-1,1.9,0.1,2.3c3.3,1.1,8.7,1.6,8.6,6.5
			c-0.2,7.9-11.8,7.8-16.2,3.5l3.5-3.6c1.4,1.5,4,2.7,6.1,1.7c1-0.5,1-2.1-0.2-2.5c-3.2-1.2-8.3-1.5-8.3-6.3
			c0.2-7.4,11.1-7.8,15.3-3.6L206.8,84.4z"/>
		<path class="st1" d="M220.1,83.5v7.2c-0.1,2.7,2,3.1,4.1,2.3l0.1,4.5c-3.5,1.1-8.9,0.9-9.9-3.4c-0.6-1.8-0.2-8.7-0.3-10.7h-3v-4.6
			h3V74h6.1v4.9h4.4v4.6H220.1z"/>
		<path class="st1" d="M233.9,72.9c-0.1,4.5-7,4.5-7.1,0C226.9,68.5,233.9,68.4,233.9,72.9z M227.3,97.6V78.9h6.2v18.7H227.3z"/>
		<path class="st1" d="M244.9,83.5v7.2c-0.1,2.7,2,3.1,4.1,2.3l0.1,4.5c-3.5,1.1-8.9,0.9-9.9-3.4c-0.6-1.8-0.2-8.7-0.3-10.7h-3v-4.6
			h3V74h6.1v4.9h4.4v4.6H244.9z"/>
		<path class="st1" d="M264.4,97.6V95h-0.1c-2.7,4.9-11,3.8-12.1-1.7c-0.7-1.9-0.2-12.3-0.4-14.4h6.2V89c-0.1,1.8,0.5,4.1,2.8,4
			c2.2,0.1,3.3-2,3.3-4c0,0,0-10.1,0-10.1h6.2v18.7H264.4z"/>
		<path class="st1" d="M281.7,83.5v7.2c-0.1,2.7,2,3.1,4.1,2.3l0.1,4.5c-3.5,1.1-8.9,0.9-9.9-3.4c-0.6-1.8-0.2-8.7-0.3-10.7h-3v-4.6
			h3V74h6.1v4.9h4.4v4.6H281.7z"/>
		<path class="st1" d="M307.4,88.5c0,0.5,0,1,0,1.5h-13.6c0.5,4,6.6,4.7,8.6,1.6l4.3,2.7c-2.6,3.9-8.2,4.8-12.5,3.3
			c-5.5-1.6-7.7-8.4-5.5-13.4c1.9-5,8.3-7.1,13.1-5.2C305.7,80.5,307.5,84.4,307.4,88.5z M301.8,86.1c0.1-5-7.6-4.6-7.9,0H301.8z"/>
		<path class="st1" d="M332,73.7c-4.3-1.2-4.6,1.8-4.4,5.2h4.2v4.6h-4.2v14.1h-6.2V83.5H318v-4.6h3.4c0-1.6,0-3.6,0.4-5.1
			c0.9-4.7,6.4-6.1,10.6-4.9L332,73.7z"/>
		<path class="st1" d="M353.8,88.2c0.3,7.5-7.9,11.9-14.4,9.3c-8.4-2.9-8.5-15.8,0-18.5C345.9,76.5,354.1,80.7,353.8,88.2z
			 M347.8,88.2c0-6.3-8.9-6.4-8.9,0C339,94.6,347.9,94.6,347.8,88.2z"/>
		<path class="st1" d="M369.7,84c-2.9-0.9-6,1-6,4.1c0,0,0,9.6,0,9.6h-6.2V78.9h5.9v2.7h0.1c1.1-2.4,3.8-3.8,6.4-3.1L369.7,84z"/>
		<path class="st1" d="M186.1,129.4c0.2,6.2-3.8,11-9.5,12.6c-3.5,1.2-11.6,0.6-15.3,0.8v-26.6c3.8,0.1,11.6-0.4,15.2,0.7
			C182.5,118.1,186.3,123,186.1,129.4z M179.5,129.4c0-7.4-6.1-8-11.9-7.8v15.6C173.4,137.5,179.4,136.7,179.5,129.4z"/>
		<path class="st1" d="M189.6,126.6c3.7-3.6,11.3-4.7,15-0.8c1.6,2.1,1.9,4.6,2,7.5c0,0,0,9.4,0,9.4H201v-2h-0.1
			c-1.5,2.4-5,2.8-7.6,2.1c-3.9-0.7-5.9-5.8-3.4-8.8c2.6-2.9,7.3-3,10.9-3c0.1-4.3-6-3.3-8-1.1L189.6,126.6z M201,134.6
			c-2,0.1-4.5-0.1-6,1.2c-0.8,0.7-0.7,2.3,0.3,2.8c1.4,0.8,3.7,0.4,4.7-0.6C200.8,137.3,201,135.9,201,134.6z"/>
		<path class="st1" d="M217.4,128.6v7.2c-0.1,2.7,2,3.1,4.1,2.3l0.1,4.5c-3.5,1.1-8.9,0.9-9.9-3.4c-0.6-1.8-0.2-8.7-0.3-10.7h-3V124
			h3v-4.9h6.1v4.9h4.4v4.6H217.4z"/>
		<path class="st1" d="M224.3,126.6c3.7-3.6,11.3-4.7,15-0.8c1.6,2.1,1.9,4.6,2,7.5c0,0,0,9.4,0,9.4h-5.6v-2h-0.1
			c-1.5,2.4-5,2.8-7.6,2.1c-3.9-0.7-5.9-5.8-3.4-8.8c2.6-2.9,7.3-3,10.9-3c0.1-4.3-6-3.3-8-1.1L224.3,126.6z M235.6,134.6
			c-2,0.1-4.5-0.1-6,1.2c-0.8,0.7-0.7,2.3,0.3,2.8c1.4,0.8,3.7,0.4,4.7-0.6C235.4,137.3,235.7,135.9,235.6,134.6z"/>
		<path class="st1" d="M274.1,142.8l-2.5-2.6c-4,4.5-13.4,4.3-16.5-1.3c-2.3-4.4,0.3-9.2,4.8-10.9c-6.9-7,0.2-14.5,8.5-12.2
			c3.8,0.8,6.2,5,4.7,8.7c-0.9,2.2-2.9,3.6-4.9,4.6l3.3,3.4l2.7-4.1h6.8l-5.8,7.7l6.6,6.6H274.1z M263.2,131.5
			c-2.1,0.7-3.6,2.8-2.5,5c1.4,2.8,5.6,2.4,7.2-0.1L263.2,131.5z M267.9,122.4c0-1.4-1.1-2.5-2.5-2.4c-3.6,0.2-3,4.3-0.6,5.9
			C266.4,125.2,268,124.1,267.9,122.4z"/>
		<path class="st1" d="M307.8,123.1c-1.6-2-4.9-3-7.2-1.7c-1.1,0.6-1.6,2.2-1,3.3c1.6,1.8,4.4,2,6.6,3c3,1.1,5.6,3.5,5.5,7
			c0.1,10.3-14.5,11.1-20.2,5l4.2-4.3c1.9,2.4,7,4.3,9.1,1.3c1.1-2.2-0.8-3.8-2.9-4.4c-3.1-1.1-7.1-1.9-8.6-5.3
			c-1.4-3.2-0.3-7.6,2.7-9.5c4.7-3.1,11.6-2.5,15.8,1.3L307.8,123.1z"/>
		<path class="st1" d="M335.4,133.3c0.3,7.5-7.9,11.9-14.4,9.3c-8.4-2.9-8.5-15.8,0-18.5C327.4,121.6,335.6,125.8,335.4,133.3z
			 M329.4,133.3c0-6.3-8.9-6.4-8.9,0C320.5,139.8,329.4,139.8,329.4,133.3z"/>
		<path class="st1" d="M352.1,130.1c-2.8-3.3-7.7-0.8-7.6,3.3c-0.2,4.2,4.8,6.4,7.8,3.4l3.4,4.2c-6.3,5.4-17.8,1.5-17.5-7.6
			c-0.4-9,11.2-13,17.5-7.4L352.1,130.1z"/>
		<path class="st1" d="M364.6,118.1c-0.1,4.5-7,4.5-7.1,0C357.6,113.6,364.5,113.6,364.6,118.1z M358,142.8V124h6.2v18.7H358z"/>
		<path class="st1" d="M387.5,133.6c0,0.5,0,1,0,1.5h-13.6c0.5,4,6.6,4.7,8.6,1.6l4.3,2.7c-2.6,3.9-8.2,4.8-12.5,3.3
			c-5.5-1.6-7.7-8.4-5.5-13.4c1.9-5,8.3-7.1,13.1-5.2C385.7,125.6,387.5,129.5,387.5,133.6z M381.8,131.3c0.1-5-7.6-4.6-7.9,0H381.8
			z"/>
		<path class="st1" d="M397.8,128.6v7.2c-0.1,2.7,2,3.1,4.1,2.3l0.1,4.5c-3.5,1.1-8.9,0.9-9.9-3.4c-0.6-1.8-0.2-8.7-0.3-10.7h-3V124
			h3v-4.9h6.1v4.9h4.4v4.6H397.8z"/>
		<path class="st1" d="M415.6,145.6c-1.8,5.5-6.2,7.1-11.6,5.8l0.7-5.2c3.9,1.1,4.6-0.4,5.8-3.7l-7.8-18.4h6.8l4.2,12h0.1l3.7-12
			h6.5L415.6,145.6z"/>
	</g>
</g>
</svg>
