<?xml version="1.0" encoding="UTF-8"?> <svg xmlns="http://www.w3.org/2000/svg" xmlns:xlink="http://www.w3.org/1999/xlink" version="1.1" id="Layer_1" x="0px" y="0px" viewBox="0 0 255.1 68" style="enable-background:new 0 0 255.1 68;" xml:space="preserve"> <style type="text/css"> .st0{fill:#FFFFFF;} .st1{fill:#C7982C;} </style> <path class="st0" d="M73.4,39.9h12.5c1.2,0,2.2,0.2,3.1,0.5c0.9,0.3,1.7,0.8,2.4,1.5c0.7,0.7,1.2,1.5,1.5,2.5s0.5,2.2,0.5,3.6 c0,1.3-0.3,2.5-0.8,3.6c-0.5,1.1-1.2,2.1-2.2,3s-2.1,1.6-3.4,2.1s-2.8,0.8-4.5,0.8h-5.2l-1.6,7.6h-7.6L73.4,39.9L73.4,39.9z M78.6,51.5h3c1.6,0,2.6-0.3,3.2-0.8s0.9-1.2,0.9-2.1c0-0.5-0.1-0.9-0.3-1.2c-0.2-0.3-0.5-0.5-0.8-0.7s-0.7-0.3-1.1-0.3 s-0.8-0.1-1.2-0.1h-2.6L78.6,51.5L78.6,51.5z"></path> <path class="st0" d="M98.1,39.9h12.7c1.1,0,2.2,0.1,3.2,0.3c1,0.2,1.9,0.5,2.6,1c0.7,0.5,1.3,1.2,1.7,2c0.4,0.8,0.6,1.9,0.6,3.3 c0,1.8-0.5,3.4-1.6,4.6c-1.1,1.2-2.5,2-4.3,2.3v0.1c0.6,0.2,1,0.4,1.4,0.7c0.4,0.3,0.6,0.7,0.8,1.2c0.2,0.5,0.3,1,0.4,1.5 c0.1,0.6,0.1,1.1,0.1,1.7s0,1.2,0,1.8c0,0.6,0,1.2,0,1.7s0,1.1,0.1,1.6c0.1,0.5,0.2,0.9,0.3,1.3h-7.4c-0.1-0.3-0.2-0.7-0.3-1.1 s-0.1-0.8-0.1-1.4c0-0.6,0.1-1.3,0.2-2s0.2-1.4,0.2-2s-0.2-1.2-0.8-1.6c-0.5-0.4-1.3-0.7-2.4-0.7h-3.3l-1.8,8.8h-7.6L98.1,39.9 L98.1,39.9z M103.5,50.9h4.1c1.3,0,2.2-0.3,2.8-0.8s0.9-1.2,0.9-2c0-0.2,0-0.5-0.1-0.7c-0.1-0.3-0.2-0.5-0.4-0.7s-0.5-0.4-0.8-0.5 s-0.8-0.2-1.2-0.2h-4.2L103.5,50.9L103.5,50.9z"></path> <path class="st0" d="M121.7,48.7c0.7-1.8,1.6-3.5,2.9-4.9c1.2-1.4,2.7-2.5,4.5-3.3c1.7-0.8,3.7-1.2,5.8-1.2c1.8,0,3.4,0.2,4.8,0.7 c1.4,0.4,2.6,1.1,3.6,2c1,0.9,1.7,2,2.3,3.4c0.5,1.4,0.8,3,0.8,5c0,2.1-0.3,4.1-1,5.9c-0.7,1.8-1.6,3.5-2.9,4.9 c-1.2,1.4-2.7,2.5-4.4,3.3c-1.7,0.8-3.7,1.2-5.8,1.2c-1.8,0-3.4-0.2-4.8-0.7c-1.4-0.5-2.6-1.2-3.6-2.1c-1-0.9-1.7-2.1-2.3-3.4 c-0.5-1.4-0.8-3-0.8-4.8C120.7,52.5,121,50.6,121.7,48.7L121.7,48.7z M128.6,56.5c0.1,0.6,0.3,1,0.6,1.5c0.3,0.4,0.7,0.8,1.2,1 s1.1,0.4,1.9,0.4c1.1,0,2.1-0.3,2.9-0.9c0.8-0.6,1.4-1.4,1.9-2.3s0.8-1.9,1-3c0.2-1.1,0.3-2.1,0.3-3c0-0.6-0.1-1.1-0.2-1.7 c-0.1-0.6-0.3-1-0.6-1.5s-0.7-0.8-1.2-1c-0.5-0.3-1.1-0.4-1.9-0.4c-1.2,0-2.1,0.3-2.9,0.9c-0.8,0.6-1.4,1.4-1.9,2.3s-0.8,1.9-1,3 s-0.3,2.1-0.3,3C128.4,55.4,128.5,55.9,128.6,56.5L128.6,56.5z"></path> <path class="st0" d="M166.1,57c-0.5,2.9-1.6,5.1-3.3,6.5c-1.6,1.4-4,2.1-7.1,2.1c-1.6,0-2.9-0.2-4-0.6s-1.9-0.9-2.5-1.5 c-0.6-0.6-1.1-1.3-1.4-2.1c-0.3-0.8-0.4-1.6-0.4-2.4c0-0.6,0.1-1.3,0.2-2.2s0.3-1.7,0.5-2.4h6.9c-0.1,0.5-0.2,1-0.4,1.7 s-0.2,1.2-0.2,1.7c0,0.5,0.1,1,0.4,1.3c0.3,0.3,0.7,0.5,1.2,0.5c0.7,0,1.2-0.2,1.5-0.6c0.3-0.4,0.5-0.9,0.6-1.5l3.8-17.7h7.7 L166.1,57L166.1,57z"></path> <path class="st0" d="M173.8,39.9h20.8l-1.3,6.4h-13l-0.7,3.1h12.1l-1.2,6h-12.1l-0.7,3.1h13.3l-1.3,6.4h-21.1L173.8,39.9L173.8,39.9 z"></path> <path class="st0" d="M218.7,55.5c-0.1,0.4-0.2,1-0.4,1.6s-0.5,1.4-0.8,2.1c-0.4,0.8-0.9,1.5-1.5,2.3c-0.6,0.8-1.4,1.4-2.3,2 s-2.1,1.1-3.3,1.5c-1.3,0.4-2.8,0.6-4.5,0.6c-1.8,0-3.4-0.3-4.8-0.8s-2.5-1.3-3.4-2.4s-1.6-2.2-2-3.6s-0.7-2.9-0.7-4.6 c0-2,0.3-4,0.9-5.8s1.5-3.4,2.7-4.7s2.6-2.4,4.3-3.2s3.6-1.2,5.7-1.2c1.4,0,2.8,0.2,4,0.5c1.3,0.3,2.4,0.9,3.4,1.7 c1,0.8,1.8,1.8,2.4,3.1s0.9,2.9,0.9,4.7H212c0.1-1.2-0.2-2.1-0.8-2.8c-0.6-0.6-1.5-0.9-2.7-0.9c-1.1,0-2,0.3-2.7,0.8 c-0.7,0.6-1.3,1.2-1.8,2.1c-0.5,0.8-0.8,1.8-1,2.8s-0.3,1.9-0.3,2.8c0,0.5,0.1,1.1,0.1,1.7c0.1,0.6,0.3,1.2,0.6,1.7 c0.3,0.5,0.7,1,1.2,1.3c0.5,0.4,1.2,0.6,2.1,0.6c1.2,0,2.2-0.4,2.9-1.1c0.7-0.7,1.2-1.7,1.4-2.8L218.7,55.5L218.7,55.5z"></path> <path class="st0" d="M229.2,46.4h-7l1.3-6.4h21.7l-1.3,6.4h-7L233,65.1h-7.7L229.2,46.4L229.2,46.4z"></path> <path class="st0" d="M7.6,10.7h-7L2,4.2h21.7l-1.3,6.4h-7l-3.9,18.7H3.7C3.7,29.4,7.6,10.7,7.6,10.7z"></path> <path class="st0" d="M26.5,4.2h7.7L32.4,13h7.1l1.8-8.7H49l-5.2,25.1h-7.7l2.1-10h-7.1l-2.1,10h-7.7C21.2,29.4,26.5,4.2,26.5,4.2z"></path> <path class="st0" d="M53.2,4.2H74l-1.3,6.4h-13L59,13.8H71l-1.2,6H57.7L57,22.9h13.3L69,29.3h-21L53.2,4.2L53.2,4.2z"></path> <path class="st0" d="M89.8,4.2h7.7l-3.9,18.7h11.1l-1.3,6.4H84.5L89.8,4.2L89.8,4.2z"></path> <path class="st0" d="M111.2,4.2H132l-1.3,6.4h-13l-0.7,3.1h12.1l-1.2,6h-12.1l-0.7,3.1h13.3l-1.3,6.4H106L111.2,4.2L111.2,4.2z"></path> <path class="st0" d="M149.5,26.9L149.5,26.9c-0.9,1-1.9,1.8-3.1,2.3c-1.2,0.5-2.4,0.7-3.8,0.7c-1.5,0-2.7-0.2-3.8-0.6 s-2-0.9-2.8-1.5c-0.8-0.6-1.4-1.3-1.9-2.1c-0.5-0.8-0.8-1.5-1.1-2.3s-0.4-1.5-0.5-2.3s-0.1-1.3-0.1-1.9c0-2,0.3-3.9,0.9-5.8 s1.4-3.6,2.6-5c1.2-1.5,2.7-2.7,4.5-3.5s3.9-1.3,6.4-1.3c1.4,0,2.7,0.2,4,0.5c1.3,0.4,2.4,0.9,3.3,1.7s1.7,1.7,2.2,2.9 c0.6,1.2,0.8,2.6,0.9,4.2h-7.3c-0.1-1.2-0.5-2-1.1-2.5c-0.6-0.5-1.4-0.7-2.4-0.7c-1.1,0-2,0.3-2.8,0.8c-0.8,0.5-1.4,1.2-1.9,2 c-0.5,0.8-0.9,1.8-1.1,2.8s-0.4,2.1-0.4,3.2c0,1.5,0.3,2.7,1,3.6c0.7,0.9,1.8,1.3,3.4,1.3c1.1,0,2-0.2,2.8-0.6s1.4-1.1,1.8-2.2h-3.5 l1.1-5.4h10.3l-2.9,13.8h-4.9L149.5,26.9L149.5,26.9z"></path> <path class="st0" d="M170.3,4.2h7.6l3.9,25.1h-7.6l-0.4-3.6h-8.2l-1.9,3.6h-7.9L170.3,4.2L170.3,4.2z M168.4,20.4h4.8l-0.8-7.5h-0.1 L168.4,20.4z"></path> <path class="st0" d="M208.9,19.8c-0.1,0.4-0.2,1-0.4,1.6s-0.5,1.4-0.8,2.1c-0.4,0.8-0.9,1.5-1.5,2.3c-0.6,0.8-1.4,1.4-2.3,2 c-0.9,0.6-2.1,1.1-3.3,1.5c-1.3,0.4-2.8,0.6-4.5,0.6c-1.8,0-3.4-0.3-4.8-0.8s-2.5-1.3-3.4-2.4c-0.9-1-1.6-2.2-2-3.6 s-0.7-2.9-0.7-4.6c0-2,0.3-4,0.9-5.8s1.5-3.4,2.7-4.7s2.6-2.4,4.3-3.2s3.6-1.2,5.7-1.2c1.4,0,2.8,0.2,4,0.5s2.4,0.9,3.4,1.7 s1.8,1.8,2.4,3.1s0.9,2.9,0.9,4.7h-7.3c0.1-1.2-0.2-2.1-0.8-2.8c-0.6-0.6-1.5-1-2.7-1c-1.1,0-2,0.3-2.7,0.8 c-0.7,0.5-1.3,1.2-1.8,2.1c-0.5,0.8-0.8,1.8-1,2.8s-0.3,1.9-0.3,2.8c0,0.5,0.1,1.1,0.1,1.7s0.3,1.2,0.6,1.7s0.7,1,1.2,1.3 c0.5,0.4,1.2,0.5,2.1,0.5c1.2,0,2.2-0.4,2.9-1.1s1.2-1.7,1.4-2.8L208.9,19.8L208.9,19.8z"></path> <path class="st0" d="M217.8,20.1l-5.4-15.9h7.8l2.4,9.4l6.1-9.4h9.1l-12.2,15.8l-1.9,9.3h-7.7L217.8,20.1L217.8,20.1z"></path> <path class="st1" d="M58.9,41.6c0.4-0.2,0.8-0.5,0.9-0.9c0.1-0.2,0.1-0.3,0.1-0.5c0.1-0.7,0.3-1.4,0.4-2.1c0,0,0-0.1,0-0.1 c0.1-1-0.6-1.9-1.5-2.1c-0.4-0.1-0.9,0-1.3,0.1c-0.3,0-0.6,0.1-0.9,0.3c-0.4,0.3-0.7,0.7-0.8,1.1c-0.1,0.5,0,0.9,0.2,1.4 c0.2,0.6,0.5,1.2,0.7,1.8C57.1,41.5,58,41.9,58.9,41.6"></path> <path class="st1" d="M52.8,63.7c0.3-0.6,0.5-1.3,0.8-1.9c0.1-0.3,0.2-0.6,0.2-0.9c-0.1-0.6-0.4-1-0.9-1.3c-0.4-0.2-1-0.2-1.4,0 c-0.2,0.1-0.3,0.2-0.4,0.2c-0.6,0.4-1.2,0.8-1.8,1.2c0,0-0.1,0-0.1,0.1c-0.7,0.6-0.9,1.6-0.5,2.4c0.2,0.4,0.6,0.7,1,1 c0.2,0.1,0.4,0.3,0.6,0.4c0.4,0.2,0.9,0.2,1.4,0.1C52.3,64.7,52.6,64.2,52.8,63.7"></path> <path class="st1" d="M48.4,54.7c0.8-0.4,1.3-1.3,0.9-2.1c-0.2-0.4-0.5-0.8-0.9-0.9c-0.2-0.1-0.3-0.1-0.5-0.1 c-0.7-0.1-1.4-0.3-2.1-0.4c0,0-0.1,0-0.1,0c-1-0.1-1.9,0.6-2.1,1.5c-0.1,0.4,0,0.9,0.1,1.3c0,0.3,0.1,0.6,0.3,0.9 c0.3,0.4,0.7,0.7,1.1,0.8c0.5,0.1,1,0,1.4-0.2C47.1,55.2,47.8,54.9,48.4,54.7"></path> <path class="st1" d="M51.8,45.2c0.2-0.4,0.2-1,0-1.4c-0.1-0.2-0.2-0.3-0.2-0.4c-0.4-0.6-0.8-1.2-1.2-1.8c0,0,0-0.1-0.1-0.1 c-0.6-0.7-1.6-0.9-2.4-0.5c-0.4,0.2-0.7,0.6-1,1c-0.1,0.2-0.3,0.4-0.4,0.6c-0.2,0.4-0.2,0.9,0,1.4c0.2,0.6,0.6,0.9,1.2,1.2 c0.6,0.3,1.3,0.5,1.9,0.8c0.3,0.1,0.6,0.2,0.9,0.2C51.1,46,51.5,45.7,51.8,45.2"></path> <path class="st1" d="M238,32.1c0.4-0.1,0.8-0.4,1.1-0.8c0.1-0.2,0.1-0.3,0.2-0.5c0.2-0.7,0.5-1.4,0.7-2.1c0,0,0-0.1,0-0.1 c0.2-1-0.4-2-1.4-2.3c-0.4-0.1-0.9-0.1-1.4-0.1c-0.4,0-0.7,0.1-1,0.2c-0.5,0.2-0.8,0.6-1,1.1c-0.2,0.5-0.1,1,0,1.5 c0.2,0.7,0.4,1.3,0.6,2C236.2,31.7,237.1,32.3,238,32.1"></path> <path class="st1" d="M246,31.2c-0.4,0.6-0.7,1.3-1,1.9c-0.2,0.3-0.3,0.6-0.3,0.9c0,0.6,0.3,1.1,0.8,1.4c0.4,0.3,1,0.4,1.5,0.2 c0.2-0.1,0.3-0.1,0.5-0.2c0.7-0.3,1.3-0.7,2-1c0,0,0.1,0,0.1-0.1c0.8-0.5,1.1-1.6,0.8-2.4c-0.2-0.5-0.6-0.8-0.9-1.2 c-0.2-0.2-0.3-0.3-0.5-0.5c-0.5-0.2-1-0.3-1.4-0.2C246.7,30.3,246.3,30.7,246,31.2"></path> <path class="st1" d="M254.3,43.9c0.1-0.4,0.1-0.9,0.1-1.4c0-0.3-0.1-0.7-0.2-1c-0.2-0.5-0.6-0.8-1.1-1c-0.5-0.2-1-0.1-1.5,0 c-0.7,0.2-1.3,0.4-2,0.6c-0.9,0.3-1.5,1.2-1.2,2.1c0.1,0.4,0.4,0.8,0.8,1.1c0.2,0.1,0.3,0.2,0.5,0.2c0.7,0.2,1.4,0.5,2.1,0.7 c0,0,0.1,0,0.1,0C253,45.5,254,44.9,254.3,43.9"></path> <path class="st1" d="M245.2,50.5c-0.4,0.4-0.5,1-0.4,1.6c0,0.2,0.1,0.3,0.2,0.5c0.3,0.6,0.6,1.2,1,1.8c0.2,0.3,0.5,0.7,0.9,0.8 c0.5,0.2,0.9,0.3,1.4,0.2c0.6-0.1,1-0.5,1.4-0.9c0.5-0.6,0.8-1.3,0.6-2.1c-0.2-0.6-0.6-1-1.1-1.3c-0.6-0.3-1.2-0.7-1.7-1 c-0.3-0.2-0.6-0.2-0.9-0.3C246,49.9,245.5,50.1,245.2,50.5"></path> </svg> 